<svg width="157" height="191" xmlns="http://www.w3.org/2000/svg"><g fill-rule="nonzero" fill="none"><g fill="#B0D171"><path d="M75.923 153.176c-.502-1.33-.947-4.635-1.523-11.32-.483-5.761-.966-10.156-1.207-11.08-.613-2.308-1.969-5.133-3.622-7.442-1.3-1.791-3.732-4.302-5.014-5.152-1.263-.868-2.6-2.216-2.6-2.64 0-.222-.111-.5-.241-.647-.13-.148-.037-.13.278.056.279.166.557.313.595.313.371 0-1.746-3.213-3.696-5.632-2.08-2.604-7.076-7.959-9.267-9.935-3.065-2.788-8.413-6.63-10.177-7.312-.223-.093-.966-.425-1.635-.72-.668-.314-2.117-.942-3.25-1.422-2.785-1.182-3.231-1.422-5.571-2.955-2.154-1.422-3.176-2.308-2.656-2.308.167 0 .966.129 1.764.277 1.783.332 1.728.332 1.728-.019 0-.24.148-.277.705-.184.372.055 1.077.147 1.56.221.52.074.836.185.78.296-.241.387.483.517 3.232.517 2.377 0 2.823-.037 2.823-.277 0-.203.241-.277 1.002-.277 1.43 0 2.192.184 2.08.48-.055.148-.055.258 0 .258.279 0 7.652 1.127 7.93 1.22.242.073.316 0 .316-.296 0-.351.074-.388.52-.296.279.056.984.203 1.56.333.836.166 1.077.295 1.114.59.075.462.91.702 1.598.444.464-.185.65-.13 1.411.387.483.333 1.95 1.108 3.231 1.7 5.795 2.714 7.188 3.748 10.326 7.83 3.102 3.988 3.696 5.04 5.516 9.768l.984 2.567.502-1.46c.612-1.864.724-2.104.928-2.104.093 0 .167-.167.167-.37 0-.794 2.173-4.672 4.049-7.202 1.114-1.514 5.367-5.909 5.72-5.909.13 0 .26-.13.334-.277.056-.148.223-.277.372-.277.13 0 .297-.11.352-.258.149-.351 6.482-3.435 7.076-3.435.279 0 .483-.11.483-.24 0-.259.613-.61 1.541-.887.39-.11.539-.073.632.13.056.129.204.258.334.258.502 0 1.95-.738 1.95-.997 0-.185.427-.37 1.282-.554 1.671-.388 1.95-.37 1.801 0-.13.351-.056.351 3.789-.277 2.878-.48 3.157-.48 3.157-.055 0 .258-.372.369-2.415.646-1.337.185-2.655.425-2.934.517-.297.092-1.356.296-2.377.443-1.876.259-3.436.628-3.603.868-.167.222-2.043.887-2.507.887-.26 0-.464.11-.464.24 0 .129-1.022.738-2.285 1.348-3.38 1.662-4.661 2.345-4.828 2.603a.579.579 0 01-.372.259c-.334.018-4.977 5.004-6.184 6.63-.557.757-1.541 2.345-2.154 3.545-.613 1.182-1.244 2.308-1.43 2.493-.279.314-.539 1.052-.966 2.733-.093.406-.316 1.016-.464 1.366-.167.351-.353.942-.39 1.33l-.112.72H75.57l-.947-1.883c-.502-1.053-1.152-2.567-1.43-3.38-.613-1.81-1.932-4.284-3.269-6.13-.557-.776-1.393-1.94-1.875-2.604-1.17-1.607-2.285-2.844-2.898-3.232a8.55 8.55 0 01-.984-.739C62.941 94.102 59.6 92.2 58.3 91.923c-.316-.074-.688-.259-.818-.406-.111-.148-.315-.259-.427-.259-.111 0-.91-.443-1.764-.997-1.393-.905-1.783-1.053-4.327-1.662-4.494-1.071-8.302-1.551-13.334-1.68-2.396-.056-5.015-.148-5.795-.204-2.321-.166-2.154-.018 3.455 2.623.297.147.65.258.798.258.13 0 .242.074.242.148s.315.259.705.388c2.34.83 6.723 3.25 6.723 3.712 0 .092.13.184.279.221.538.11 3.045 2.087 3.064 2.4 0 .204.186.333.52.37.297.037.576.222.687.48.093.222.316.406.502.406.167 0 .594.333.91.74.334.405.687.738.798.738.13 0 .817.61 1.56 1.348 1.003.997 1.337 1.459 1.337 1.846 0 .333.093.499.279.499.167 0 .39.092.52.185.13.11.446.35.743.572.297.222.501.554.501.831 0 .24.093.443.204.443.446 0 1.468.979 1.468 1.404 0 .295.111.443.334.443.483 0 .78.37.78.96 0 .406.093.517.427.517.427 0 1.616 1.182 1.616 1.607 0 .13.093.24.185.24.112 0 .186.166.186.37 0 .202.13.369.279.369.148 0 .278.129.278.277 0 .147.093.277.186.277.111 0 .186.129.186.277 0 .147.093.277.185.277.112 0 .186.11.186.24 0 .129.167.35.372.498.204.148.371.406.371.591 0 .185.074.333.149.333.092 0 .334.313.538.701.464.794 1.133 1.46 2.192 2.142 1.3.868 4.308 3.767 4.828 4.672.279.499.78 1.311 1.114 1.81.836 1.274 1.95 3.527 1.95 3.915 0 .185.168.628.353.997.762 1.422 1.226 3.989 1.616 9.122.149 1.94.371 4.303.501 5.263l.223 1.755.223-.739c.316-1.053.613-2.992.799-5.355.074-1.108.241-2.272.334-2.586.111-.295.241-1.274.297-2.16.056-.886.186-1.791.279-2.031.093-.24.26-.794.39-1.256.13-.462.297-.979.408-1.182.093-.185.316-.757.465-1.256.724-2.437 2.47-4.82 6.258-8.55 1.876-1.846 2.842-2.954 3.362-3.822.39-.702.78-1.256.872-1.256.075 0 .149-.13.149-.277 0-.148.093-.277.186-.277.111 0 .185-.148.185-.35 0-.185.205-.555.465-.832.26-.277.464-.572.464-.683 0-.092.111-.222.26-.277.149-.055.316-.295.371-.554.075-.24.242-.443.39-.443.149 0 .279-.13.279-.277 0-.166.13-.332.279-.388.148-.074.278-.221.278-.37 0-.147.186-.258.464-.258.39 0 .465-.092.465-.572 0-.406.093-.591.353-.665.204-.055.39-.277.427-.499.037-.24.204-.406.483-.443.297-.037.408-.184.408-.498 0-.24.409-.905.947-1.552.892-1.07.985-1.126 1.765-1.126.445 0 .817.092.817.185 0 .11-.483.72-1.077 1.348-3.975 4.265-8.673 10.803-8.135 11.338.056.055.26-.018.446-.185.316-.295.334-.277.26.314-.056.517-.576 1.127-3.139 3.638-5.032 4.95-6.165 6.759-7.372 11.616-.576 2.27-.78 3.748-1.412 9.787a112.672 112.672 0 01-.371 3.139c-.093.665-.26 1.902-.372 2.77a105.09 105.09 0 01-.39 2.807 21.093 21.093 0 00-.167 2.345v1.126h-.724c-.613 0-.743-.073-.91-.498z"/><path d="M99.899 102.763c-.13-.056-.242-.351-.242-.684 0-.48.223-.812 1.337-1.92.892-.868 1.486-1.33 1.765-1.33.297 0 .427-.11.427-.332 0-.388.891-1.256 2.414-2.345.557-.406 1.114-.813 1.244-.924 1.616-1.348 6.649-4.34 7.28-4.34.112 0 .205-.073.205-.165 0-.093.26-.24.594-.296a5.77 5.77 0 00.891-.277c.149-.092.743-.332 1.3-.554.557-.24 1.059-.48 1.115-.535.055-.074.575-.333 1.17-.573.594-.221 1.392-.628 1.764-.886a8.528 8.528 0 011.226-.683c.52-.222.52-.222-.428-.351-.538-.074-1.04-.074-1.151-.019-.26.166-8.32.48-9.026.351-.761-.148-.798-.59-.055-.738.315-.074.557-.24.557-.37 0-.203.371-.258 1.578-.258 1.282 0 1.579.055 1.579.277 0 .221.316.277 1.746.277.947 0 2.247-.056 2.878-.13.984-.092 1.189-.166 1.337-.535.112-.296.297-.425.576-.406.241.018.91-.037 1.504-.111.929-.111 1.059-.093 1.059.166s.111.295.65.203c.353-.055.947-.166 1.3-.221.854-.148.836.129-.037.812-1.932 1.496-5.887 3.564-10.642 5.558-2.507 1.053-5.293 2.678-7.54 4.395-.408.296-1.393 1.035-2.21 1.644-.817.59-2.488 2.05-3.714 3.232-1.226 1.181-2.34 2.105-2.451 2.068z"/></g><g fill="#B2D35F"><path d="M75.069 144.958c-.056-.24-.13-.757-.186-1.145-.056-.406-.186-.794-.316-.849-.13-.092-.223-1.33-.278-3.675-.075-3.656-.298-5.78-.632-5.89-.093-.037-.186-.37-.186-.74 0-1.717-1.95-7.423-2.544-7.423-.13 0-.241-.129-.241-.277 0-.147-.075-.277-.186-.277-.093 0-.186-.129-.186-.277 0-.147-.074-.277-.185-.277-.093 0-.186-.129-.186-.277 0-.147-.074-.277-.186-.277-.093 0-.186-.203-.186-.461 0-.259-.204-.776-.445-1.164-.502-.794-3.529-3.638-4.662-4.395-1.04-.664-1.708-1.33-2.154-2.105-.334-.554-.223-.498.799.48.65.628 1.541 1.385 2.005 1.7 2.285 1.532 5.497 5.391 6.983 8.42.446.905.817 1.514.817 1.348 0-.388-1.133-2.66-1.95-3.915a31.74 31.74 0 01-1.114-1.81c-.52-.905-3.529-3.804-4.829-4.672-1.058-.683-1.727-1.348-2.191-2.142-.204-.388-.446-.702-.539-.702-.074 0-.148-.166-.148-.387 0-.203-.074-.314-.186-.259-.093.056-.186-.018-.186-.166 0-.166-.074-.295-.185-.295-.093 0-.186-.13-.186-.277 0-.148-.074-.277-.186-.277-.093 0-.185-.13-.185-.277 0-.148-.075-.277-.186-.277-.093 0-.186-.111-.186-.259 0-.148-.13-.295-.278-.37a.445.445 0 01-.279-.387c0-.148-.056-.277-.149-.277-.074 0-.241-.259-.371-.554-.149-.314-.334-.517-.427-.443-.093.055-.167-.019-.167-.166 0-.148-.297-.5-.65-.758-.353-.277-.65-.609-.65-.757 0-.129-.242-.424-.557-.646-.298-.222-.558-.499-.558-.628 0-.13-.334-.499-.761-.83-.409-.333-.817-.813-.91-1.035-.093-.24-.409-.59-.687-.776-.613-.387-1.337-1.181-1.356-1.44 0-.259-2.693-2.9-2.823-2.77-.055.055-.408-.277-.78-.739-.39-.461-.761-.794-.854-.738-.093.055-.334-.166-.557-.462-.223-.314-.464-.535-.502-.48-.185.185-.798-.259-.798-.572 0-.167-.056-.259-.112-.185-.074.055-.278-.074-.464-.296-.186-.221-.334-.35-.353-.295 0 .074-.297-.166-.668-.499-.372-.35-.725-.59-.817-.535-.075.055-.205-.037-.26-.203-.056-.148-.186-.24-.279-.167-.111.056-.279-.073-.39-.295-.13-.203-.26-.332-.316-.277-.055.055-.241-.055-.408-.258-.167-.204-.409-.37-.557-.407-.13-.037-.446-.221-.688-.424-.798-.72-4.977-2.586-5.292-2.383-.093.056-.168-.037-.168-.184a.289.289 0 00-.278-.296 1.7 1.7 0 01-.613-.166c-1.003-.554-4.439-2.105-4.624-2.105a.245.245 0 01-.242-.24c0-.13-.371-.462-.835-.739-.52-.295-.836-.61-.836-.83 0-.389-.297-.481-.427-.112-.056.148-.223.093-.52-.184l-.427-.425h.482c.26 0 1.022.166 1.672.37.984.313 2.043.406 6.556.553 2.971.111 5.72.185 6.128.166.409-.018 1.244.056 1.857.167.613.11 1.486.24 1.95.295.465.056 1.542.222 2.396.37.873.147 1.634.24 1.727.184.074-.055.149-.018.149.074 0 .13 1.467.536 2.507.683.928.13 2.173.665 3.473 1.496.835.554 1.634.997 1.745.997.112 0 .316.13.446.277.13.148.297.24.372.185.092-.056.204-.019.278.092.056.093.242.185.39.185.724 0 4.476 2.179 5.627 3.268.279.24.706.573.985.74.612.387 1.727 1.624 2.897 3.23.483.665 1.318 1.829 1.875 2.604 1.338 1.847 2.656 4.322 3.269 6.131.669 1.995 2.303 5.263 2.619 5.263.334 0 .334.037-.112-.886-.427-.868-.483-1.2-.093-.72.242.332.26.295.446-.37.111-.388.241-1.015.297-1.403.056-.37.167-.683.242-.683.167 0 .594-1.09.594-1.478 0-.129.334-.757.724-1.366a43.54 43.54 0 001.56-2.807c.464-.905 1.393-2.364 2.062-3.269.668-.886 1.225-1.699 1.225-1.79 0-.112.075-.186.167-.186.093 0 1.282-1.108 2.638-2.437 1.374-1.348 2.674-2.548 2.878-2.678 1.04-.572 7.856-3.915 8.432-4.136.352-.13.724-.333.798-.425.093-.13.242-.074.427.185l.279.388 1.003-.37c.743-.258 1.021-.461 1.021-.72 0-.425.112-.462 1.82-.59 1.189-.075 1.337-.056 1.152.184-.13.129-.446.277-.725.277-.353.018-.39.055-.13.11.186.056.91-.036 1.579-.184.668-.166 1.486-.333 1.783-.406.315-.056.761-.148 1.021-.185.26-.055.966-.148 1.579-.203a26.105 26.105 0 001.857-.24c.408-.074.947-.074 1.207-.019.52.148 6.834-.092 8.171-.295.985-.148.892-.148 2.396.037.929.11 1.152.074 1.04-.093-.111-.184-.056-.203.279-.018.223.11.594.166.817.11.316-.073.297-.018-.167.37-.297.24-.706.499-.873.554-.186.055-.334.185-.334.277 0 .092-.112.166-.242.166s-.687.277-1.226.628c-.538.351-1.448.831-2.024 1.053-.594.24-1.096.48-1.151.554-.056.055-.557.295-1.115.535-.557.222-1.151.462-1.3.554a5.77 5.77 0 01-.891.277c-.334.056-.594.203-.594.296 0 .092-.093.166-.205.166-.538 0-5.441 2.844-6.797 3.97-.464.388-.724.573-1.727 1.293-1.504 1.09-2.396 1.939-2.303 2.216.112.277-.241.535-.705.554-.465 0-2.99 2.53-2.712 2.696.149.092-.093.461-.706 1.145-.501.554-.928.923-.965.85-.149-.389-.632-.093-1.523.978-.669.794-.892 1.163-.724 1.274.315.185-.112.72-.595.72-.185 0-.39.093-.445.185-.056.11-.019.185.074.185.316 0 .241.369-.074.461-.929.296-.929.296-.669.462.371.222-.316 1.034-.817.979-.204-.019-.26 0-.13.055.353.166.26.443-.13.443-.427 0-.687.296-.353.406.149.056.149.167 0 .444-.111.184-.223.24-.223.129 0-.332-.501-.296-.631.037-.056.148-.019.277.074.277.111 0 .186.092.186.185 0 .11-.167.184-.353.184-.204 0-.427.093-.483.185-.056.11-.019.185.074.185.112 0 .205.092.205.184 0 .111-.149.185-.353.185-.409 0-1.115.96-.799 1.07.372.112.242.407-.186.426-.241 0-.315.055-.185.11.371.148.26.425-.186.425-.353 0-.371.037-.149.185.242.148.223.184-.037.184-.204 0-.557.407-.928 1.072-.39.701-1.467 1.92-3.213 3.637-3.807 3.73-5.553 6.113-6.277 8.55a10.239 10.239 0 01-.465 1.256c-.111.203-.297.72-.408 1.182-.13.462-.297 1.034-.39 1.293-.093.258-.242 1.292-.334 2.308-.093 1.015-.242 2.05-.316 2.308-.074.259-.149.997-.167 1.662-.037 1.108-.242 2.678-.669 4.857-.353 1.846-1.003 2.677-1.448 1.846-.093-.184-.223-.997-.298-1.79-.204-2.18-.464-2.734-.352-.758.037.923.13 2.013.185 2.456.093.813-.037 1.09-.185.37zm-.205-7.202c-.204-4.21-1.021-8.937-1.597-9.307-.148-.073-.148-.018-.018.24.427.776.78 2.752 1.151 6.28.204 2.049.371 4.117.371 4.579 0 .461.056.83.112.83.074 0 .056-1.181-.019-2.622zm2.619-27.2c.13-.296.316-.887.408-1.293.112-.406.242-.905.316-1.108.093-.296.093-.314-.074-.074-.223.332-1.133 3.12-1.114 3.398 0 .11.055.055.111-.092.056-.148.204-.518.353-.831zm2.786-6.445c.464-.924.705-1.514.557-1.33-.167.203-.669 1.108-1.152 2.032-.464.923-.705 1.514-.557 1.33.167-.204.669-1.109 1.152-2.032zm6.277-8.236c1.745-1.828 1.727-1.81-.446.332-1.281 1.256-2.6 2.678-2.953 3.14-.483.683-.39.609.464-.333.595-.665 1.913-2.068 2.935-3.14zm5.311-3.989c0-.037-.241.037-.557.203-.297.166-.557.333-.557.388 0 .037.26-.037.557-.203.316-.166.557-.333.557-.388zm1.3-.535c.464-.24.762-.444.65-.444-.093 0-.557.203-1.021.444-.465.24-.743.443-.65.443.111 0 .557-.203 1.021-.443zm5.033-2.401c.353-.148.501-.259.353-.259-.26 0-1.337.517-1.096.536.074 0 .409-.13.743-.277z"/><path d="M78.3 140.896c0-.554.241-1.071.483-1.071.167 0 .26.221.26.646 0 .517-.074.646-.372.646-.204 0-.371-.11-.371-.221zm.26-2.863c.26-1.514.334-1.717.594-1.717.297 0 .316.277.149 1.551-.093.684-.204.85-.483.85-.334 0-.353-.093-.26-.684zm.297-2.677c0-.554.242-1.071.483-1.071.167 0 .26.221.26.646 0 .517-.074.646-.371.646-.205 0-.372-.11-.372-.221zm1.95-7.83c.149-.37.279-.702.279-.757 0-.037.093-.018.185.037.112.055.186.406.186.757 0 .554-.056.628-.464.628-.464 0-.464 0-.186-.665zm6.872-8.568c.612-.61 1.151-1.108 1.188-1.108.056 0-.39.498-1.003 1.108-.613.61-1.151 1.108-1.188 1.108-.056 0 .39-.499 1.003-1.108zm-12.796-10.692c-.056-.074-.186-.37-.279-.647-.185-.443-.148-.48.26-.48.409 0 .465.074.465.647 0 .609-.223.85-.446.48zm-2.526-5.503c-.928-1.551-3.956-5.503-5.274-6.87-.613-.665-.966-1.09-.762-.942.502.351 2.136 2.087 2.136 2.253 0 .093.26.148.557.148.427 0 .557.074.557.37 0 .203.13.369.279.369.167 0 .279.166.279.461 0 .333.092.462.371.462.241 0 .371.13.371.37 0 .203.13.369.279.369.149 0 .279.166.279.37 0 .202.13.368.278.368.149 0 .279.13.279.277 0 .148.093.277.185.277.112 0 .186.13.186.277 0 .148.093.277.186.277.111 0 .186.204.186.462 0 .295.111.462.278.462.186 0 .279.203.279.646 0 .35-.056.646-.149.646-.074 0-.427-.48-.78-1.052zm-8.19-9.252c-.538-.406-1.783-1.07-5.367-2.788-2.563-1.22-3.937-2.069-3.696-2.309.056-.055.483.185.985.536.798.572 2.135 1.256 4.438 2.271.483.222 1.17.407 1.523.407.52 0 .65.073.65.369 0 .443.873.923 1.671.923.465 0 .558.074.558.462 0 .554-.168.572-.762.13zM52.84 88.045c-.038-.037-.409-.11-.818-.166-1.151-.166-1.764-.443-1.745-.813 0-.203.055-.24.111-.092.056.13.446.222 1.003.222.501 0 .91.073.91.166 0 .092.223.203.501.24.502.055.855.517.39.517-.148 0-.315-.037-.352-.074zm-12.926-1.902c-1.542-.11-1.152-.332.594-.332.966 0 1.56.074 1.523.184-.074.203-.687.259-2.117.148zm72.373-.24c0-.11.65-.185 1.578-.185.929 0 1.579.074 1.579.185 0 .11-.65.185-1.579.185-.928 0-1.578-.074-1.578-.185zm-81.529-.166c-.594-.074-.854-.203-.891-.425-.056-.24.055-.332.408-.332.297 0 .483.11.483.277 0 .221.242.277 1.022.277.557 0 1.021.092 1.021.184 0 .203-.669.203-2.043.019zm90.722-.222c-.075-.11-.093-.221-.056-.258.13-.148 1.448.129 1.448.295 0 .24-1.262.203-1.392-.037zm3.862-.11c.706-.296 1.022-.24.78.11-.055.111-.427.203-.798.185h-.687l.705-.296zm-2.284-.038c0-.166 1.319-.406 1.486-.258.037.037-.037.148-.186.24-.353.222-1.3.24-1.3.018z"/></g><g fill="#0192DA"><path d="M131.971 91.11c0-.092-.631-.554-1.392-1.052-1.096-.72-1.393-1.016-1.393-1.348 0-.333.074-.425.315-.333.279.111.298-.166.168-3.342-.39-10.858-2.6-20.017-6.983-28.974-1.727-3.564-2.619-5.115-4.699-8.199-6.073-9.048-14.671-16.176-23.901-19.814-5.925-2.327-10.753-3.269-16.845-3.287-8.134-.019-15.024 1.81-22.49 5.965C42.68 37.41 33.171 49.543 28.27 64.464 26.114 71 25.037 77.076 24.703 84.666c-.112 2.603-.093 2.899.186 2.899.167 0 .297.148.297.37 0 .313-.13.369-.762.369-.761 0-2.024.59-2.024.941 0 .093-.186.167-.409.167-.427 0-.427 0-.39-2.807.242-14.182 3.678-26.629 10.456-37.746C40.75 34.567 54.343 24.853 69.2 22.305c4.439-.757 10.381-.831 14.671-.203 15.656 2.345 29.418 11.984 38.61 27.053 1.04 1.717 4.29 7.94 4.29 8.236 0 .055.13.37.279.683.873 1.92 2.359 6.26 3.157 9.27 1.69 6.408 2.322 11.062 2.489 18.43l.111 5.484h-.408c-.242 0-.428-.074-.428-.148z"/><path d="M51.91 87.86c-1.764-.387-1.671-.24-1.541-2.179.315-5.54 1.485-10.156 3.64-14.422 3.955-7.903 10.177-13.111 17.884-15.031 1.801-.444 2.396-.499 5.107-.499 2.303-.019 3.454.074 4.643.332 8.041 1.736 14.671 7.128 18.664 15.161 1.579 3.176 2.322 5.3 2.972 8.476.538 2.66.928 7.073.65 7.405-.112.13-.539.277-.985.351-.427.074-1.058.166-1.374.222l-.613.11v-1.31c0-5.965-2.024-12.428-5.441-17.47-1.393-2.031-4.755-5.41-6.575-6.61-3.751-2.475-7.484-3.639-11.625-3.639-2.637 0-4.012.204-6.129.85-7.168 2.234-13.167 8.513-15.99 16.712-1.114 3.25-1.783 7.073-1.783 10.286 0 1.09-.055 1.514-.223 1.495-.13-.018-.705-.129-1.281-.24z"/><path d="M39.913 86.143c-1.152-.092-1.077.203-.78-3.324 1.653-19.796 13.984-35.88 30.494-39.758 13.502-3.158 27.319 2.345 36.344 14.496 5.089 6.851 8.228 15.161 9.193 24.32.149 1.496.279 3.066.279 3.472v.739h-3.102l-.13-2.253c-.575-10.12-4.587-20.147-10.808-27.09-4.754-5.263-9.862-8.532-16.157-10.36-3.139-.905-5.256-1.163-9.082-1.053-2.674.074-3.733.185-5.293.554-10.344 2.456-18.924 9.64-24.05 20.166a47.866 47.866 0 00-4.717 18.097l-.111 2.031-.557.018a26.55 26.55 0 01-1.523-.055z"/><path d="M30.813 85.737c-.446-.074-.854-.185-.91-.259-.204-.184.241-5.798.668-8.531.762-4.912 2.378-10.544 4.309-15.05.91-2.124 2.711-5.651 3.621-7.091 1.412-2.198 2.953-4.432 4.03-5.743 7.875-9.788 17.94-15.77 29.176-17.377 2.916-.407 8.172-.407 10.957 0 9.732 1.459 18.256 5.909 25.443 13.24 2.712 2.77 4.012 4.34 6.073 7.368 6.091 8.92 9.601 19.482 10.289 30.968l.13 2.069-.446.11c-.242.056-.947.13-1.56.148l-1.114.037-.056-1.57c-.093-3.379-1.003-9.307-1.932-12.741-3.918-14.533-12.684-26.186-24.31-32.372-6.722-3.582-14.615-5.152-21.858-4.358-13.52 1.459-25.684 10.101-33.187 23.582-4.197 7.57-7.15 18.263-7.15 25.926 0 .665-.056 1.348-.112 1.515-.13.313-.687.35-2.061.129z"/></g><path d="M.114 91.997c0-.72.019-.739.632-.739.78 0 .891.148.743.905-.112.499-.205.573-.743.573-.613 0-.632-.019-.632-.74zm2.786-.185c0-.295.13-.37.65-.37s.65.075.65.37c0 .296-.13.37-.65.37s-.65-.074-.65-.37zm137.001-1.976c-.074-.055-.13-.387-.13-.738 0-.554.056-.61.558-.61.427 0 .557.074.557.37 0 .203.093.369.185.369.112 0 .186.166.186.37 0 .295-.13.369-.613.369-.353 0-.687-.056-.743-.13zm3.77-.424c0-.24-.13-.37-.371-.37s-.371-.129-.371-.37c0-.331.13-.368 1.021-.368h1.021v.738c0 .72-.018.739-.65.739-.52 0-.65-.074-.65-.37zm-70.2-4.174c-1.3-1.219-1.671-2.068-1.671-3.915 0-1.736.13-2.142.966-3.084 1.838-2.105 5.144-2.068 7.075.093.966 1.052 1.245 1.791 1.245 3.268 0 2.142-1.022 3.694-2.767 4.285-.353.11-1.375.203-2.285.203h-1.653l-.91-.85zm-59.614-.074c-.241-.166-.223-.221.074-.461.539-.407.855-.333.855.184 0 .499-.409.61-.929.277zm-.037-2.16c-.186-.037-.334-.24-.334-.425 0-.665.223-.923.761-.923.446 0 .539.074.539.443 0 .942-.186 1.108-.966.905zm138.58-1.071c0-.333.093-.462.371-.462.205 0 .372-.13.372-.277 0-.462.538-.314.668.185.186.738-.018 1.015-.761 1.015-.576 0-.65-.055-.65-.461zm-13.241-1.7c-.075-.055-.13-.276-.13-.46 0-.24.13-.333.464-.333.371 0 .464.092.464.461 0 .333-.093.462-.334.462-.186 0-.409-.055-.464-.13zm7.67-1.236c0-.444.055-.48.854-.48.761 0 .836.036.78.424-.037.333-.186.425-.836.462-.743.055-.798.018-.798-.406zm-8.785-5.965c-.055-.314 0-.628.167-.794.223-.222.298-.222.539.092.149.203.279.554.279.794 0 .314-.112.407-.446.407s-.464-.13-.539-.5zm6.556-1.09c0-.498.501-.812 1.281-.812.613 0 .762.055.762.35 0 .26-.223.407-.817.555-1.096.258-1.226.258-1.226-.093zm-4.457-16.435c0-.646.018-.646.687-.59.984.073 1.059.609.167.978-.873.37-.854.37-.854-.388zm5.59-1.883c-.26-.48-.26-.591-.019-.591.112 0 .353-.166.557-.37.483-.48.706-.461.966.093s-.018.923-.817 1.108c-.371.092-.539.037-.687-.24zm-124.02-1.09c-.13-.037-.242-.24-.242-.443 0-.258.13-.35.558-.35.445 0 .557-.075.557-.407 0-.37.018-.37.371-.055.334.295.334.369.074.849-.26.517-.724.665-1.318.406zm3.064-5.06a.682.682 0 01-.334-.535c0-.314.13-.37.854-.37h.836l-.39.555c-.427.609-.502.627-.966.35zm103.759-.203c-.409-.609-.353-.701.464-.701.873 0 .984.35.279.812-.428.277-.465.277-.743-.11zM11.127 43.837c-.186-.13-.186-.222 0-.499.242-.314.279-.314.836.018.334.185.594.407.594.48 0 .185-1.133.185-1.43 0zM33.73 34.29a.285.285 0 00-.279-.277c-.149 0-.279-.074-.279-.148 0-.185.39-.591.576-.591.279 0 1.282.96 1.17 1.126-.167.296-1.188.203-1.188-.11zM54.807 19c-.223-.518-.223-.592.019-.647.483-.11.817.13.817.591 0 .72-.539.757-.836.055zm6.036-1.718c0-.24.074-.443.167-.443.093 0 .223-.203.279-.443.092-.407.761-.831.965-.61.056.037.13.37.205.72.092.647.074.665-.762.942l-.854.296v-.462zm29.213-.572c-.13-.037-.242-.24-.242-.444 0-.295.13-.35.743-.35.743 0 .836.092.632.627-.112.277-.669.37-1.133.167zm-11.57-7.073c0-.406.093-.739.185-.739.112 0 .186-.166.186-.369 0-.24.13-.37.372-.37.334 0 .371.13.371 1.109v1.108h-.557c-.52 0-.557-.037-.557-.74zm9.285-1.09c0-.221-.074-.387-.185-.387-.093 0-.186-.37-.186-.831 0-.462.093-.831.186-.831.111 0 .185-.167.185-.37 0-.517.52-.461.65.056.075.24.093.923.056 1.514-.037.886-.13 1.108-.371 1.163-.242.037-.335-.055-.335-.314zM67.826 4.8c-.056-.24-.112-.831-.112-1.33v-.886l.576.11c.316.056.65.111.743.111.093 0 .167.37.167.831 0 .702-.056.831-.371.831-.242 0-.372.13-.372.37 0 .498-.483.461-.631-.037z" fill="#BB3B32"/><path d="M149.986 91.72c-3.12-1.533-4.142-1.94-4.755-1.94-.464 0-.817-.091-.872-.22-.075-.185-.112-.185-.112 0-.037.424-.39.22-.39-.24 0-.37.093-.462.464-.462.298 0 .465-.111.465-.277 0-.185.185-.277.52-.277.297 0 2.117-.905 4.475-2.216 2.192-1.2 4.049-2.16 4.142-2.106.186.111.186 1.2 0 1.478-.13.221-5.962 3.398-6.203 3.398-.334 0-.111.35.279.48.612.184 5.757 2.493 6.035 2.714.242.185.316 1.607.093 1.607-.093 0-1.95-.887-4.141-1.94zM7.506 93.05c-4.866-.167-5.163-.204-5.163-.518 0-.203.111-.35.26-.35.148 0 .334-.167.39-.37.111-.35.241-.37 2.061-.314 1.077.037 1.913 0 1.895-.074-.038-.092-1.523-1.348-3.306-2.788l-3.25-2.64-.056-.887c-.037-.573.019-.868.167-.868.112 0 1.282.905 2.582 2.013 1.3 1.108 2.525 2.105 2.711 2.234.297.166 1.003-.129 4.346-1.846 2.191-1.127 4.123-2.013 4.271-1.995.186.037.279.296.279.776v.72l-3.677 1.828L7.32 89.8l.891.776c.483.425.966.83 1.096.905.112.074 1.319.184 2.674.258 1.338.074 2.489.185 2.526.259.056.092.037.406-.018.72-.112.554-.168.573-.985.536-.464-.019-3.175-.111-5.998-.204zM7.45 82.227c-3.677-.461-6.779-.923-6.89-.979-.279-.184-.056-1.274.297-1.477.223-.13 2.526-.96 10.642-3.878.278-.092.501-.258.501-.35 0-.093-.223-.167-.501-.167-.298 0-2.712-.258-5.386-.59l-4.884-.592v-.461c0-.98-.168-.98 7.335-.056l7.057.868.056.48c.037.259-.093.647-.278.85-.205.221-2.322 1.07-5.442 2.179-2.804.997-5.311 1.92-5.571 2.05l-.465.221.65.11c.353.056 2.396.315 4.55.573 5.089.61 5.108.61 5.108.924 0 .147.092.277.185.277.112 0 .186.092.186.184 0 .111-.13.185-.279.185-.334 0-.371.295-.037.425.335.147.335.147-6.834-.776zm144.69-.24c-.056-.24-.149-.997-.241-1.717-.13-1.145-.186-1.293-.52-1.256-3.195.295-3.213.295-3.343-.11-.056-.204-.205-.389-.297-.389-.093 0-.168-.11-.168-.258 0-.314.409-.406 2.285-.573.984-.092 1.485-.221 1.56-.387.055-.148.018-.887-.075-1.644-.092-.757-.13-1.459-.074-1.551.074-.092.409-.222.799-.295.743-.148.761-.111.984 1.44.111.775.074.868-.26.868-.186 0-.409-.111-.446-.222-.055-.13-.111-.074-.111.13-.019.258.148.443.501.572.52.203.539.24.78 2.493.149 1.256.26 2.4.242 2.53-.037.683-.093.85-.186.646-.111-.277-.613-.314-.613-.055 0 .387-.743.184-.817-.222zm-12.814-1.92c-.242-.647-.112-.758 1.04-.887.631-.055 1.207-.203 1.263-.314.092-.129 3.417-.683 4.42-.72.018 0 .037.13.037.277 0 .166.167.277.464.277.446 0 .817.443.576.683-.112.13-6.37.98-7.187.98-.279 0-.539-.13-.613-.296zm-1.077-6.98c-.446-.61-.13-.924 1.151-1.183.557-.11 3.603-.757 6.76-1.421 3.139-.684 5.757-1.182 5.813-1.145.037.055.111.369.167.72l.111.628-2.897.61c-1.615.331-3.064.535-3.287.48-.241-.075-.464-.038-.538.092-.13.203-5.98 1.643-6.686 1.643-.149 0-.427-.185-.594-.425zM9.864 71.018c-2.525-.628-4.345-1.533-5.441-2.733-.984-1.071-1.374-1.994-1.393-3.268-.037-4.266 5.497-6.002 10.92-3.398 4.513 2.16 5.051 6.906 1.021 8.974-.705.37-1.151.444-2.785.48-1.077.019-2.117-.018-2.322-.055zm4.773-2.013c1.857-1.31 1.913-3.656.112-5.17-.78-.665-2.563-1.46-3.826-1.736-2.823-.591-5.07.018-5.924 1.643-.242.462-.669.924-.948 1.034L3.55 65l.483.019c.39.018.52.147.687.72.724 2.4 3.696 3.952 7.41 3.86 1.56-.038 1.764-.093 2.507-.592zm122.906.794l-.223-.775 2.321-2.18c2.712-2.53 2.879-2.843 2.452-4.487-.167-.59-.334-1.126-.372-1.181-.055-.037-1.392.313-2.99.775-3.138.923-3.417.923-3.417-.037 0-.461.093-.517 2.377-1.163 1.3-.37 4.272-1.219 6.593-1.902 2.34-.665 4.383-1.2 4.532-1.164.185.037.483.684.817 1.81.836 2.789 1.114 4.284.91 4.986-.409 1.44-2.284 2.585-4.234 2.585-1.375 0-2.043-.295-2.749-1.2l-.483-.646-.501.775c-.483.757-4.402 4.58-4.699 4.58-.074 0-.223-.351-.334-.776zm10.14-4.505c.854-.407 1.188-.924 1.188-1.81 0-.776-.687-3.564-.965-3.915-.112-.166-.687-.055-2.062.332-2.748.794-2.581.591-2.043 2.401.762 2.66 1.263 3.287 2.619 3.287.353 0 .91-.13 1.263-.295zm-13.353-6.057c-.056-.111-.78-1.736-1.597-3.601-.836-1.884-1.449-3.472-1.374-3.546.297-.277 12.535-5.706 12.851-5.706.111 0 .316.277.464.61.149.313.65 1.458 1.133 2.53 1.523 3.434 1.486 3.342 1.152 3.526-.168.111-.26.296-.186.462.074.222 0 .259-.427.148-.297-.074-.595-.166-.65-.24-.056-.056-.465-.942-.91-1.958a56.46 56.46 0 00-1.133-2.53l-.353-.683-1.95.85c-1.077.48-1.95.923-1.95 1.015 0 .074.501 1.274 1.133 2.64.724 1.607 1.077 2.623 1.003 2.826-.093.222-.167.24-.223.093a.411.411 0 00-.353-.24c-.167 0-.223.092-.167.184.056.111-.074.185-.334.185-.39 0-.558-.277-1.523-2.493-.595-1.367-1.133-2.493-1.189-2.493-.056 0-1.077.425-2.266.942l-2.172.96.278.665c.149.37.743 1.699 1.3 2.936.557 1.256.966 2.382.929 2.511-.13.333-1.375.684-1.486.407zm-114.994-.425c-.205-.056-3.25-.757-6.779-1.551-3.528-.813-6.5-1.496-6.63-1.552-.167-.055-.186-.221-.037-.646.111-.295.26-.59.334-.628.075-.055 2.563.536 5.516 1.293 2.953.757 5.571 1.422 5.831 1.477.688.185.558.074-4.55-3.62-2.544-1.846-4.661-3.47-4.698-3.6-.093-.425.501-1.385.873-1.385.483 0 7.707 1.551 9.768 2.105.929.24 1.69.425 1.727.388.038-.037-.464-.406-1.114-.85-5.181-3.471-8.691-5.983-8.691-6.241 0-.166.093-.425.185-.573.279-.443.929-.074 4.365 2.401 1.745 1.256 4.178 3.028 5.441 3.933 1.244.887 2.266 1.755 2.266 1.884 0 .535-.223.794-.594.683-.205-.037-.428 0-.502.092-.093.148-6.036-1.034-11.254-2.234-.557-.13.353.573 5.2 4.063 2.358 1.699 4.346 3.139 4.438 3.231.205.185-.334 1.478-.575 1.44-.093-.018-.316-.055-.52-.11zm5.014-11.579c-.204-.147-2.674-1.68-5.479-3.434-2.804-1.755-5.255-3.343-5.441-3.509-.334-.314-.334-.332.093-.812l.427-.48 5.274 3.305c2.897 1.828 5.33 3.287 5.405 3.25.074-.055.538-.739 1.021-1.514.483-.794 1.077-1.755 1.319-2.124l.445-.702.65.314c.353.167.65.425.65.573 0 .129-.687 1.348-1.504 2.696-1.226 1.976-1.597 2.437-1.857 2.382-.204-.055-.353 0-.353.11 0 .26-.186.24-.65-.055zm103.926-.424c-.205-.443-.855 0 6.444-4.58 2.08-1.293 3.826-2.474 3.863-2.585.056-.13-.279-.85-.743-1.588l-.854-1.367.52-.425c.278-.221.631-.387.761-.369.297.055 4.476 6.703 4.476 7.11 0 .277-1.059.85-1.3.701-.093-.055-.52-.683-.947-1.385-.427-.72-.855-1.292-.985-1.292-.111 0-.52.203-.891.461-.371.259-.817.462-.966.462-.148 0-.464.203-.705.443-.242.24-1.969 1.404-3.863 2.604-3.677 2.327-4.439 2.622-4.81 1.81zm-3.269-6.168c-1.653-.37-3.138-2.364-3.157-4.229 0-1.145.353-2.013 1.3-3.084l.631-.701.465.461.464.462-.539.812c-.835 1.22-.891 1.884-.26 3.121.335.647.762 1.164 1.152 1.385 1.541.905 3.566-.148 3.566-1.846 0-.259-.298-1.385-.65-2.475-.353-1.108-.65-2.308-.65-2.66 0-1.827 2.135-3.785 4.122-3.785 2.248 0 4.253 2.641 3.678 4.82-.242.886-1.245 2.382-1.579 2.382-.297 0-.836-.61-.836-.923 0-.148.167-.443.39-.665.52-.554.65-1.699.297-2.419-.427-.794-1.541-1.717-2.098-1.717-1.096 0-2.303.997-2.303 1.902 0 .147.334 1.274.761 2.53 1.003 3.01.873 3.97-.761 5.429-1.226 1.108-2.6 1.514-3.993 1.2zM24.424 36.025c-3.008-2.437-5.478-4.505-5.515-4.598-.056-.148 1.727-2.4 3.992-5.115l.818-.979.557.407c.297.221.538.517.538.646 0 .13-.835 1.274-1.857 2.548-1.021 1.256-1.857 2.345-1.857 2.438.019.184 3.064 2.64 3.287 2.64.093 0 .966-.997 1.932-2.215.965-1.22 1.801-2.216 1.875-2.216.075 0 .39.221.706.517l.576.498-1.263 1.57c-.687.868-1.542 1.92-1.857 2.327l-.613.775 1.838 1.496c1.022.831 1.895 1.496 1.932 1.496.056 0 .984-1.108 2.08-2.475 1.597-1.994 2.061-2.456 2.34-2.363.186.073.316.203.297.295-.019.092.149.24.39.314.371.148.409.203.186.499-.669.904-4.625 5.761-4.773 5.835-.074.055-2.6-1.902-5.609-4.34zm7.169-8.605c-2.6-2.9-4.736-5.355-4.736-5.43 0-.24 3.436-3.157 4.179-3.545 1.838-.941 4.085-.11 6.611 2.42 1.263 1.292 1.764 1.957 2.396 3.231.687 1.367.817 1.791.817 2.77 0 .757-.111 1.348-.334 1.754-.297.591-3.325 3.638-3.919 3.952-.186.11-1.486-1.219-5.014-5.152zm7.447.277c.52-.979.26-2.142-.799-3.823-1.801-2.806-4.382-4.524-6.072-4.062-.353.092-1.189.683-1.913 1.348l-1.263 1.182.39.425c5.2 5.872 6.5 7.312 6.741 7.515.242.185.465.056 1.467-.923.65-.646 1.3-1.385 1.449-1.662zm77.796 4.192c-.91-.351-1.857-1.237-2.377-2.216-.78-1.496-.372-4.173.928-6.112 1.114-1.644 2.953-3.343 4.402-4.082 3.528-1.772 6.982.111 6.982 3.842 0 .664-.13 1.588-.278 2.012-.817 2.29-3.25 5.06-5.349 6.094-1.467.72-3.138.887-4.308.462zm3.751-1.847c1.226-.61 3.362-2.844 4.049-4.247 1.355-2.715.371-5.17-2.155-5.41-2.748-.26-6.871 3.988-6.871 7.072 0 2.604 2.396 3.86 4.977 2.585zm-75.623-6.408c-3.733-1.33-6.945-8.05-5.33-11.153.836-1.625 2.452-2.66 4.123-2.66 1.17 0 1.969.333 2.953 1.2.78.703.78.74.223 1.552-.13.222-.297.148-.892-.314-1.467-1.145-3.12-1.108-4.345.13-.91.904-1.207 1.957-.929 3.323.427 2.142 2.136 4.875 3.64 5.873.873.572 2.303.757 3.324.424.78-.258 1.969-1.514 2.303-2.474.242-.628.223-.72-.334-1.68-.316-.555-.669-1.053-.761-1.127-.112-.055-.743.222-1.43.646l-1.245.739-.427-.499c-.223-.277-.39-.627-.353-.775.037-.24 3.343-2.4 3.677-2.4.186 0 2.768 4.376 2.768 4.69 0 .646-1.115 2.696-1.839 3.397-.427.407-1.17.868-1.634 1.035-.985.332-2.656.369-3.492.073zm59.373-1.366c-.223-.148-.408-.37-.408-.462 0-.24 7.558-11.56 7.818-11.726.446-.277 4.829 2.973 5.274 3.915.613 1.293.056 3.213-1.411 4.783-1.764 1.902-3.38 1.846-6.203-.166-.501-.37-1.003-.665-1.114-.665-.093 0-.873 1.034-1.727 2.308-.836 1.274-1.597 2.308-1.672 2.308-.074 0-.334-.129-.557-.295zm9.954-4.229c.706-.572 1.338-1.865 1.338-2.659 0-.406-.149-.739-.502-1.071-.743-.665-2.767-2.087-2.99-2.087-.297 0-2.841 3.915-2.748 4.192.055.13.742.646 1.522 1.163 1.69 1.09 2.489 1.2 3.38.462zm-59.447.868c-.297-.646-3.974-11.855-4.16-12.705-.093-.37.186-.498 3.325-1.533 1.857-.609 3.547-1.126 3.714-1.126.353 0 .836 1.237.594 1.477-.093.074-1.411.536-2.953 1.016-1.523.48-2.823.905-2.86.942-.148.129 1.17 3.989 1.393 4.08.112.038 1.356-.313 2.749-.775 1.411-.461 2.637-.83 2.711-.83.186 0 .669 1.44.539 1.55-.037.037-1.282.462-2.767.942-1.486.48-2.73.905-2.749.942-.149.11 1.374 4.377 1.579 4.45.13.056 1.522-.332 3.101-.868 1.597-.517 2.971-.904 3.083-.83.26.166.223.627-.093.941-.149.148-.223.388-.167.517.074.167-.836.536-3.213 1.311-1.82.591-3.343 1.09-3.399 1.108-.055.037-.241-.24-.427-.609zm42.956.277c-.743-.258-.724-.203-1.281-3.86-.205-1.274-.465-2.566-.613-2.862-.242-.517-1.932-1.514-2.6-1.532-.26 0-.539.646-1.282 3.01-.538 1.643-1.003 2.88-1.04 2.77-.093-.277-.613-.333-.613-.056 0 .092-.13.13-.278.074-.39-.166-.353-.462.353-2.66.353-1.07 1.318-4.043 2.154-6.592.817-2.566 1.579-4.672 1.671-4.672.093 0 1.189.333 2.415.739 3.993 1.311 4.494 1.736 4.605 3.712.093 1.459-.241 2.585-1.04 3.527-.557.646-1.745 1.237-2.488 1.256-.297 0-.52.036-.52.073s.167.425.371.868c.483 1.071.483 1.644 0 1.644-.278 0-.371.13-.371.462 0 .258.093.461.186.461.111 0 .185-.074.185-.184 0-.093.13-.185.279-.185.278 0 .334.24.65 2.493.278 1.994.334 1.883-.743 1.514zm.947-9.048c.557-.425 1.096-1.496 1.096-2.198 0-1.44-.502-1.847-3.306-2.751-.836-.259-1.393-.351-1.504-.24-.093.092-.446 1.052-.817 2.142-.465 1.44-.595 2.03-.446 2.123.111.093.836.37 1.616.647 1.504.535 2.878.646 3.361.277zm-17.086 5.318c-1.745-.536-3.324-2.807-3.064-4.45.093-.702.186-.813.557-.813.335 0 .465.13.557.517.762 3.564 4.142 4.524 6.036 1.699.576-.85 1.096-2.327 1.096-3.12 0-.758.204-1.312.483-1.312.148 0 .26.203.26.48 0 .332.111.517.39.573.353.092.371.203.26.96-.297 1.957-1.449 4.08-2.675 4.875-1.3.85-2.47 1.034-3.9.59zm-12.907-.203c-.148-.407-.13-1.607.037-1.865.075-.111.353-.259.613-.333.576-.148.725.185.725 1.625 0 .868 0 .868-.632.868-.408 0-.668-.11-.743-.295zm.446-3.38c0-.258-.093-.332-.353-.258-.427.11-.464-.074-.761-3.509-.26-3.231-.26-3.268.185-3.268.205 0 .372-.074.372-.185 0-.092.111-.185.26-.185.297 0 .483.554.483 1.57 0 1.182.074 1.2 1.95 1.016.928-.093 2.024-.185 2.47-.185.705 0 .78.037.78.462 0 .406-.093.461-.687.48-.446.018-.539.055-.279.11.223.037.409.185.409.333 0 .295-.576.443-1.765.48-1.578.019-2.6.24-2.581.536 0 .147.074.886.13 1.625.13 1.255.111 1.33-.242 1.33-.241 0-.371-.13-.371-.352zM87.4 7.33c0-.148-.074-.277-.186-.277-.093 0-.223-.314-.278-.684-.242-1.385-.669-2.4-1.263-2.954-.817-.776-1.282-.979-2.173-.979-1.653 0-2.971 1.33-3.547 3.564-.204.868-.632 1.145-.78.554-.074-.258-.093-.222-.112.092-.018.517-.761.591-.761.056 0-.61.669-2.549 1.189-3.416C81.754-.575 86.787.164 88.05 4.54c.409 1.404.464 2.345.167 2.456a.397.397 0 00-.26.351c0 .148-.13.259-.278.259a.285.285 0 01-.279-.277zM68.476 3.543c-.019-.148-.223-.443-.483-.628-.353-.258-.464-.517-.464-1.052 0-.462.092-.72.241-.72.111 0 1.597-.13 3.287-.278 1.69-.147 3.194-.277 3.362-.277.352 0 .668 1.238.408 1.496-.093.093-1.207.24-2.47.351-2.916.259-3.157.314-3.157.646 0 .148-.111.277-.26.277-.149 0-.316.111-.353.24-.074.148-.111.13-.111-.055z" fill="#D52923"/><g fill="#C72D25"><path d="M7.227 92.976c-.334-.13-.297-.425.037-.425.149 0 .279.13.279.277 0 .148-.019.277-.037.258a1.19 1.19 0 01-.279-.11zm-5.813-.185c-.26-.055-.538-.203-.613-.35a.535.535 0 00-.427-.26c-.464 0-.223-.609.297-.738.26-.074 1.133-.056 1.95.018.818.093 1.765.111 2.118.037.445-.074.594-.037.501.111-.074.11-.353.203-.631.222h-.502l.464.221c.446.203.428.203-.315.277-.465.037-.799.148-.799.277 0 .24-1.207.333-2.043.185zm3.9-.055c0-.093.112-.185.242-.204.111 0 .371-.037.557-.073.167-.037.316.055.316.203 0 .166-.205.258-.558.258-.297 0-.557-.074-.557-.184zm134.643-3.25c-.26-.684-.223-.924.149-.942 2.47-.148 5.645-.203 5.441-.074-.148.092-.167.203-.056.277.13.074.112.258-.018.572-.223.462-.502.628-.502.277 0-.221-.687-.24-.78-.018-.018.092-.965.221-2.061.277l-2.006.092-.167-.462zM8.416 88.967c-.093-.221.557-.664.984-.664.371 0 .167.369-.353.627-.446.24-.557.24-.631.037zm-5.312-.738c-.148-.185-.167-.296-.018-.388.093-.055.241.018.297.185.167.406-.019.535-.279.203zm145.34-.056c-.093-.184.613-.868 1.003-.96 1.022-.258 1.152.148.186.683-.762.425-1.059.499-1.189.277zm2.322-1.274c-.205-.221-.167-.295.241-.443 1.04-.388 1.43-.037.52.443-.446.222-.557.222-.761 0zm2.135-1.07c-.13-.333.223-.666.539-.536.353.129.316.369-.093.59-.26.148-.371.13-.446-.055zm.242-1.497c0-.037.167-.166.371-.277.297-.166.372-.147.372.093 0 .147-.167.277-.372.277-.204 0-.371-.037-.371-.093zM11.07 82.634a.997.997 0 01-.427-.35c-.204-.351-.687-.333-.687.018 0 .295-.52.185-.836-.203-.297-.351-1.04-.443-1.151-.148-.149.388-.427.314-.427-.11 0-.204-.112-.37-.26-.37-.167 0-.223-.13-.167-.388.074-.258.185-.332.408-.24.502.203 2.322.443 2.675.333.204-.056.297-.019.278.129-.037.148.297.295.966.406.984.148 1.838.573 1.021.499-.873-.093-1.244 0-1.133.277.056.147.075.277.056.258-.018 0-.167-.055-.316-.11zm2.972-.424c0-.203-.093-.37-.223-.37-.111 0-.149-.055-.093-.129.13-.11.873.554.873.776 0 .055-.13.092-.279.092-.148 0-.278-.166-.278-.37zm138.134-.13c-.074-.277.056-.332.78-.35.817-.037.873 0 .78.35-.056.222-.13.296-.186.167-.074-.259-.594-.296-.594-.037 0 .314-.687.203-.78-.13zM6.391 81.803c-.13-.313.149-.849.335-.646.074.074.055.314-.056.536-.13.314-.204.35-.279.11zm-4.568-.277c-.557-.11-.427-.517.186-.535.371-.019.445.055.39.332-.056.185-.112.314-.13.314 0-.018-.205-.074-.446-.11zm137.447-1.44c-.39-.425-.297-.96.186-1.071.854-.203 3.194-.332 2.953-.166-.205.13-.205.221.037.461.39.388.371.628-.075.74-.204.055-.371.036-.371-.056 0-.074-.167-.185-.371-.24-.223-.056-.372 0-.372.147 0 .333-.613.444-.891.148-.316-.314-.595-.314-.595.037 0 .35-.204.35-.501 0zm5.646-.59c-.075-.056 0-.315.148-.555.26-.388.26-.425-.037-.443-.65-.037.706-.314 2.08-.443.929-.093 1.393-.074 1.393.055 0 .111.111.314.26.462.149.13.204.332.149.443-.186.277-.966.48-.966.259 0-.111-.13-.204-.279-.204-.148 0-.278.074-.278.167 0 .221-.725.387-.855.184-.13-.221-.817-.203-.817.019 0 .203-.613.258-.798.055zm-139.193-.26a.275.275 0 01.241-.184c.093 0 .205.074.242.185.037.11-.075.203-.242.203-.167 0-.278-.093-.241-.203zm.817-.258c-.111-.314.167-.535.446-.37.26.167.223.407-.075.518a.297.297 0 01-.371-.148zm143 0c.074-.148.223-.277.371-.277.353 0 .335.296-.037.443-.408.166-.445.148-.334-.166zM7.617 78.424c-.148-.388.056-.628.483-.517.26.074.371 0 .371-.222 0-.369.353-.295.632.148.148.24.13.37-.074.499-.168.11-.298.11-.335 0-.037-.111-.185-.185-.334-.185-.149 0-.204.11-.149.277.075.185 0 .277-.185.277a.474.474 0 01-.409-.277zm144.876-1.219l-.762-.166-.278-1.385c-.167-.739-.242-1.44-.186-1.533.167-.277 1.504-.498 1.504-.24 0 .111-.297.204-.65.204-.65 0-.798.221-.482.72.092.129.241.203.352.129a.199.199 0 01.279.11c.074.185.111.185.111.02a.28.28 0 01.279-.24c.167 0 .316.295.39.793.056.425.149.997.204 1.293.056.277.075.498.037.48-.037-.018-.39-.092-.798-.185zM14.34 76.19c-.093-.259.539-.813.929-.813.13 0 .278-.148.315-.314.075-.277.093-.277.112.037.037.776-1.115 1.718-1.356 1.09zm-6.314-1.46c-.112-.313-.855-.387-.855-.092 0 .333-.538.185-.65-.184-.055-.203-.241-.37-.371-.37-.167 0-.223-.11-.167-.276.074-.185.371-.277.891-.277 1.003 0 1.616.184 1.467.424-.055.111-.018.13.093.056.13-.074.39-.019.595.129.352.24.352.24-.019.554-.446.388-.836.406-.984.037zm-4.662-.59c-.093-.222-.167-.259-.223-.092-.13.35-1.355.295-1.355-.074 0-.185-.112-.259-.279-.185-.148.055-.278 0-.26-.13.019-.424.26-.775.502-.756.111.018.352.037.501.055.149 0 .279.148.279.314s-.093.222-.223.148c-.13-.074-.149-.056-.075.092.093.13.335.203.539.185.594-.074 1.244.184 1.244.498 0 .37-.483.333-.65-.055zm134.922-1.053c-.335-.628-.13-1.034.501-1.015.279 0 .409.055.297.11-.52.204-.241.61.409.61.501 0 .65.074.631.332 0 .185-.055.222-.111.093-.112-.277-.613-.314-.613-.056 0 .093-.13.13-.297.056-.167-.056-.353-.019-.427.11-.093.13-.223.056-.39-.24zm3.38-.461c-.186-.111-.093-.222.353-.37.687-.24 1.151 0 .761.388-.167.166-.223.166-.223 0 0-.258-.501-.295-.594-.037-.037.093-.167.111-.297.019zm2.693-.499c-.168-.166.278-.812.557-.812.427 0 .26-.37-.167-.388-.353-.019-.316-.056.13-.166.315-.074.761-.148 1.021-.148l.464-.019-.464.203-.464.185.501.185c.576.203.52.72-.056.572-.204-.055-.352 0-.352.13 0 .129-.149.166-.39.092-.223-.074-.446-.037-.52.074-.075.11-.186.147-.26.092zm4.122-1.108c-.241-.277-.204-.314.335-.222.334.037.557.019.501-.073-.056-.074 0-.148.112-.148.111 0 .185.148.148.332-.074.425-.761.499-1.096.111zM137.6 69.93c-.242-.738-.149-.793.482-.276.353.314.39.424.205.646-.353.406-.483.35-.687-.37zm3.472-2.677c-.222-.148-.222-.185.056-.296.39-.147.65.037.39.296-.093.092-.278.11-.446 0zm4.643-.628c0-.388.112-.443.799-.517 1.188-.13 2.21.314 1.616.683-.093.056-.186.037-.186-.055 0-.11-.297-.185-.65-.166-.409.018-.65.11-.65.258 0 .13-.204.24-.464.24-.372 0-.465-.092-.465-.443zm-142.498-.24c-.39-1.053-.075-3.25.52-3.749.148-.129.111.056-.112.499-.185.37-.353.812-.334.979 0 .184.037.203.111.037.038-.111.168-.185.242-.13.093.056.334 0 .538-.129.52-.314.613-.148.465.96-.13.924-.149.96-.65.85-.465-.093-.52-.037-.576.498-.056.536-.074.554-.204.185zm138.821-.166c-.204-.222-.186-.277.056-.37.39-.147.538.019.334.351-.13.24-.186.24-.39.019zm-126.026-.554c-.167-.425-.13-.665.056-.554.223.148.39.85.204.85-.074 0-.204-.13-.26-.296zm129.61.11c-.055-.11.093-.184.353-.184s.52.092.576.185c.056.11-.093.184-.353.184s-.52-.074-.576-.184zm3.418-2.215c-.038-.702.018-.96.297-1.22.185-.202.278-.202.334-.018.074.167.111.167.111 0 .019-.332.576-.295.576.037 0 .148-.074.277-.186.277-.092 0-.185.13-.185.277 0 .148-.167.277-.39.277-.205 0-.335.074-.279.148.037.074.019.259-.093.406-.13.222-.167.167-.185-.184zm-6.816-.702c-.279-1.2-.279-1.644-.037-1.791.111-.056.185-.277.185-.462 0-.499.335-.646.725-.295.39.35.445.85.074.72-.13-.056-.241 0-.241.092 0 .11.111.222.241.277.111.037 0 .037-.279 0-.557-.092-.668.203-.371.831.093.166.093.61.037.96l-.111.647-.223-.979zm-126.416.332c-.186-.203-.26-.369-.148-.369.092 0 .334.166.52.37.185.202.26.369.148.369-.093 0-.334-.167-.52-.37zm120.714-.941c-.167-.24-.111-.277.613-.444.427-.092.595-.055.595.13 0 .184.037.184.167-.019.111-.166.297-.203.501-.11.279.11.186.184-.483.387-1.021.314-1.244.314-1.393.056z"/><path d="M148.704 62.377c.075-.074 0-.517-.13-.979-.148-.462-.26-1.016-.26-1.2 0-.314.037-.333.279-.074.148.148.278.37.278.48 0 .11.093.148.205.074.111-.055.167-.35.093-.646-.149-.739.352-.72.594 0 .167.461.148.535-.074.443-.149-.056-.26-.019-.26.092 0 .092.167.222.371.277.26.056.371.259.371.573 0 .554-.482.664-.612.166-.075-.314-.093-.314-.112 0 0 .184-.093.277-.204.221-.093-.055-.186.019-.186.167a.562.562 0 01-.223.406c-.13.074-.185.074-.13 0zm-9.62-1.09c.093-.277.687-.406.687-.166 0 .092-.167.222-.39.277-.241.056-.352.019-.297-.11zm1.245-.037c0-.147.13-.277.278-.277.149 0 .279.074.279.167 0 .092-.13.203-.279.277-.167.055-.278 0-.278-.167zM9.27 60.475c.279-.037.687-.037.929 0 .222.037 0 .074-.52.074-.502 0-.706-.037-.409-.074zm134.996-.554c.093-.48.705-.536.705-.074 0 .277-.111.388-.39.388-.26 0-.352-.093-.315-.314zm3.584-.425c-.074-.11-.204-.148-.297-.092-.093.074-.167.018-.167-.093 0-.147-.167-.184-.502-.11-.427.11-.39.037.39-.702.632-.61 1.003-.85 1.375-.831l.501.018-.557.13c-.52.11-.557.166-.557.997.018.923 0 .979-.186.683zm-13.539-.295a2.094 2.094 0 01-.111-.554c0-.222.074-.222.371-.037.205.129.372.332.372.443 0 .35-.52.443-.632.148z"/><path d="M148.407 58.979c-.056-.166-.018-.332.074-.37.112-.036.205-.184.205-.332 0-.461.52-.277.631.222.149.554.112.61-.408.72-.223.037-.428-.055-.502-.24zM19.8 57.557c0-.314.037-.332.446-.166.334.13.223.443-.186.443-.149 0-.26-.13-.26-.277zm-8.729-.886c0-.37-.482-.425-.612-.074-.056.11-.112.037-.112-.185-.018-.277-.111-.388-.278-.314-.149.056-.428.019-.613-.11-.297-.185-.297-.185.055-.093.223.056.613.019.892-.074.26-.11.483-.129.483-.037 0 .093.185.13.427.074.297-.055.334-.037.148.093-.148.11-.167.203-.055.24.13.055.093.203-.075.424-.222.314-.26.333-.26.056zm128.515-1.884c-.335-.775-.557-1.44-.52-1.496.111-.11.798.98.984 1.57.13.406.371.499.557.203.186-.295.78-.221.91.13.074.166.037.387-.074.498-.13.13-.186.11-.186-.037 0-.13-.13-.222-.297-.222-.149 0-.223.093-.149.204.112.184-.204.517-.501.535-.056 0-.371-.628-.724-1.385zm-133.603.739c-.13-.333.186-1.2.427-1.2.093 0 .13.277.093.609-.019.314-.056.646-.056.739-.018.24-.353.129-.464-.148zm140.158-1.884c-.241-.037-.427-.184-.427-.332 0-.314.966-.092 1.077.24.038.13 0 .203-.092.203a9.516 9.516 0 00-.558-.11zM22.734 51.98c-.464-.11-.427-.61.037-.61.242 0 .372.13.372.37 0 .203-.019.351-.037.351-.037-.018-.205-.055-.372-.11zm112.395-.258c0-.13-.168-.166-.39-.111-.298.074-.353.055-.205-.092.112-.111.149-.296.112-.425-.056-.148.148-.314.52-.443.371-.13.631-.148.668-.037.037.092.353.129.706.074.706-.111.836.11.26.461-.223.13-.371.148-.371.037 0-.092-.13-.184-.279-.184-.149 0-.223.11-.167.24.056.147-.112.332-.39.461-.334.148-.464.148-.464.019zm9.341-.997c-.167-.444.019-.499.279-.093.148.24.148.37.037.37-.112 0-.242-.13-.316-.277zM8.62 50.429c-.409-.221-.427-.572-.056-1.274.205-.388.409-.554.706-.536l.409.037-.409.074c-.557.111-.799.96-.353 1.2.167.093.297.296.297.425 0 .314-.148.333-.594.074zm130.873-.905c-.204-.092-.26-.166-.13-.166.148-.018.464-.185.724-.388.557-.424 1.17-.48 1.17-.11 0 .35-.316.553-.408.276-.038-.129-.242-.166-.465-.092-.26.074-.371.222-.297.406.112.296-.037.314-.594.074zm5.998.056c-.185-.037-.334-.167-.334-.259 0-.258.297-.203.557.11.13.149.205.26.167.26-.037-.019-.222-.056-.39-.111zm-17.215-2.77c-.242-.517-.019-.702.297-.24.148.203.39.369.538.369.149 0 .26.055.26.148 0 .332-.928.11-1.095-.277zM26.727 45c-.316-.35-.297-.462.037-.462.149 0 .279.167.279.37 0 .424-.019.443-.316.092zm114.363-1.828c-.52-.831-.483-.96.13-.388.409.37.539.425.687.222.223-.296.65-.203.65.129 0 .185-.724.665-1.021.665-.037 0-.242-.277-.446-.628zm-113.434.314c-.335-.13-.297-.425.037-.425.148 0 .278.13.278.277 0 .148-.018.277-.037.259a1.19 1.19 0 01-.278-.111zm.315-.591c-.427-.166-.334-.665.149-.72.297-.056.409.037.409.314 0 .443-.186.572-.558.406zm108.216-.443c-.297-.37-.278-.407.204-.72.52-.333 1.895-.462 1.895-.167 0 .093-.409.425-.892.72l-.891.554-.316-.387zm-109.516-.037c0-.074.168-.37.372-.665.39-.517.873-.573.873-.074 0 .148-.075.222-.13.185-.075-.056-.353.092-.632.295-.26.203-.483.314-.483.259zm113.658-.443c0-.093-.223-.444-.483-.758-.279-.314-.446-.627-.372-.683.056-.074.112-.018.112.11 0 .13.074.186.148.13.186-.11.966.868.966 1.182a.186.186 0 01-.186.185c-.093 0-.185-.074-.185-.166zm.872-.61c-.13-.24-.52-.868-.835-1.403-.632-1.053-.743-1.404-.353-1.274.111.036.204.221.204.387-.018.166.074.296.223.296.149 0 .26.074.26.166 0 .092.111.295.241.425.279.295 1.059 1.532 1.059 1.699 0 .277-.576.073-.799-.296zm-2.562-1.81c0-.147-.372-.849-.818-1.57l-.817-1.292.502-.406c.65-.536.891-.536 1.263.055.278.407.278.499.055.628-.185.13-.334.037-.501-.277-.26-.517-.502-.59-.669-.185-.111.296.149 1.127.39 1.22.075.036.353.442.576.886.316.572.39.85.241.997-.148.148-.204.13-.222-.056z"/><path d="M139.14 38.094c-.371-.407-.39-.942-.019-.942.149 0 .279.13.279.277 0 .148.093.277.186.277.223 0 .241.498.018.628-.074.055-.297-.056-.464-.24zm-17.067-.259a2.37 2.37 0 01-.13-.739c.018-.369.037-.369.204-.073.112.184.167.517.13.738-.056.37-.074.37-.204.074zm6.834-.776c-.056-.147-.148-.424-.223-.59a1.98 1.98 0 01-.074-.647c.019-.184-.037-.332-.13-.332-.186 0-.613-.997-.576-1.367 0-.203.39.591.427.868.019.093.168.259.353.388.167.13.316.37.316.536 0 .166.093.35.186.406.13.074.13.221 0 .443-.093.185-.112.388-.056.462.056.055.056.11-.019.11-.055 0-.167-.129-.204-.277zm-6.76-.59c.074-.388-.037-.61-.241-.499-.112.074-.056-.074.148-.332.186-.259.446-.425.539-.37.111.074.334.093.52.074.241-.055.316.074.316.591 0 .462-.075.665-.279.665-.149 0-.279-.093-.279-.185 0-.13-.13-.13-.371 0-.204.11-.371.13-.353.056zm7.28-1.81c-.167-.536-.167-.646.056-.646.241 0 .631.683.631 1.126 0 .443-.52.092-.687-.48zm-7.298.185c0-.296 1.392-2.032 1.634-2.032.353 0 .278.37-.093.443-.409.074-.78.573-.669.887.056.129-.037.24-.185.24-.167 0-.39.148-.483.332-.112.166-.204.24-.204.13zM33.17 33.809c0-.277.483-.498.743-.35.149.11.205.184.093.184-.093 0-.074.074.056.166.167.093.056.148-.316.13-.316-.019-.576-.074-.576-.13zm101.586-1.403c.149-.055.334-.203.409-.314.093-.13.148-.074.148.13 0 .202-.13.313-.408.295-.297 0-.335-.037-.149-.111zm-106.674-.277c.074-.203.018-.332-.112-.332-.111 0-.148-.074-.092-.185.13-.222.65-.24.65-.037 0 .092-.13.314-.279.517-.241.295-.26.295-.167.037zm90.926-.332c-.186-.314-.186-.37.055-.37.149 0 .279.166.279.37 0 .203-.019.369-.056.369-.018 0-.148-.166-.278-.37zm-90.202-.554c.074-.13.037-.296-.111-.388-.205-.13-.186-.166.074-.166.353 0 .427.461.093.664-.13.093-.149.056-.056-.11zm5.887-.37c-.111-.203-.223-.498-.223-.646 0-.148-.167-.277-.352-.277-.353 0-1.133-.886-1.133-1.274 0-.13.223 0 .501.258.279.259.557.462.632.462.167 0 .947 1.477.872 1.662-.037.11-.167.018-.297-.185zm80.21-.48c-.204-.277-.39-.665-.371-.886 0-.351.018-.351.186.074.111.24.315.609.482.775.168.185.26.388.205.443-.056.056-.279-.129-.502-.406zm-86.747-.35c-.316-.37-.204-.462.334-.26.242.093.372.24.316.352-.167.258-.39.221-.65-.093zm6.5-.518c-1.003-.905-1.17-1.182-.78-1.182.316-.018 1.894 1.367 1.894 1.644 0 .314-.501.11-1.114-.462zm5.256-.61c-.334-.332-.297-.442.13-.442.204 0 .371.11.371.258 0 .388-.241.48-.501.185zm74.323-.11c-.149-.406-.242-1.422-.112-1.533.056-.055.112-.258.112-.424.018-.167.037-.554.055-.831.019-.37.168-.573.409-.628.204-.056.371-.185.371-.296 0-.11.038-.147.093-.092.056.055.019.314-.074.572-.149.37-.13.554.056.74.241.24.371.682.315 1.18 0 .112-.241.241-.52.278-.445.055-.52.13-.52.665 0 .628-.055.738-.185.369zm-82.142-.794c-.575-.72-.52-1.016.075-.425.278.259.445.591.408.72-.056.148-.223.037-.483-.295zm-7.93-1.09c-.223-.24-.278-1.034-.074-1.034.39 0 .724.259.724.554 0 .444-.408.757-.65.48zm6.463-.554c-.111-.147-.167-.313-.111-.369.13-.13.613.24.613.462 0 .24-.242.184-.502-.093zm95.086-.055c-.13-.055-.242-.295-.242-.535 0-.277-.111-.444-.278-.444-.334 0-.334.074-.019-.812.242-.702.242-.702.372-.222.074.296.315.573.594.665.446.185.446.185.149.776-.372.738-.298.664-.576.572zM29.03 24.558c-.241-.333-.501-.757-.557-.924-.074-.184-.223-.332-.353-.332-.371 0-1.337-1.293-1.133-1.496.112-.11.26 0 .409.277.167.296.353.407.594.351.186-.055.353-.166.353-.258 0-.296.464-.167.687.184.186.277.186.388 0 .443-.13.056-.093.111.093.111.204.019.278.111.223.277-.056.148 0 .61.111 1.034.279.998.149 1.09-.427.333zm85.689.388c-.019-.148.111-.444.278-.647.279-.35.279-.35.112.019a13.49 13.49 0 00-.279.646c-.093.24-.111.24-.111-.018zm-84.055-.167c-.055-.092.019-.184.167-.184.149 0 .335.092.39.184.056.111-.018.185-.167.185-.148 0-.334-.074-.39-.185zM45.8 23.671c0-.092.26-.184.557-.184.316 0 .557.092.557.184 0 .111-.241.185-.557.185-.297 0-.557-.074-.557-.185zm2.34-.277c-.111-.314.167-.535.446-.369.26.166.223.406-.075.517a.297.297 0 01-.371-.148zm.873-.369c-.26-.277-.13-.462.353-.462.39 0 .445.24.111.517-.167.13-.316.111-.464-.055zm-10.92-1.2c-.186-.203-.26-.37-.167-.37.223.019.817.462.817.628 0 .222-.316.111-.65-.258zm86.561-1.496c-.278-.222-.557-.35-.613-.296-.055.056-.297.037-.538-.055-.353-.13-.446-.11-.446.092 0 .407-.427.333-.706-.092-.13-.203-.297-.37-.39-.37-.092 0-.13.167-.074.37.074.277 0 .37-.26.37-.52 0-.576-.111-.446-.795.093-.461.242-.609.669-.683 1.059-.203 2.916.425 3.789 1.256.222.221.222.277 0 .425-.372.221-.428.221-.985-.222zm-.557-.757c.074-.111.056-.148-.074-.074-.093.055-.223 0-.279-.11-.037-.13-.148-.167-.241-.093-.093.074-.037.221.111.314.353.221.316.221.483-.037zm-82.996.535c-.167-.277-.445-.72-.612-.978-.149-.259-.242-.573-.186-.684.037-.129.148-.037.204.204.074.221.204.406.279.406.093 0 .223.184.297.424.074.222.204.462.316.518.092.073.13.24.092.369-.055.166-.185.074-.39-.259zm4.978-2.16c-.075-.111-.056-.296.055-.406.112-.111.223-.111.316.036.074.111.056.296-.056.407-.111.11-.223.11-.315-.037zm69.03-.222c-.26-.258-.298-.59-.056-.425.093.056.223.019.297-.092.223-.35.409-.185.316.277-.093.517-.223.573-.557.24zm-53.765-.461c-.241-.222-.13-.813.167-.924.149-.055.242-.203.186-.332-.093-.259.334-.517.52-.333.204.204.112.628-.167.905-.149.148-.223.388-.167.536.111.277-.297.388-.539.148zm35.992-.037c-.056-.111-.186-.167-.26-.111-.186.11-.39-.813-.39-1.736 0-.37-.075-.757-.186-.868-.111-.11-.074-.332.111-.61.242-.332.335-.369.465-.184.13.203.167.185.167-.055 0-.185.111-.333.241-.333.167 0 .353.406.483 1.071.372 1.662.372 1.7.093 1.7-.149 0-.26.091-.26.184 0 .11.111.184.26.184.13 0 .297.167.353.37.056.24 0 .37-.149.37-.13 0-.371.055-.52.11-.148.055-.334 0-.408-.092zm-6.407-.591c0-.111-.168-.167-.372-.111-.241.055-.371 0-.371-.166 0-.148.185-.259.464-.259.334 0 .464.092.464.37 0 .203-.037.369-.093.369-.055 0-.092-.093-.092-.203zm-37.05-.702c-.056-.11-.223-.517-.372-.923-.241-.72-.241-.739.334-1.2.372-.315.465-.48.279-.48-.297 0-.594-.666-.353-.813.26-.167.502.166.743.978.26.905.019 1.33-.483.831-.408-.406-.613-.129-.334.444.316.646.52 1.33.39 1.33-.056 0-.13-.075-.204-.167zm-4.718-.739c-.352-.48-.352-.757 0-.757.075 0 .298.296.52.647.483.812.056.923-.52.11zm41.47-.868c.038-.757.13-1.44.186-1.495.056-.074.112.037.112.24.018.332.018.332.315-.019.279-.37.279-.37.186.056-.056.277 0 .461.167.535.372.13.316.37-.111.48-.409.111-.52.776-.13.924.13.055.093.11-.093.11-.39.019-.446.314-.093.444.111.055.037.11-.204.11-.39.019-.409-.018-.335-1.385zm-50.588.85c0-.203.13-.37.278-.37.149 0 .279.167.279.37 0 .203-.13.37-.279.37-.148 0-.278-.167-.278-.37zm28.73 0c-.074-.314-.037-.333.26-.166.408.203.464.535.093.535-.13 0-.297-.166-.353-.37zm17.253-.776c.055-.184.018-.332-.093-.332-.112 0-.149-.13-.093-.277.111-.296.817-.388.817-.11 0 .091-.167.35-.371.59-.26.314-.335.35-.26.13zm-45.983-.332c0-.203.13-.425.278-.499.39-.147.52.019.372.48-.149.499-.65.499-.65.019zm28.637-.13c-.074-.184-.13-1.2-.13-2.27v-1.94l.557-.037c.316-.018.446 0 .334.056-.334.147-.315 1.182.019 1.182.353 0 .409.258.464 1.625.037.904-.018 1.145-.223 1.145-.148 0-.315.129-.39.277-.13.369-.464.35-.631-.037z"/><path d="M52.969 13.478c-.186-.702-.112-.831.167-.332.315.535.334.738.111.738-.093 0-.204-.184-.278-.406zm25.61-1.44c-.372-1.053-.52-4.248-.242-5.448.074-.295.186-.794.242-1.108.167-.85.445-.997.575-.314.075.35.242.591.409.591.223 0 .26.222.13 1.44-.074.776-.13 1.607-.112 1.847 0 .24-.092.406-.26.406-.148 0-.278.093-.278.185 0 .11.111.185.26.185.13 0 .297.203.334.461.074.314.019.462-.148.462-.39 0-.316.37.074.388.186 0 .223.055.093.11-.335.13-.297.425.037.425.148 0 .278.074.278.166 0 .24-.742.167-.761-.073-.019-.093-.093.147-.149.554l-.111.738-.371-1.015zm-36.01-.702c-.056-.092.018-.277.167-.406.148-.13.223-.296.167-.388-.056-.093-.037-.185.056-.185.408-.074 2.897-.11 2.711-.037-.167.056-.186.185-.056.406.242.444.075.573-.575.444-.316-.056-.539-.019-.539.092 0 .11-.26.13-.78.018-.539-.129-.799-.129-.891.037-.093.13-.186.148-.26.019zm9.508-.794c-.241-.702-.241-.887-.056-.72.223.184.558 1.44.409 1.588-.037.037-.204-.351-.353-.868zm7.02.461c-.148-.406.019-.572.297-.295.167.166.167.277.019.425-.13.129-.223.092-.316-.13zm28.266-1.348c-.464-.443-.502-4.08-.056-4.08.149 0 .279.166.279.369 0 .24.13.369.371.369.204 0 .372.13.372.277 0 .148-.075.277-.186.277-.093 0-.186.166-.186.37 0 .202.112.369.26.369.223 0 .242.203.167.978-.055.517-.093 1.071-.111 1.2-.019.315-.539.26-.91-.129zM51.446 8.64c-.056-.259-.075-.591-.037-.757.074-.351.39-.407.501-.074.037.129-.019.166-.149.092-.26-.166-.278.351-.018.831.13.24.13.35.018.35-.111 0-.241-.202-.315-.442zm41.303.037c-.372-.462-.428-.702-.13-.702.092 0 .148-.074.074-.166-.204-.351.297-1.828.668-1.92.279-.075.353 0 .353.442 0 .296.093.536.186.536.111 0 .186.092.186.185 0 .11-.149.184-.316.184-.279 0-.26.037.056.277.334.259.334.259-.056.148-.483-.11-.557.074-.167.388.186.148.223.332.093.628-.205.517-.539.517-.947 0zM71.076 8.51c.204-.406.724-.461.724-.092 0 .13-.204.296-.464.333-.39.073-.427.055-.26-.24zm1.337-.24c-.26-.11-.427-.369-.427-.609 0-.222-.149-.443-.316-.48-.427-.13 1.3-.11 2.229 0 .65.074.687.13.687.72v.628l-.873-.019c-.502-.018-1.077-.11-1.3-.24zm-20.299-.184c0-.148.13-.296.279-.37.186-.073.278.019.278.259 0 .203-.13.37-.278.37-.149 0-.279-.112-.279-.26zm48.026-.647c-.056-.073.019-.313.167-.498.26-.333.26-.333.279.166 0 .48-.242.665-.446.332zM53.971 6.221c0-.148.13-.277.279-.277.149 0 .279.074.279.166 0 .092-.13.203-.279.277-.167.055-.279 0-.279-.166zm14.04-.019c.038-.203-.148-2.253-.408-4.284-.093-.665-.056-.776.241-.776.26 0 .353.13.335.517 0 .296.092.48.241.462.111-.037.223.074.223.222 0 .147.074.277.167.277.093 0 .204.166.26.369.056.24 0 .37-.167.37-.149 0-.26.129-.26.276 0 .148.13.277.278.277.205 0 .279.222.279.831 0 .591-.074.831-.26.831-.13 0-.297.167-.353.388-.056.222-.186.333-.278.277-.112-.055-.223-.055-.279.019-.037.092-.056.055-.019-.056zm32.575-.074c0-.092.13-.184.278-.184.149 0 .279.092.279.184 0 .111-.13.185-.279.185-.148 0-.278-.074-.278-.185zm-13-1.292c0-.093.13-.185.278-.185.149 0 .279.092.279.185 0 .11-.13.184-.279.184-.148 0-.278-.074-.278-.184zM57.314 3.728c-.223-.148-.167-.185.242-.185.278 0 .501.092.501.185 0 .24-.371.24-.743 0zM86.49 2.694c-.65-.887-.669-1.164-.056-.831.335.184 1.152 1.274 1.152 1.57 0 .369-.576 0-1.096-.74zM69.2 2.417c0-.167.13-.407.279-.536.185-.166.278-.166.278-.018 0 .11.167.203.372.203.557 0 .241.498-.39.59-.409.075-.539.02-.539-.24zm2.154-.074c.112-.296 1.003-.388 1.003-.111 0 .092-.186.203-.408.277-.632.166-.706.13-.595-.166z"/></g><g fill="#174185"><path d="M95.497 158.974c-.483-.387-.557-.61-.78-2.271-.687-5.134 0-7.94 2.507-10.415 1.523-1.496 2.99-2.475 6.797-4.487 1.635-.868 4.123-2.18 5.535-2.918 8.803-4.654 14.114-9.4 17.29-15.475 3.38-6.5 4.29-11.8 4.16-24.486l-.056-6.279-.501-.96c-.279-.517-.706-1.09-.929-1.237-.631-.443-1.523-.37-2.173.166-1.021.868-1.448 2.567-1.894 7.571-.316 3.601-1.226 6.648-3.157 10.526-1.17 2.364-2.285 3.822-4.662 6.112-5.608 5.374-11.793 8.366-17.327 8.384-1.04 0-1.764-.37-1.764-.905 0-.203 1.021-1.625 2.284-3.176 3.622-4.506 5.163-6.777 6.017-8.827.576-1.403.557-2.05-.074-2.66-1.133-1.07-1.95-.96-4.197.592-4.569 3.14-15.823 14.053-18.274 17.69-2.378 3.565-3.343 7.406-3.956 15.752a57.72 57.72 0 01-.557 4.894c-.223 1.219-.465 3.638-.557 5.355-.242 4.672-.446 5.078-2.526 5.078-.966 0-1.43-.073-1.634-.277-.65-.646-1.078-3.287-1.783-10.876-.799-8.44-1.597-14.663-2.136-16.601-.891-3.103-1.449-3.878-6.667-9.16-5.386-5.41-11.347-10.803-13.91-12.538-.984-.684-2.637-1.515-2.99-1.515-.13 0-.557.333-.947.757-.817.905-.817.998.464 3.583 1.096 2.216 2.656 4.598 5.497 8.328 2.897 3.786 2.86 4.321-.241 3.952-3.919-.48-7.949-2.013-11.83-4.506-5.423-3.49-8.599-7.423-11.18-13.85-1.115-2.788-1.319-3.619-1.746-7.441-.371-3.324-.706-5.005-1.207-5.965-.854-1.644-2.786-1.422-3.64.443-.316.702-.353 1.348-.353 8.328 0 8.015.167 10.637.947 14.367 1.449 6.999 4.922 13.204 9.75 17.414 3.232 2.807 5.943 4.469 13.167 8.051 6.277 3.121 7.949 4.1 9.546 5.614 2.433 2.29 2.99 3.823 2.99 8.2-.019 3.157-.186 4.302-.78 4.948-1.021 1.053-1.244.425-1.541-4.358-.26-4.284-.428-5.004-1.393-6.39-1.189-1.754-3.046-2.88-10.307-6.278-7.503-3.508-9.75-4.875-12.963-7.848-5.312-4.967-8.896-11.412-10.586-19.039-.947-4.229-1.114-6.205-1.207-14.164-.074-8.346-.074-8.439 1.263-10.636.947-1.551 1.838-2.031 3.51-1.902 1.597.148 3.008.794 3.528 1.643.595.96.725 1.515 1.133 4.93.632 5.3 1.356 8.237 2.879 11.672.91 2.03 1.504 2.936 3.231 5.022 3.696 4.432 10.827 8.864 13.799 8.569l.575-.056-2.191-3.231c-1.207-1.773-2.507-3.897-2.916-4.71-1.318-2.732-1.133-5.022.502-6.665 1.133-1.127 1.968-1.33 3.547-.905 2.098.572 3.566 1.717 9.527 7.534 3.009 2.936 5.943 5.65 6.5 6.038 1.616 1.09 3.974 3.546 5.386 5.614 2.953 4.321 3.658 6.611 4.29 14.053.501 6.02.65 7.516 1.133 11.634.427 3.675 1.281 5.817 1.281 3.213 0-.61.074-1.662.167-2.345.112-.683.279-1.94.39-2.807.112-.868.279-2.105.372-2.77.092-.665.26-2.031.371-3.047.111-1.016.297-2.585.39-3.509.371-3.268.576-4.635 1.021-6.426 1.226-4.893 2.378-6.666 7.8-11.948 1.932-1.883 5.256-5.133 7.373-7.238 5.757-5.707 7.782-7.184 10.159-7.442 1.43-.167 2.433.369 3.436 1.81.631.941.742 1.218.798 2.308.13 2.271-.687 4.044-3.751 8.143-2.117 2.826-2.582 3.527-2.47 3.638.148.166 3.064-.461 4.271-.923 2.674-.997 5.497-2.992 8.394-5.91 2.118-2.123 3.993-4.579 4.94-6.444 1.449-2.825 2.545-7.147 3.12-12.41.502-4.431 1.282-5.798 3.64-6.389 1.189-.295 1.69-.148 3.51 1.071 2.34 1.551 2.378 1.718 2.489 7.811.093 5.503-.186 11.32-.706 14.644-1.318 8.55-4.42 15.198-9.453 20.313-3.751 3.841-7.837 6.5-15.897 10.378-6.5 3.121-8.673 4.69-9.805 7.091-.502 1.053-.576 1.404-.65 3.435-.056 1.311.018 2.918.13 3.786l.222 1.514-.501.536c-.279.295-.557.535-.613.535-.056 0-.353-.203-.65-.425z"/><path d="M76.387 112.07c-.148-.314-.836-2.05-1.523-3.823-1.578-4.118-2.358-5.577-4.55-8.457-3.733-4.93-5.274-6.187-10.678-8.643-2.619-1.181-4.55-2.326-4.55-2.696 0-.221 1.411-.83 4.828-2.05 1.43-.498 1.802-.553 3.9-.572 1.913-.018 2.563.056 3.659.406 2.934.905 5.701 2.475 7.317 4.118l.91.942 2.414-1.773c3.993-2.954 5.553-3.564 9.565-3.748 2.785-.13 3.9.018 7.205.978 2.675.776 3.845 1.256 3.845 1.589-.019.129-1.598.997-3.548 1.902-5.292 2.493-6.017 2.936-8.765 5.613-3.38 3.287-5.423 6.131-7.559 10.582-1.133 2.382-1.857 4.505-1.857 5.466 0 .794-.279.886-.613.166z"/></g><path d="M82.776 190.81l-1.579-.11-.408-1.644c-.223-.886-.483-1.699-.576-1.773-.204-.203-6.667-.314-6.872-.129-.074.092-.352.868-.631 1.754l-.464 1.607-3.065-.074c-1.671-.037-3.082-.092-3.12-.13-.037-.036 1.709-4.911 3.9-10.82l3.975-10.766 1.393-.056c.761-.018 2.302.019 3.417.093l2.005.147 3.418 10.803c1.875 5.946 3.398 10.914 3.417 11.043 0 .24-1.69.258-4.81.055zm-3.733-8.697c0-.37-1.727-7.11-1.857-7.258-.093-.11-1.635 4.488-2.359 7.128-.093.277.093.314 2.062.314 1.337 0 2.154-.074 2.154-.184zm20.67 5.318c-.112-.13-.966-2.198-1.913-4.58-.947-2.382-2.711-6.87-3.937-9.935-1.226-3.083-2.192-5.632-2.154-5.669.13-.129 5.255-2.123 5.46-2.123.13 0 .835 1.514 1.56 3.379.742 1.847 1.392 3.416 1.467 3.49.148.148 6.035-2.179 6.11-2.437.037-.111-.52-1.68-1.263-3.51-.724-1.809-1.282-3.378-1.226-3.49.149-.22 5.46-2.326 5.59-2.197.056.037 1.894 4.598 4.086 10.138 3.101 7.812 3.937 10.083 3.751 10.23-.445.407-5.33 2.198-5.497 2.014-.093-.093-.836-1.903-1.671-4.045-.855-2.123-1.56-3.896-1.597-3.933-.056-.074-5.999 2.271-6.148 2.42-.037.036.632 1.883 1.505 4.099.891 2.216 1.523 4.08 1.448 4.173-.074.074-1.225.573-2.563 1.09-1.318.517-2.507.978-2.618 1.034-.112.055-.279-.019-.39-.148zm-51.35-2.715c-2.247-.72-5.479-2.659-6.556-3.933-.761-.886-1.337-2.271-1.578-3.693-.205-1.367.074-3.25.742-4.93.298-.758 5.312-10.97 6.018-12.262l.278-.499 2.712 1.33c1.485.738 2.692 1.403 2.692 1.477 0 .092-1.374 2.9-3.064 6.242-1.708 3.397-3.157 6.518-3.268 7.035-.168.776-.149 1.071.111 1.736.576 1.514 2.247 2.475 3.807 2.216 1.449-.24 1.82-.794 5.349-7.774l3.287-6.482 2.693 1.33c1.485.72 2.674 1.403 2.655 1.495-.074.388-5.738 11.708-6.314 12.631-.817 1.275-2.321 2.826-3.306 3.398-1.764 1.034-4.271 1.311-6.258.683zm78.668-14.662c-1.021-.942-4.624-4.229-8.022-7.294-3.399-3.084-6.166-5.67-6.166-5.762 0-.147.483-.683 6.481-7.201 2.303-2.493 4.29-4.599 4.42-4.672.167-.111.762.313 1.82 1.292.873.776 1.579 1.514 1.579 1.625 0 .13-1.504 1.847-3.362 3.86-1.838 1.994-3.324 3.711-3.287 3.785.037.074.576.628 1.226 1.22.91.83 1.207 1.015 1.411.849.13-.111 1.579-1.662 3.195-3.435 1.615-1.773 3.027-3.232 3.138-3.232.093.019.892.665 1.746 1.459l1.56 1.44-3.176 3.435c-1.764 1.884-3.194 3.509-3.194 3.583 0 .166 2.879 2.825 3.064 2.825.13 0 1.3-1.219 4.81-5.078 1.207-1.311 2.285-2.42 2.415-2.438.111-.037.984.683 1.95 1.57l1.745 1.625-5.645 6.13c-3.083 3.38-5.665 6.132-5.739 6.132-.056-.019-.929-.776-1.969-1.718zM24.294 166.99c-1.931-.665-2.915-1.496-7.725-6.556l-2.582-2.714.446-.444c4.178-4.08 15.526-14.625 15.656-14.551.538.24 7.298 7.682 7.911 8.698 1.671 2.733 1.337 5.872-.947 9.214-1.337 1.958-4.439 4.765-6.277 5.688-2.025 1.016-4.68 1.293-6.482.665zm3.269-5.946c1.374-.684 4.197-3.324 4.977-4.69 1.003-1.718.594-3.417-1.207-5.153l-.743-.72-1.449 1.366c-.798.757-2.73 2.567-4.29 4.044-1.541 1.46-2.822 2.752-2.822 2.881 0 .314 2.135 2.272 2.822 2.567.91.388 1.449.332 2.712-.295zm110.816-17.119c-5.312-2.308-9.75-4.247-9.862-4.32-.148-.093.464-1.681 1.894-4.95 3.176-7.276 3.789-8.31 5.498-9.16 1.244-.627 2.395-.738 3.844-.368 3.287.83 5.218 3.083 5.218 6.056v1.145l.52-.498c1.04-.997 3.436-1.404 8.283-1.422 2.285 0 2.545.037 2.452.295-.056.167-.669 1.57-1.356 3.121l-1.226 2.844-1.318.092c-.725.056-2.526.148-4.012.203-3.491.13-4.327.333-4.921 1.108-.26.314-.464.702-.464.85 0 .166 1.467.886 3.918 1.92 2.154.924 3.956 1.755 4.012 1.884.037.11-.428 1.385-1.078 2.807-.817 1.828-1.244 2.604-1.448 2.585-.167-.018-4.643-1.902-9.954-4.192zm1.207-7.903c.724-1.736.91-3.195.501-3.823-.334-.517-1.374-1.052-2.043-1.052-.78 0-1.448.738-2.303 2.511-.427.923-.798 1.773-.798 1.865 0 .148 3.491 1.828 3.937 1.884.056.018.371-.61.706-1.385zM7.673 144.054c-2.21-.518-3.937-2.18-5.497-5.282-2.155-4.284-1.913-7.239.835-9.935.91-.886 1.858-1.532 2.006-1.366.037.037.706 1.145 1.486 2.437l1.411 2.382-.668.573c-1.449 1.293-1.82 2.788-1.022 4.321.557 1.108 1.189 1.533 2.247 1.533.799 0 .966-.074 1.486-.665.576-.665.594-.72.502-2.087-.038-.775-.223-2.197-.409-3.157-.817-4.47.186-7.295 3.139-8.698 2.117-1.016 4.178-.85 6.165.498 2.34 1.57 4.569 5.91 4.569 8.864 0 1.755-.594 3.01-2.099 4.395-.613.573-1.188 1.034-1.263 1.034-.092 0-.798-1.09-1.597-2.419l-1.43-2.419.706-.72c1.17-1.2 1.077-2.936-.241-4.155-.595-.554-1.338-.572-1.988-.055-.631.48-.631 1.015 0 4.136.91 4.506.65 6.777-.965 8.569-1.802 1.994-4.662 2.843-7.373 2.216z" fill="#004777"/></g></svg>