<svg version="1.2" xmlns="http://www.w3.org/2000/svg" viewBox="0 0 1594 461" width="1594" height="461">
	<title>dbs_logo-svg</title>
	<style>
		.s0 { fill: #ffffff } 
		.s1 { fill: #ff3333 } 
		.s2 { fill: #000000 } 
	</style>
	<g id="Page-1">
		<g id="Group-3-Copy">
			<g id="logo/og/DBS-blk">
				<g id="Layer">
					<g id="Logomark">
						<path id="Fill-1" class="s0" d="m76.6 77.2h303.2v306.4h-303.2z"/>
						<path id="Layer" fill-rule="evenodd" class="s1" d="m444.8 335.1c6.4 13.8 20.5 34-0.3 57.5-17 17.1-36.2 14.2-49.2 6.7 7.4 13.1 10.2 32.6-6.7 49.6-23.2 21.1-43.2 6.8-56.8 0.3-47-22.4-73.6-23.5-103.5-23.5-30.1 0-56.7 1.1-103.7 23.5-13.6 6.5-33.7 20.8-56.8-0.3-17-17-14.1-36.5-6.6-49.6-13 7.5-32.3 10.3-49.3-6.7-20.8-23.5-6.6-43.7-0.3-57.5 22.3-47.4 23.5-74.5 23.5-104.7 0-30.2-1.2-57.2-23.5-104.7-6.3-13.8-20.5-33.9 0.3-57.4 17-17.1 36.3-14.3 49.3-6.7-7.5-13.1-10.4-32.7 6.6-49.8 23.1-21 43.2-6.7 56.8-0.2 47 22.4 73.6 23.6 103.7 23.6 29.9 0 56.5-1.2 103.5-23.6 13.6-6.5 33.6-20.8 56.8 0.2 16.9 17.1 14.2 36.7 6.7 49.8 13-7.6 32.2-10.4 49.2 6.7 20.8 23.5 6.7 43.6 0.3 57.4-22.2 47.5-23.4 74.5-23.4 104.6v0.1c0 30.2 1.2 57.2 23.4 104.7zm-74.4 38.5l-92.5-111.1c0 0-14.4-15-14.4-32.1 0-17 14.4-32 14.4-32l92.5-111.2-0.5-0.5-110 93.4c0 0-14.9 14.7-31.6 14.7-16.9 0-31.8-14.7-31.8-14.7l-110-93.4-0.4 0.4 92.3 111.3c0 0 14.5 15 14.5 32 0 17.1-14.5 32.1-14.5 32.1l-92.3 111.2 0.4 0.3 110-93.3c0 0 14.9-14.7 31.8-14.7 16.7 0 31.6 14.7 31.6 14.7l110 93.3z"/>
					</g>
					<path id="DBS" fill-rule="evenodd" class="s2" d="m741.9 26c84.3-0.3 195.1 58 194.7 203.8-0.3 126.8-90.9 204.9-174.6 204.9l-212.5 0.1 0.2-4.6c12-2.1 25.4-9.7 27.7-17.7 7-30.5 5.4-310.1 1.1-356.1-1.3-14.4-12.6-23.7-26.2-26l-0.4-4.4c0 0 171.2 0.1 190 0zm38.5 382.3c37.8-13.7 84.5-78.7 76.7-181.1-7.4-99.1-44.8-177-144.4-184.3 0 0-18.8-1.4-34.6-1.4-17-0.1-20.6-0.7-21.9 17.6-2.1 34.2-2.7 300.7-0.6 339.1 0.3 5.3 0.8 18 22.6 20.2 39.7 3.9 72.5 0.8 102.2-10.1zm401.4-191.8c99.1 24.8 105.1 97.1 103.7 117.4-4.5 90.5-80.5 100.9-111.1 100.9h-233.7l0.2-4.6c17-2.4 29.8-11.8 29.8-41.9l1.3-311.7c0.4-33.8-8.4-44.1-26.9-46.3l-0.4-4.3h176.8c32.4 0 130.1-6.5 138.5 84.3 6.6 72.6-72.4 103-78.2 106.2zm26.1 118c1.7-87.8-62.1-111.1-128-114.7-1.4-0.1-0.9-3.4 0.1-3.6 21.5-0.9 106.7-10.8 103.3-93.1-3.5-80.2-63.7-82-85.7-82.3-18-0.3-21.9-0.3-29.5 0.1-12.7 0.6-15.9 1.5-15.9 15.5 0 1.8-2.8 144.5-4.4 244.8-0.8 54.5-1 96.4-1 96.4 0.3 10-1 20.2 23.4 21.3 25.1 1.3 57.5 2.3 80.2-2.6 20.8-4.4 56.1-19.8 57.5-81.8zm355.1-307.2l4-0.1 1.4 72.9-4.4-0.1c-7.1-29.6-35.3-57.6-91.9-60.5-66.8-3.5-95.7 36.7-96.1 74.8-0.4 50.5 38.7 61 96.6 75.3 27.2 6.7 128.3 20 120.2 134.7-5.6 80.1-74.1 118.2-171 115.2 0 0-40.3-1.3-96.6-17.1-10.4-3-13.2 0.6-17.3 8.3l-4.6 0.3 0.1-78.6 4.5 0.3c2.2 7.9 2.8 22.7 17.1 35.3 10.4 9.2 34.8 32.1 88.4 32.7 52.5 0.7 96.1-21.7 102-81.3 1.6-16.1-0.1-52.8-35.6-69.5-27.7-13.1-104.7-21.7-142-54.8 0 0-44.3-31.1-37.3-89.3 9.8-82.2 77.7-102.8 138.7-104 0 0 54.6-0.6 98.1 10.8 0 0 10.6 2.9 19.4-0.5 3.6-1.2 5.3-3.5 6.3-4.8z"/>
				</g>
			</g>
		</g>
	</g>
</svg>