<svg version="1.2" xmlns="http://www.w3.org/2000/svg" viewBox="0 0 1548 466" width="1548" height="466"><style>.a{fill:#0a509f}.b{fill:#f9ed1f}.c{fill:#2aabe2}.d{fill:#283b89}.e{fill:#fff}.f{fill:#f0b542}</style><path fill-rule="evenodd" class="a" d="m1547.8 0.8v309.8h-1547.7v-309.8z"/><path fill-rule="evenodd" class="b" d="m1547.8 310.6v154.9h-1547.7v-154.9z"/><path fill-rule="evenodd" class="c" d="m218.1 416.8l-11.4-28.2c-1.4-3.6-2.9-7-5.3-10.2-2.4-3.3-7.3-7.1-11.4-9l-12.8 16.6c9.1-0.1 9.8 4.8 11.9 10l11.4 28zm-39.8-66.4l-18.8 24c-2.4 3-4.5 6-6.2 9.7-1.6 3.7-2.5 9.8-2 14.4l20.7 2.8c-4.6-7.8-0.7-11 2.7-15.4l18.6-23.9zm-37.7 67.7l30.2 4.3c3.8 0.5 7.5 0.9 11.5 0.4 4-0.4 9.7-2.7 13.5-5.4l-8-19.3c-4.5 7.9-9.1 6-14.6 5.3l-30-4.1z"/><path fill-rule="evenodd" class="d" d="m279.6 371.6h-11.3v11.8h-19.5q-0.7 0-1.1 0.5-0.5 0.6-0.5 1.4 0 1 0.7 1.5 0.7 0.6 1.9 0.6 0.7 0 2.2-0.2 1.4-0.1 2.9-0.3 1.5-0.3 2.8-0.4c0.9-0.2 1.5-0.2 1.8-0.2q3 0 5.4 0.8 2.5 0.9 4.2 2.4 1.8 1.4 2.8 3.5 0.9 2.1 0.9 4.6 0 2.7-1.1 5.1-1 2.4-2.9 4.3-2 1.9-4.7 3.1-2.7 1.2-6 1.6l6.3 9.1-8 4.9-9.2-14.7q-2.2-0.6-4.7-2.2-2.5-1.6-5-4.9l6.8-6.2c0.7 1.1 1.5 2 2.2 2.7q1.2 1.1 2.4 1.7 2.5 1.3 4.6 1.2c6.8 0 10.1-1.8 10.1-5.5q0-1.2-0.9-2-1.1-0.9-2.5-0.9c-0.3 0-0.7 0-1.1 0.1-0.5 0-1 0.1-1.6 0.2q-0.9 0.1-1.8 0.3-1 0.1-1.8 0.2-0.9 0.1-1.6 0.2-0.7 0.1-1.2 0.1-2.9 0-5.3-0.7-2.3-0.8-4-2.2-1.7-1.4-2.6-3.4-0.8-2-0.8-4.4 0-2.3 0.7-4.2 0.8-1.9 2.1-3.3 1.4-1.4 3.3-2.1c1.2-0.5 2.7-0.7 4.2-0.7h10.4v-3.4h-22.7v-8.5h43.2z"/><path fill-rule="evenodd" class="d" d="m333.8 371.6h-11.3v39.4h-9.2v-17.7l-12.1 6.7-4.6-7.4 4.9-2.8q-1-1.3-2.3-1.9-1.3-0.7-3-0.7c-3.4 0-5.1 1.7-5.1 5q0 5.3 10.5 16.8l-8.2 3.6q-2.8-3.1-4.8-5.4-2-2.3-3.1-4-1.9-2.8-3-5.6c-0.7-1.9-1-3.6-1-5.1 0-4.5 1.4-8.1 4.3-10.7q4-3.7 10.4-3.7 1.9 0 3.8 0.6 1.9 0.6 3.6 1.5 1.6 1 3 2.4c0.9 0.9 1.7 1.9 2.2 2.9l4.5-2.4v-11.5h-36.2v-8.5h56.7z"/><path fill-rule="evenodd" class="d" d="m353.2 371.6h-8.5v39.4h-9.2v-39.4h-4.2v-8.5h21.9z"/><path fill-rule="evenodd" class="d" d="m393.9 371.6h-12.4v11.8h-16.8c-0.7 0-1.3 0.3-1.9 0.8-0.5 0.5-0.8 1.1-0.8 1.8 0 0.9 0.3 1.5 0.7 2.1q1.7-0.8 3.7-1.3 2.1-0.5 4.4-0.5 3.7 0 6.4 1.1 2.7 1 4.5 2.7c1.2 1.2 2 2.6 2.6 4.1q0.9 2.2 0.9 4.6 0 1.8-0.7 3.5-0.7 1.7-1.7 3.2-1 1.5-2 2.6-1.1 1.1-1.8 1.8l-6.4-6 1.7-1.7q0.6-0.6 1.2-1.4 0.7-0.7 0.7-1.6 0-0.6-0.2-1.3-0.2-0.7-0.8-1.3-0.6-0.6-1.7-1-1.1-0.4-2.9-0.4-1.5 0-2.9 0.4-1.4 0.4-2.5 1.3-1 0.8-1.7 2-0.6 1.2-0.6 2.7-0.1 1.8 0.6 3.2 0.6 1.5 1.7 2.7 1 1.3 2.4 2.3 1.5 1 3 1.9 1.6 0.9 3.2 1.6 1.6 0.8 3.2 1.5l-4.2 7.3q-3.2-1-6.6-2.6-3.3-1.7-6-4.3-2.8-2.5-4.6-5.9-1.7-3.4-1.7-7.8 0-1.6 0.6-3.6 0.5-2.1 1.9-4.1-1.6-1.6-2.4-3.6c-0.7-1.3-1-2.7-1-4.2q0-2.2 0.8-4.2 0.8-2 2.3-3.5 1.4-1.5 3.3-2.4 2-0.9 4.3-0.9h8.6v-3.4h-21.7v-8.5h43.3z"/><path fill-rule="evenodd" class="d" d="m413.2 371.6h-8.5v39.4h-9.2v-39.4h-4.2v-8.5h21.9z"/><path fill-rule="evenodd" class="d" d="m457.7 371.6h-10.6v39.4h-9.2v-9.1q-2.3 1.4-4.8 2.1-2.4 0.7-4.9 0.7-3.1 0-5.7-1.2-2.8-1.2-4.8-3.2-2-2-3.2-4.6-1.2-2.7-1.2-5.8 0-3.1 1.3-5.7c0.8-1.8 2-3.3 3.5-4.5q2.2-1.9 5.2-2.9 3-1.1 6.4-1.1 2.6 0 4.6 0.5 2.1 0.5 3.6 1.1v-5.6l-27.2-0.1v-8.5h47zm-19.8 14.4c-0.5-0.2-1.1-0.5-1.8-0.8q-1-0.4-2-0.7-1.1-0.3-2.1-0.5-1.1-0.2-2-0.2c-0.2 0-1.1 0-1.3 0 1.3 1.5 2.6 3 3.9 4.4q1.9 2.1 4 4.6l1.3-1.1zm-15.6 2.1q-0.2 0.5-0.3 1-0.1 0.6-0.1 1.1 0 1.3 0.6 2.4 0.5 1.1 1.4 2c0.7 0.5 1.4 1 2.2 1.3 0.9 0.3 1.7 0.4 2.7 0.4 0.1 0 0.7 0 0.8 0z"/><path fill-rule="evenodd" class="d" d="m477.1 371.6h-8.6v39.4h-9.2v-39.4h-4.1v-8.5h21.9z"/><path fill-rule="evenodd" class="d" d="m519.6 371.6h-13.9v13.8h-9c-2.1 0-3.9 0.1-5.4 0.4q-2.2 0.4-3.5 1.4-1.3 1-1.8 2.6-0.6 1.7-0.6 4.2 0 1.4 0.6 2.7 0.5 1.2 1.3 2.2 0.9 0.9 2.1 1.4c0.8 0.4 1.6 0.5 2.5 0.5q1 0 2.3-0.3 1.3-0.4 2.4-1 1.1-0.5 1.8-1.2c0.5-0.4 0.8-0.9 0.8-1.3q-0.1-0.8-1-4l9-2.1 6.4 24.3-9 2.3-2.9-10.8q-1.8 1.5-4.2 2.2-2.5 0.7-5.7 0.7-3.5 0-6.3-1.2-2.9-1.2-5-3.4-2.1-2.1-3.3-5-1.1-2.9-1.1-6.3 0-4 1.2-7.3 1.3-3.1 3.7-5.4c1.6-1.5 3.6-2.6 6-3.4q3.5-1.3 8.1-1.2h1.4v-4.8h-22v-8.5h45.1zm402.7 39.9l13-45.8h10.8l12.2 45.8h-10.2l-1.3-5.2h-13.1l-1.4 5.2zm14.1-16.6h7.6l-3.9-15.5zm48.5 4l-3 12.6h-20.3v-45.8h9.6v33.2zm26.6 0l-3 12.6h-20.3v-45.8h9.6v33.2zm1.2 12.6l12.9-45.8h10.9l12.1 45.8h-10.1l-1.3-5.1h-13.1l-1.4 5.1zm14-16.6h7.7l-3.9-15.4zm25.2 16.6v-45.8h9.6v16h8.1v-16h9.5v45.8h-9.5v-17.8h-8.1v17.8zm30.5 0l12.9-45.8h10.8l12.2 45.8h-10.1l-1.4-5.2h-13l-1.5 5.2zm14.1-16.6h7.6l-3.8-15.5zm25.1 16.6v-45.8h12.4c4.2 0 7.3 1.1 9.5 3.2q3.3 3.3 3.3 9.4 0 3.6-1.3 6.1-1.1 2.5-3.7 4c1.7 0.8 2.9 2 3.8 3.7q1.3 2.6 1.3 6.6 0 6.4-3.3 9.6-3.2 3.2-9.7 3.2zm9.6-10.5h2q2.1 0 3.1-1 1-0.9 1-2.9 0-2.3-1-3.4-1.1-1-3.3-1h-1.8zm0-17.4h1.7q2.2 0 3.2-0.9 1.1-0.9 1.1-2.8 0-2.2-1-3.1-1-0.9-3.3-0.9h-1.7zm18.3 27.9l12.9-45.8h10.8l12.2 45.8h-10.1l-1.3-5.1h-13.1l-1.4 5.1zm14-16.6h7.6l-3.8-15.5zm30.7-29.2q5.3 0 8.4 0.9 3.2 0.8 5.7 2.7 4 3.1 6 8.1 2.1 4.9 2.1 11.5 0 5.9-2.3 10.9-2.3 4.9-6.4 8-2.6 1.9-5.8 2.8-3.3 0.9-7.7 0.9h-5.5v-45.8zm3.9 33.6q3.8-0.5 6-3.4 2.2-3 2.2-7.4 0-4.7-2.3-7.8-2.2-3-5.9-3.1z"/><path fill-rule="evenodd" class="e" d="m922.3 126.5c0-0.6 0.5-1 1.1-1h13.5c0.6 0 1 0.4 1 1v70.1c0 0.6-0.4 1-1 1h-13.5c-0.6 0-1.1-0.4-1.1-1zm61.1 71.1c-0.6 0-1-0.4-1-1.1v-29.5c0-5.6-2.7-9.3-8-9.3-5.1 0-8 3.7-8 9.3v29.5c0 0.7-0.5 1.1-1.1 1.1h-12.7c-0.7 0-1.1-0.4-1.1-1.1v-49.2c0-0.7 0.4-1.1 1.1-1.1h12.7c0.6 0 1.1 0.4 1.1 1.1v3.6h0.1c2.3-3.2 6.6-5.8 13.2-5.8 11.4 0 17.5 7.8 17.5 19.1v32.3c0 0.7-0.4 1.1-1 1.1zm58 0c-0.6 0-1.1-0.4-1.1-1v-3.8c-2.5 3.6-6.7 6-13.5 6-8.6 0-14.8-4.3-17.4-12.3-1.3-4.1-1.8-8-1.8-14.6 0-6.7 0.5-10.5 1.8-14.5 2.6-8.2 8.8-12.3 17.4-12.3 6.8 0 11 2.4 13.5 5.9v-24.5c0-0.7 0.5-1.1 1.1-1.1h12.8c0.6 0 1 0.4 1 1.1v70c0 0.7-0.4 1.1-1 1.1zm-2-16.9c0.6-2 0.9-4.2 0.9-8.8 0-4.5-0.3-6.8-0.9-8.8-1.2-3.7-3.9-5.5-7.9-5.5-4 0-6.7 1.8-7.9 5.5-0.7 2-1 4.3-1 8.8 0 4.6 0.3 6.8 1 8.8 1.2 3.6 3.9 5.5 7.9 5.5 4 0 6.7-1.9 7.9-5.5zm30.2 16.9c-0.6 0-1-0.4-1-1.1v-49.2c0-0.7 0.4-1.1 1-1.1h12.8c0.6 0 1 0.4 1 1.1v49.2c0 0.7-0.4 1.1-1 1.1zm0-59.6c-0.7 0-1.1-0.4-1.1-1v-10.5c0-0.7 0.4-1.1 1.1-1.1h12.7c0.6 0 1.1 0.4 1.1 1.1v10.5c0 0.6-0.5 1-1.1 1zm57.3 59.6c-0.7 0-1.1-0.4-1.1-1.1v-3.4h-0.1c-2.7 3.4-7.1 5.7-14.1 5.7-9.1 0-17.1-4.8-17.1-15.7 0-11.4 8.6-16.6 21.3-16.6h9.1q0.7 0 0.7-0.6v-1.9c0-4.8-2.4-7-10.5-7-5.2 0-9 1.5-11.5 3.2-0.5 0.5-1 0.4-1.3-0.2l-4.8-8.4q-0.5-0.9 0.3-1.4c4.3-3.1 10.6-5.1 19.1-5.1 16.8 0 22.8 5.7 22.8 18.5v32.9c0 0.7-0.4 1.1-1.1 1.1zm-1.3-17.1v-3.5q0-0.6-0.6-0.6h-7.2c-6.3 0-9.2 1.8-9.2 5.8 0 3.6 2.6 5.4 7.4 5.4 6.4 0 9.6-2.3 9.6-7.1zm59 17.1c-0.6 0-1-0.4-1-1.1v-29.5c0-5.6-2.6-9.3-8-9.3-5 0-8 3.7-8 9.3v29.5c0 0.7-0.4 1.1-1.1 1.1h-12.7c-0.6 0-1.1-0.4-1.1-1.1v-49.2c0-0.7 0.5-1.1 1.1-1.1h12.7c0.7 0 1.1 0.4 1.1 1.1v3.6h0.1c2.3-3.2 6.7-5.8 13.3-5.8 11.3 0 17.5 7.8 17.5 19.1v32.3c0 0.7-0.5 1.1-1.1 1.1zm52-71.1c0-0.7 0.4-1.1 1.1-1.1h28.1c15.7 0 23 7.8 23 19.2 0 7.9-3.6 12.8-8.4 15.4v0.2c4.8 1.8 9.6 7.8 9.6 16.4 0 14.2-9.4 21-25 21h-27.3c-0.7 0-1.1-0.4-1.1-1.1zm27.2 28.4c6 0 9.5-3.2 9.5-8.4 0-5.4-3.5-8.5-9.5-8.5h-11q-0.6 0.1-0.6 0.7v15.6q0 0.6 0.6 0.6zm-11 30.1h11.9c6.3 0 9.7-3.4 9.7-9 0-5.6-3.4-9.1-9.7-9.1h-11.9q-0.6 0-0.6 0.7v16.7q0 0.7 0.6 0.7zm78.4 12.6c-0.7 0-1.1-0.4-1.1-1.1v-3.4h-0.1c-2.6 3.4-7.1 5.7-14.1 5.7-9.1 0-17.1-4.8-17.1-15.7 0-11.4 8.6-16.6 21.4-16.6h9.1q0.6 0 0.6-0.6v-1.9c0-4.8-2.3-7-10.5-7-5.2 0-9 1.5-11.5 3.2-0.5 0.5-1 0.4-1.3-0.2l-4.8-8.4q-0.5-0.9 0.3-1.4c4.4-3.1 10.6-5.1 19.1-5.1 16.8 0 22.8 5.7 22.8 18.5v32.9c0 0.7-0.4 1.1-1 1.1zm-1.3-17.1v-3.5q0-0.6-0.6-0.6h-7.2c-6.3 0-9.2 1.8-9.2 5.8 0 3.6 2.6 5.4 7.5 5.4 6.3 0 9.5-2.3 9.5-7.1zm59.1 17.1c-0.7 0-1.1-0.4-1.1-1.1v-29.5c0-5.6-2.6-9.3-7.9-9.3-5.1 0-8.1 3.7-8.1 9.3v29.5c0 0.7-0.4 1.1-1 1.1h-12.8c-0.6 0-1-0.4-1-1.1v-49.2c0-0.7 0.4-1.1 1-1.1h12.8c0.6 0 1 0.4 1 1.1v3.6h0.1c2.3-3.2 6.7-5.8 13.3-5.8 11.3 0 17.5 7.8 17.5 19.1v32.3c0 0.7-0.4 1.1-1.1 1.1zm60 0c-0.8 0-1.2-0.3-1.6-1.1l-11.5-20.7-5.3 6.6v14.1c0 0.7-0.4 1.1-1 1.1h-12.8c-0.6 0-1-0.4-1-1.1v-70c0-0.7 0.4-1.1 1-1.1h12.8c0.6 0 1 0.4 1 1.1v38.9l14.8-18.1c0.6-0.8 1.1-1.1 2-1.1h13.6c0.6 0 0.8 0.7 0.4 1.1l-15.7 18.1 17.9 31.1c0.3 0.4 0.1 1.1-0.5 1.1zm-929.4-62.5v11.5h-36.6v13.3q2.4-1.5 4.7-2.2 2.3-0.7 5.1-0.7 3.8 0 6.8 1.3c2 0.8 3.7 2 5.2 3.5q2.1 2.3 3.2 5.6 1.1 3.2 1.1 7.2 0 2.5-0.7 5.2c-0.5 1.8-1.2 3.6-2 5.4q-1.3 2.7-3 5.2c-1.1 1.7-2.3 3.2-3.5 4.6l-7.5-9.6c0.6-0.7 1.3-1.5 1.9-2.4q0.9-1.5 1.7-3 0.7-1.5 1.2-3 0.5-1.4 0.5-2.6 0-1.6-0.6-2.8c-0.4-0.8-0.8-1.4-1.4-1.9q-0.8-0.8-1.7-1.1-0.9-0.3-1.6-0.3-1.4 0-2.5 0.4c-0.8 0.3-1.6 0.7-2.3 1.2q-1.1 0.7-2.3 1.8-1.1 1.1-2.3 2.3v25.5h-12.1v-17.2q-2.3 1.2-5.3 2.3-2.9 1-5.9 1-4.8 0-8.2-1.5c-2.3-1.1-4.1-2.4-5.4-4-1.4-1.6-2.4-3.4-3-5.3-0.6-2-0.9-3.9-0.9-5.8q0-3.6 1.3-6.6c0.9-2 2.1-3.7 3.7-5.1q2.4-2.2 5.8-3.4 3.4-1.2 7.4-1.2 3.3 0 5.9 0.7 2.6 0.7 4.6 1.5v-8.4h-31.4v-11.4zm-80.2 11.5h-10.5v52.9h-12.2v-12.3q-3.1 1.9-6.3 2.8-3.2 0.9-6.5 0.9-4.1 0-7.6-1.5-3.6-1.6-6.3-4.2-2.7-2.8-4.3-6.3c-1-2.5-1.5-5-1.5-7.7q0-4.3 1.6-7.8c1.2-2.4 2.7-4.4 4.7-6.1q2.9-2.5 6.9-3.9 4-1.4 8.5-1.4 3.4 0 6.1 0.7 2.7 0.6 4.7 1.4v-7.5h-36.2v-11.7h27.9l-17.6-15.6 7.8-8 23.4 23.6h0.9l-11.5-25.8 10-4.1 12.4 29.9h5.5v0.2h0.1zm31.4 20.8q-0.8-0.4-1.8-1-1.1-0.6-2.4-1.1-1.4-0.4-2.9-0.8c-1.1-0.2-2.2-0.3-3.4-0.3q-6.1 0-6.1 4.3 0 2.8 1.5 4.2 1.5 1.4 4 1.4c0.9 0 1.9-0.2 2.9-0.6q1.5-0.6 3-1.3 1.4-0.9 2.8-1.8 1.4-1 2.4-1.8zm-23.8-53.1l-8.2 8.4-8.2-8.4 8.2-8.3zm-30.3 51.6q-1.1-0.6-2.4-1.1-1.3-0.6-2.7-1-1.4-0.4-2.8-0.7c-0.9-0.2-1.8-0.2-2.6-0.2-0.3 0-1.4 0-1.7 0q2.7 3 5.1 5.9 2.5 2.8 5.4 6.1l1.7-1.4zm-288.5-19.4v15.8h-25.6q-1 0-1.6 0.7-0.6 0.7-0.6 1.8 0 1.4 1 2.1 0.9 0.8 2.4 0.8 1 0 2.9-0.2 2-0.3 3.9-0.6 2-0.2 3.7-0.4 1.7-0.3 2.4-0.3 3.9 0 7.2 1.1 3.2 1.1 5.5 3.1 2.3 2 3.6 4.8c0.9 1.9 1.3 4 1.3 6.3q0 3.6-1.4 6.8-1.5 3.2-4 5.7-2.5 2.6-6.2 4.2-3.6 1.7-7.9 2.1l8.3 12.3-10.5 6.5-12.2-19.7q-2.9-0.7-6.2-2.9-3.4-2.2-6.6-6.6l9-8.4q1.4 2.3 2.9 3.7c1.1 1 2.1 1.8 3.2 2.3q3.3 1.6 6.1 1.6c8.9 0 13.3-2.5 13.3-7.4 0-1.2-0.4-2-1.2-2.8-1-0.7-2-1.2-3.3-1.2-0.4 0-0.9 0.1-1.5 0.2q-1 0.1-2.1 0.3-1.1 0.1-2.4 0.3c-0.8 0.2-1.6 0.3-2.4 0.4-0.7 0.1-1.4 0.2-2.1 0.2q-0.9 0.2-1.5 0.2-3.9 0-7-1-3.1-1.1-5.3-3c-1.5-1.2-2.6-2.8-3.4-4.5q-1.2-2.7-1.2-6 0-3.1 1-5.6 1-2.6 2.8-4.4 1.8-1.9 4.3-2.9c1.7-0.6 3.6-1 5.7-1h13.6v-4.4h-29.9v-11.5h57.7v-0.1h0.2q-0.2-0.6-0.4-1.4-0.2-1-0.4-2-0.2-1-0.3-1.9-0.1-1-0.1-1.6 0-19.2 25.5-19.2 7.1 0 15.5 2.2 8.4 2.2 17.7 6.4 2.2 1 5.7 2.7 3.5 1.7 8 3.9 4.4 2.3 9.7 5 5.3 2.7 11.1 5.7l-0.1 0.2c43.5 0 86.6 0.1 130.1 0.1v11.5h-14.6v52.9h-12.1v-28.6l-14.7-0.1q0.4 1 0.7 2.3 0.2 1.3 0.2 2.7 0 15.9-13.6 15.9c-2.2 0-4.1-0.4-5.9-1.2q-2.6-1.2-4.6-3.3-1.9-2.2-2.9-5-1-2.9-1-6.3 0-16.5 17.7-16.5h24.1v-12.8h-54.2v52.9h-12.2v-14.4q-3 1.4-6.4 2.2-3.3 0.8-6.7 0.8-15 0-26.7-19.6l5-7.5q3.7 1.5 5.6 1.4 3.6 0 5.6-1.8 2-1.9 2.1-5.5 0-1.2-0.5-2.6-0.5-1.5-1.2-2.8c-0.5-0.8-1-1.6-1.5-2.2q-0.9-0.9-1.7-0.9h-25.4v15.8h-25.7q-1 0-1.7 0.7-0.7 0.8-0.7 1.9 0 1.3 1.1 1.9 1.4 0.9 3.1 0.9 1 0 2-0.1 1.1-0.2 2.4-0.5 3.2-0.8 5.5-0.8 3.6 0 6.7 1.1 3.1 1.1 5.4 3 2.2 1.9 3.5 4.6c0.9 1.9 1.3 3.9 1.3 6 0 2.9-0.5 5.6-1.7 8q-1.7 3.5-4.8 6.1-3 2.6-7.4 4-4.3 1.4-9.5 1.4-13.9 0-23.3-10.5l8.3-7.6q6 6.7 15 6.7 2.4 0 4.5-0.5 2.2-0.5 3.9-1.4 1.6-0.9 2.6-2.3 1-1.3 1-3c0-0.7-0.2-1.2-0.5-1.8q-0.4-0.8-1.1-1.4-0.7-0.6-1.6-1-1-0.3-1.9-0.3-1 0-2.2 0.2-1.2 0.3-2.4 0.6c-0.8 0.1-1.6 0.3-2.3 0.5q-1.2 0.2-2.2 0.2-16.7 0-16.7-13.9c0-2 0.4-3.8 1.1-5.6 0.7-1.7 1.7-3.1 2.9-4.4 1.2-1.2 2.6-2.1 4.3-2.8q2.5-1.1 5.4-1.1h13.5v-4.6h-46.7v52.9h-12.1v-52.9zm144.8 0h-11.1q1 1.8 1.4 4.1 0.5 2.3 0.5 4.5c0 1.9-0.3 3.8-1 5.7q-0.9 2.8-2.7 5.2-1.7 2.3-4.1 4.1-2.5 1.6-5.4 2.4 1 0.8 2.2 1.4 1.2 0.6 2.5 1.1 1.2 0.4 2.4 0.6 1.2 0.2 2.3 0.2 6.8 0 13-4.6zm-141.4-33l-8.2 8.3-8.2-8.3 8.2-8.3zm264.5 55.1c-0.1 0.4-0.3 0.9-0.4 1.4-0.1 0.5-0.1 1-0.1 1.4q0 1.8 0.7 3.3 0.7 1.5 1.9 2.6 1.3 1.1 2.9 1.8 1.7 0.6 3.5 0.6c0.2 0 1 0 1.1 0zm-239.5-33.9h57.2l-2.1-0.9q-4-1.9-7.1-3.2c-2-0.9-3.5-1.5-4.7-2-6.6-2.6-12.5-4.5-17.8-5.7q-7.9-1.8-13.7-1.8c-9.1 0-13.7 2.4-13.7 7.2q0 0.7 0.2 1.7 0.1 1.1 0.5 2.1 0.3 1 1.2 2.6zm152.5 41.3q0 4.1 3 4.1 2.3 0 2.3-4.6 0.1-1.6-0.5-2.8-0.5-1.3-1.4-2.1-1.9 0.7-2.6 2-0.8 1.2-0.8 3.4z"/><path fill-rule="evenodd" class="e" d="m731.4 171.3l0.4 0.4c56.6-75.2 156.9-4.4 75.2 64.9l15.3 13.2-5.3 4.7-70.8-5.2-1.6-34.9c-13.6 38.4-93.8 54.8-113.6-22.4l-21.1 3.8 32.8-50.8 4.7-4.7 35.8 19.6c-43.5-30.8-10.6-106.3 82.1-76l2.6-10.3 4.8-4.2 36.4 56.3-5.3 5.2-68.2 23.5 8-19.8c-29.1-9.8-41.7 20.3-12.2 37.6-14.7 0.3-26.8-2-36.6-6l19.7 10.7-5.8 4.7-17.4-0.4c1.5 23.7 41.5 24.4 40.2-9zm0.6 0.6c5.9 6.2 9.9 12.4 12.2 18.5l4.6-4.6 15.9 14.1c21.5-18.2-2.9-46.1-32.7-28zm-0.6 0.3z"/><path fill-rule="evenodd" class="f" d="m727.8 177.1c59.5 68.5-74.1 123.4-100.5 20.5l-21.6 3.3 37-55.9 66 37.1-22.7 4.3c5.8 25.8 40.5 22 41.7-9.3l-0.5 0.3c-104.6 1.9-82.5-126.4 34.4-88.3l5.8-14.6 35.9 56.4-71.9 28.7 8.5-19.7c-29.6-9.9-42.3 20.2-12.7 37.5 52.8-78.9 158.5-4.7 76.1 64.9l12.7 12.2-73.5 0.4 1.6-63.8 16.4 14.5c22-18.7-2.9-46.6-32.7-28.5z"/></svg>