<svg version="1.2" xmlns="http://www.w3.org/2000/svg" viewBox="0 0 1547 434" width="1547" height="434"><style>.a{fill:#e2e41a}.b{fill:#00854a}.c{fill:#fff}</style><path fill-rule="evenodd" class="a" d="m1546 0.8v432.6h-1544.9v-432.6z"/><path fill-rule="evenodd" d="m280.3 248.2l-25.7-59.5q0 0-0.1-0.1v-0.1l-0.1-0.4q-2.4-5.1-5.4-6.9c-0.2-0.2-0.5-0.4-1-0.6-0.5-0.3-0.9-0.5-1.1-0.7q-1.5-0.3-2.1-0.9c-0.4-0.3-0.5-0.8-0.5-1.4 0-0.6 0.3-1.2 0.9-1.6 0.5-0.4 1.3-0.6 2.3-0.6q0.5 0 1.7 0.2c0.3 0 0.6 0 0.7 0q4.7 0.6 8.1 0.6c1.6 0 3.2-0.1 4.8-0.1 1.7-0.1 3.6-0.2 5.8-0.3 0.6-0.1 1.5-0.2 2.9-0.2 1.3-0.2 2.4-0.2 3-0.2 0.9 0 1.6 0.2 2 0.5 0.3 0.3 0.5 0.8 0.5 1.5 0 0.7-0.1 1.1-0.4 1.5-0.3 0.3-0.9 0.7-1.8 1-0.2 0.2-0.3 0.2-0.3 0.3-0.1 0-0.2 0-0.3 0q-3.4 1.6-3.4 4.4 0 0.8 0.3 2.4c0.4 1 0.8 2.2 1.4 3.6l15.5 37q0.3 0.6 0.6 1 0.4 0.3 0.8 0.3c0.4 0 0.7-0.1 1-0.3 0.2-0.3 0.4-0.6 0.6-1l14.2-33.6c0.6-1.3 0.9-2.5 1.3-3.8 0.3-1.2 0.4-2.3 0.4-3.2 0-1.8-0.5-3.2-1.4-4.2q-1.3-1.6-4.2-2.4-0.5-0.1-1.2-0.3c-0.1-0.1-0.2-0.1-0.3-0.2h-0.1c-2.3-0.5-3.4-1.4-3.4-2.7q0-0.9 0.7-1.4c0.4-0.4 1.1-0.5 1.9-0.5q0.3 0 0.8 0 0.5 0.1 0.9 0.1c0.2 0 0.4 0.1 0.7 0.1 3.4 0.4 6.6 0.6 9.5 0.6 1.3 0 2.5-0.1 3.8-0.1q1.9-0.2 4.1-0.5c0.2 0 0.4 0 0.7-0.1q0.5 0 0.6 0 1.2 0.1 1.6 0.4c0.3 0.3 0.5 0.7 0.5 1.4q0 1.6-2.4 3.1h-0.1c0 0-0.1 0.1-0.3 0.2-0.6 0.4-1.1 0.7-1.4 1q-2 1.7-5 8.2c-0.2 0.5-0.3 0.8-0.5 1.1 0 0.1 0 0.3-0.1 0.5 0 0.1-0.2 0.4-0.3 0.7l-22.4 50c0 0.3-0.1 0.5-0.3 0.7-0.1 0.2-0.2 0.6-0.5 1.1-1.5 3.5-2.6 5.6-3.3 6.6q-1.1 1.3-2.3 1.3c-0.6 0-1.1-0.3-1.5-0.7-0.4-0.4-0.9-1.3-1.4-2.8zm79.7-68.3c-3 0-5.1 0.6-6.2 1.8q-1.7 2-1.7 8.4v10.6c0 2.5 0.7 4.3 2 5.4q2 1.5 6.6 1.5 2.6 0 4.6-0.4v5.7q-2.8-0.5-6.2-0.5c-3.3 0-5.3 0.3-6 0.8q-1 0.9-1 4.8v18q0 5.7 2.1 7.2c1.3 1.2 3.9 1.7 7.8 1.7q1.8 0 3.3-0.2v5.1c-1.4 0.1-2.9 0.2-4.5 0.2-2.6 0-5.9-0.1-9.8-0.3q-1.5 0-2.1 0c-0.2 0-0.5 0-1-0.1q-2.6-0.1-3.6-0.1-2.9 0-5.6 0.1-2.7 0.2-5.7 0.6c-0.2 0-0.5 0.1-0.9 0.1q-1.4 0.1-1.9 0.1-0.9 0-1.6-0.7-0.6-0.7-0.6-1.5c0-0.6 0.1-1.2 0.5-1.5q0.5-0.7 2.3-1.5l0.2-0.1q2.5-1.2 3.4-2.5c0.6-0.8 1.1-2 1.4-3.4 0.3-1.4 0.5-4 0.5-7.7v-39q-0.1-4.8-0.7-7.2c-0.5-1.5-1.2-2.7-2.3-3.7q-1.4-1.1-4.5-1.8c-0.1 0-0.1 0-0.2 0l-1.6-0.4c-0.4-0.1-0.6-0.3-0.9-0.7-0.3-0.4-0.4-0.8-0.4-1.3 0-0.5 0.2-1.1 0.7-1.4 0.4-0.5 0.8-0.7 1.4-0.7h0.7q0.3 0 0.6 0.1 3.5 0.3 6.9 0.5c2.2 0.1 4.6 0.2 7 0.2q2.1 0 4.4-0.1 2.4-0.2 5.3-0.5 0.8 0 2.5-0.2c3.7-0.2 6.6-0.3 8.6-0.3h1.5v5.8q-2.4-0.9-5.3-0.9zm-187.3 51.6v-39q0-4.8-0.7-7.2-0.6-2.3-2.2-3.7c-0.5-0.4-1.2-0.8-1.8-1-0.7-0.3-1.6-0.6-3-0.8-0.1-0.1-0.3-0.1-0.4-0.2-0.2 0-0.6 0-1-0.2q-0.6-0.1-1-0.7c-0.3-0.4-0.5-0.8-0.5-1.3 0-0.6 0.3-1.2 0.8-1.6q0.8-0.6 2.1-0.6h0.8q0.3 0.1 0.7 0.1 0.1 0 0.3 0c4.2 0.4 8.2 0.7 12.1 0.7 4 0 8.2-0.3 12.5-0.7 0.4 0 0.7-0.1 0.9-0.1 0.2 0 0.4-0.1 0.7-0.1 0.1 0 0.4 0 0.6 0 0.8 0 1.5 0.2 2 0.6q0.7 0.6 0.7 1.5 0 1.4-2.4 2.4c-0.1 0.1-0.3 0.2-0.3 0.2-0.6 0.1-1.2 0.3-1.6 0.5-0.5 0.2-0.9 0.5-1.1 0.7q-1.3 1.2-1.8 2.8c-0.3 1-0.4 3-0.4 6.1v18.1c0 0.6 0 1 0.3 1.4q0.2 0.5 0.6 0.5c0.1 0 0.4 0 0.7-0.2 0.4-0.3 0.7-0.6 1.1-0.9l19-17.5c2.2-1.9 3.7-3.6 4.6-4.8 0.9-1.3 1.4-2.6 1.4-3.6 0-1.7-1.1-2.6-3.3-3.1h-0.6c0 0-0.1-0.1-0.2-0.1q-2.5-0.7-2.5-2.3 0-1 0.6-1.5 0.5-0.4 1.9-0.5 0.6 0 1.2 0c0.3 0 0.6 0.1 1 0.1q0.3 0.1 0.9 0.1c3.4 0.1 6.4 0.3 9 0.3 2.9 0 5.9-0.2 9.1-0.3l0.3-0.1c0.2 0 0.4-0.1 0.6-0.1q0.3 0 0.6 0c1.2 0 1.9 0.1 2.3 0.4q0.6 0.5 0.6 1.5 0 1.1-0.4 1.6-0.4 0.4-2 0.9c-0.1 0.1-0.3 0.1-0.5 0.2q-1.4 0.6-2.1 0.9-5.3 2.4-13.4 9.7l-0.3 0.3-0.4 0.3-9.9 8.9c-0.8 0.6-1.2 1-1.5 1.3q-0.3 0.6-0.3 1.1c0 0.2 0.1 0.4 0.2 0.8 0.2 0.3 0.5 0.8 0.9 1.6l23.4 34.2q1.6 2.2 3 3.5c1 0.9 2 1.5 3 2 0.3 0.2 0.7 0.3 1.3 0.5h0.1c0.8 0.2 1.2 0.4 1.5 0.7 0.2 0.3 0.2 0.9 0.2 1.6 0 1-0.2 1.6-0.6 2q-0.7 0.5-2.6 0.5c-0.6 0-1.1-0.1-1.4-0.1q-0.5 0-0.9 0-1.4-0.1-2.6-0.2c-0.9 0-1.6 0-2.4 0-2.2 0-4.4 0.1-6.9 0.3-0.3 0-0.6 0-0.8 0q-0.3 0.1-0.5 0.1c-1.1 0-2.2-0.6-3.3-1.6q-1.7-1.6-4.4-5.8l-17.9-27.1q-0.5-0.8-0.9-1.2-0.5-0.3-0.9-0.3-0.3 0-0.6 0.1-0.3 0.2-0.6 0.4l-3.2 3.1c-0.7 0.6-1.1 1.1-1.3 1.5-0.2 0.4-0.2 1.1-0.2 2v13.3c0 2.8 0.3 4.9 0.8 6.1q0.8 1.8 2.9 3.3c0.8 0.5 2 1 3.6 1.4h0.2c1.5 0.4 2.4 0.8 2.9 1.1 0.5 0.4 0.7 1 0.7 1.6q0 1.1-0.7 1.8-0.6 0.7-1.5 0.7c-0.7 0-1.4 0-1.9 0-0.5-0.1-0.9-0.1-1.4-0.2-2.3-0.3-4.4-0.5-6.4-0.7-2-0.2-4-0.2-6-0.2q-2.9 0-5.8 0.2-2.9 0.2-5.7 0.6-1.2 0.2-2.1 0.2-0.9 0.1-1.7 0.1c-0.6 0-1.1-0.2-1.5-0.7q-0.7-0.7-0.7-1.5c0-1 0.9-2 2.8-2.9l0.1-0.1c0.8-0.4 1.5-0.7 2.1-1.1 0.5-0.4 1-0.9 1.4-1.5 0.7-0.8 1.2-2 1.5-3.3q0.4-2.1 0.4-7.8zm214.2 12.7q8.4-5.7 8.4-17.7c0-5.7-1.6-10-5.1-12.9-3.4-2.8-8.6-4.5-15.8-4.8 5.2-1.2 9-3.1 11.6-5.7q3.7-4 3.7-10.3c0-5.6-2.3-10-6.8-13.2-4.2-2.8-10.1-4.4-17.6-4.6v5.8c1.7 0.8 3.2 1.9 4.5 3.5q3.7 4.4 3.7 11.9 0 5.9-3.1 8.7-1.9 1.6-5.1 2.3v5.7q5.1 1 8.3 3.7c3.2 2.8 4.9 7 4.9 12.4q0 7.7-4.3 11.8c-2.2 2.1-5.1 3.5-8.9 3.9v5.1q14.3-0.6 21.6-5.6z"/><path fill-rule="evenodd" class="b" d="m210.7 94.8c61.5-47.9 150.7-36.7 198.6 24.8 47.9 61.5 36.7 150.6-24.8 198.5-1.8 1.4-3.6 2.8-5.5 4 56.9-48.7 66-134.5 19.6-194.2-46.5-59.7-131.9-71.9-193.2-28.8 1.8-1.5 3.5-2.9 5.3-4.3z"/><path fill-rule="evenodd" class="b" d="m170.2 77.7c66.5-51.7 159-47.7 219.8 5.2-55.7-43.1-136.2-44.6-194.7 0.9-69.1 53.7-82.1 153.4-28.8 221.9 53.3 68.5 153.2 80.4 222.3 26.7 27-21 45.5-49 54.7-79.4-9 36.8-30 71-62.2 96-75.4 58.6-184.4 45.6-242.5-29.1-58.1-74.7-44-183.5 31.4-242.2z"/><path fill-rule="evenodd" class="b" d="m0.2 250h87c16.6 87.6 93.8 154.2 186 154.2 71.7 0 134.3-40.2 166.4-99.1h1106.5v128.3h-1545.9z"/><path fill-rule="evenodd" d="m902.7 274.7q3 0.1 5.4 0.1 8.2 0.1 11.8-1c2.5-0.8 4.6-2 6.3-3.7 1.3-1.3 2.5-3.1 3.6-5.5q1.8-3.5 4.9-13.2l18.7-57.1h-21.6l-9.8 34.8-10-34.8h-23.2l19.3 52.6q0.6 1.7 0.9 3.1 0.3 1.4 0.3 2.5c0 1.7-0.5 3-1.5 3.7q-1.5 1.2-4.8 1.2h-6.5v17q3.3 0.2 6.2 0.3zm124.8 0c2 0.1 3.8 0.1 5.4 0.1q8.2 0.1 11.9-1c2.4-0.8 4.5-2 6.2-3.7 1.3-1.3 2.5-3.1 3.7-5.5q1.7-3.5 4.8-13.2l18.7-57.1h-21.6l-9.8 34.8-10-34.8h-23.2l19.3 52.6q0.6 1.7 0.9 3.1 0.3 1.4 0.3 2.5c0 1.7-0.5 3-1.5 3.7q-1.5 1.2-4.8 1.2h-6.5v17q3.3 0.2 6.2 0.3zm-515.6-22.9v-24.8l6.2-6.4 19.1 31.2h29.8l-31.4-49.2 27.8-28.7h-29l-22.5 25.8v-25.8h-24.8v77.9z"/><path fill-rule="evenodd" d="m592.5 207.5c-1.3 0.9-2 2.3-2.3 4.3h-22.3q0.2-9.7 8-14.7c4.9-3.1 12.1-4.7 21.4-4.8 0.5 0 1-0.1 1.4-0.1q7.1 0 13.1 1.3 6 1.4 9.3 3.6c2.8 1.8 4.7 3.9 5.8 6.2 1 2.3 1.6 5.6 1.6 9.9v32.1c0 1 0.2 1.9 0.6 2.8 0.5 0.8 1.1 1.5 1.9 2v1.7h-23l-1.4-5.5c-2.9 2.5-6 4.4-9.3 5.6l-0.2 0.1q-5.1 1.8-11.4 1.8c-6.5 0-11.5-1.5-15.1-4.8-3.5-3.1-5.3-7.7-5.3-13.5 0-5.6 1.8-9.8 5.3-12.6q5.2-4 19.8-5.9c1.2-0.2 2.9-0.3 4.9-0.6q1.1-0.1 2-0.2c6-0.9 8.9-2.7 8.9-5.4 0-1.6-0.7-2.8-2-3.6q-2-1.1-6.3-1.1h-0.6c-2 0.1-3.7 0.5-4.8 1.4zm4.7 21.3c-5.7 1.5-8.6 3.6-8.6 6.1q0 2.4 1.7 3.8 1.7 1.3 4.8 1.4c0.8 0 1.5-0.1 2.2-0.1q4.1-0.5 6.2-2.5c1.7-1.9 2.6-4.6 2.6-8.5v-1.8c-0.1-0.4-0.1-0.7-0.2-1.1-2.1 0.9-5 1.8-8.6 2.7zm39.7 23v-57.6h21.1v10.5q2.2-6.3 6.5-9.1c2.8-2 6.6-2.9 11.4-2.9h2v22.8q-1.3-0.1-2.5-0.2c-0.7-0.1-1.5-0.1-2.1-0.1q-7 0-10.2 3.1-3.3 3.2-3.3 9.9v23.6zm107.1-57.6v57.6h-20.9v-8.5q-4 5.1-9 7.5c-3.3 1.6-7 2.5-11.2 2.5q-5.2 0-9.4-1.8c-2.7-1.1-5.1-2.9-7-5.2-1.6-2-2.8-4.5-3.5-7.4-0.8-2.9-1.1-8-1.1-14.9v-29.8h22.9v29.7c0 4.4 0.5 7.4 1.7 9.1q1.8 2.5 6 2.5c2.9 0 5-1 6.5-2.9 1.4-1.9 2.1-4.9 2.1-8.8v-29.6zm8.5 57.6v-57.6h21.1v10.5q2.3-6.3 6.5-9.1c2.9-2 6.6-2.9 11.4-2.9h2v22.8q-1.2-0.1-2.4-0.2c-0.8-0.1-1.5-0.1-2.2-0.1q-7 0-10.2 3.1-3.3 3.1-3.3 9.9v23.6zm63.8-78h25.6l13.1 50.3 14.1-50.3h24.6l-26.3 78h-24.9zm138.2 59.7h22.3c0 2.5 0.6 4.3 1.9 5.5 1.2 1.3 3.1 1.8 5.6 1.8 2.4 0 4.2-0.4 5.5-1.2 1.3-0.8 2-2 2-3.5q0-3.9-8.6-5.8-0.7-0.1-1.1-0.2c-10.8-2.3-17.8-4.8-21.1-7.4q-4.9-4-4.9-11.7 0-9.1 7.2-14.1 7.3-4.8 21.1-4.8c8.6 0 15.2 1.5 20 4.5 4.6 3.1 7.4 7.6 8.1 13.6h-20.6q-0.3-2.6-2.3-4.1-2-1.6-5-1.6c-2 0-3.5 0.4-4.6 1.1-1.1 0.6-1.5 1.6-1.5 3 0 2.2 2.5 3.9 7.7 5 1.4 0.3 2.4 0.5 3.1 0.6 10.5 2.5 17.3 5 20.4 7.7 3.1 2.7 4.7 6.6 4.7 11.9 0 6.6-2.5 11.5-7.7 14.9-5.1 3.3-12.7 5-22.7 5-9.4 0-16.5-1.7-21.3-5q-7.4-5-8.2-15.2zm152.1-26.1q-1.9 1.4-2.2 4.3h-22.3q0.1-9.7 7.9-14.7 7.4-4.7 21.5-4.8c0.4 0 0.9-0.1 1.4-0.1 4.7 0 9 0.4 13 1.3 4 0.9 7.2 2.1 9.4 3.6 2.7 1.8 4.6 3.8 5.7 6.2 1.1 2.3 1.6 5.6 1.6 9.9v32.1c0 1 0.3 1.9 0.7 2.8q0.6 1.2 1.8 2v1.7h-23l-1.4-5.6c-2.9 2.6-5.9 4.5-9.2 5.7l-0.2 0.1q-5.1 1.8-11.4 1.8c-6.6 0-11.6-1.5-15.1-4.8-3.6-3.1-5.3-7.7-5.3-13.5q0-8.5 5.2-12.6c3.5-2.7 10.1-4.7 19.8-5.9 1.2-0.2 2.9-0.3 5-0.6q1.1-0.1 2-0.2c5.9-0.9 8.8-2.7 8.8-5.4 0-1.6-0.6-2.8-2-3.6q-2-1.1-6.2-1.1h-0.6c-2.1 0.1-3.7 0.5-4.9 1.4zm4.7 21.3c-5.7 1.5-8.6 3.6-8.6 6.1 0 1.6 0.6 2.9 1.7 3.8 1.2 0.9 2.8 1.4 4.9 1.4 0.7 0 1.5-0.1 2.2-0.1q4-0.5 6.1-2.5c1.8-1.9 2.6-4.6 2.6-8.5v-1.8c0-0.4-0.1-0.7-0.2-1.1q-3.2 1.3-8.5 2.6zm99.9 23h-34.5v-77.9h35.4c5.2 0 9 0.2 11.6 0.5q4.7 0.5 8.1 1.7c3.9 1.5 7 3.8 9.1 7 2.1 3.1 3.1 6.9 3.1 11.4 0 3.5-0.8 6.6-2.3 9.2-1.6 2.7-4 4.8-7.1 6.5 4.1 1.5 7.2 3.7 9.2 6.7 1.9 2.9 2.9 6.8 2.9 11.5q0 6.9-2.9 12-2.8 5.1-8.4 7.9c-2.5 1.2-5.2 2.1-8.4 2.7-3.1 0.5-8 0.7-14.9 0.7zm-10.2-18.2h11.6c3.8 0 6.6-0.5 8.2-1.7 1.6-1.1 2.4-2.9 2.4-5.5q0-3.9-2.5-5.5c-1.6-1.1-4.4-1.6-8.3-1.6h-11.4zm6.9-42h-6.9v13.4h11.1q4.5-0.1 6.5-1.5 2.1-1.6 2.1-5.2c0-2.6-0.7-4.3-2.2-5.3q-1.7-1-6.4-1.3c-1.2-0.1-2.6-0.1-4.2-0.1zm71.4 15.9c-1.3 0.9-2.1 2.4-2.3 4.3h-22.3q0.1-9.7 7.9-14.6c4.9-3.2 12-4.8 21.4-4.9v13.8h0.1c-2.1 0.1-3.7 0.6-4.8 1.4zm4.7-15.2c0.5 0 1-0.1 1.4-0.1 4.8 0 9.1 0.5 13.1 1.3 4.1 0.9 7.1 2.1 9.3 3.6 2.7 1.8 4.7 3.9 5.7 6.2 1.2 2.3 1.7 5.6 1.7 9.9v32.1c0 1 0.2 1.9 0.6 2.8 0.5 0.8 1.1 1.5 1.9 2v1.7h-23l-1.4-5.5c-2.9 2.5-5.9 4.4-9.2 5.6v-11.9q0 0-0.1 0 4.1-0.5 6.2-2.5c1.7-1.9 2.6-4.6 2.6-8.5 0-0.8 0-1.4-0.1-1.8 0-0.4 0-0.7-0.1-1.1-2.2 0.9-4.9 1.8-8.5 2.7v-12.6q0 0-0.1 0c6-0.9 8.9-2.7 8.9-5.4q0-2.4-2-3.6-2-1.1-6.3-1.1h-0.5v-13.8q-0.1 0-0.1 0zm-0.1 36.5c-5.7 1.6-8.6 3.6-8.6 6.1 0 1.6 0.6 2.9 1.7 3.8 1.2 0.9 2.8 1.4 4.9 1.4q1.1 0 2.1-0.1v11.9q0.1 0 0.1 0l-0.2 0.1c-3.4 1.3-7.2 1.9-11.5 1.9q-9.6 0-15-4.8c-3.5-3.2-5.3-7.7-5.3-13.5 0-5.7 1.7-9.9 5.2-12.6q5.3-4.1 19.8-5.9c1.2-0.3 2.9-0.4 5-0.6q1-0.2 1.9-0.3v12.6q0.1 0 0.1 0zm39.5 23v-57.5h20.8v8.4q4-5.1 9-7.5c3.3-1.7 7-2.5 11.2-2.5q5.2 0 9.3 1.8c2.8 1.2 5.1 2.9 7 5.2 1.7 2.1 3 4.6 3.7 7.6q1.1 4.4 1.1 14.6v29.9h-22.9v-29.8q0-6.6-1.7-9c-1.2-1.7-3.2-2.5-6-2.5q-4.4 0-6.5 2.8-2.1 2.9-2.1 8.8v29.7zm71 0v-77.9h22.9v38l15.1-17.6h25.6l-21.4 21.2 24.3 36.3h-27.2l-12.5-20.6-3.9 4v16.6z"/><path fill-rule="evenodd" class="c" d="m1421.6 393.5c-0.2 0.6-0.4 1.1-0.9 1.3-0.4 0.3-1.1 0.4-2 0.4h-1.7c-0.9 0-1.6-0.1-2-0.4-0.5-0.2-0.8-0.6-0.8-1.1 0-0.2 0.1-0.4 0.3-0.8 0-0.1 0.1-0.2 0.1-0.2l0.2-0.9c4.3-12.5 7.8-23.8 10.7-34 2.8-10.1 4.2-16.2 4.2-18 0-1.6-1.5-2.5-4.6-2.9-0.6 0-1.1-0.1-1.4-0.1l0.5-2.3c2.6-0.2 5.2-0.5 7.7-1 2.5-0.4 5-1 7.3-1.8l1 0.5c-2.6 9.5-4.8 16.9-6.3 22.3-1.6 5.4-3 9.9-4.2 13.7 3.2-3.7 6.3-6.3 9.1-7.9 2.8-1.7 5.7-2.5 8.5-2.5 2.3 0 4.1 0.6 5.5 2 1.4 1.2 2.1 3 2.1 5 0 3-1.9 5.5-5.6 7.7-3.7 2.2-8.4 3.4-13.9 3.5q1.4 0.8 2.5 2.4 1.1 1.4 2.7 5.2c0.1 0.2 0.3 0.6 0.5 1.1 1.7 3.7 3.4 5.6 5.2 5.6 0.8 0 1.8-0.3 2.8-1.1 1.1-0.7 2.2-1.9 3.4-3.3l1.6 1.2q-2.8 4.3-5.8 6.6c-2 1.5-4 2.1-6 2.1-1.9 0-3.5-0.6-4.7-1.9-1.2-1.3-2.6-4-4.1-8.1-0.1-0.4-0.3-0.9-0.5-1.6-1.8-4.9-3.8-7.5-5.8-7.8zm5.8-19.2c0.3 0 1.9 0 2.5 0q8.4 0 13.2-2.2c3.1-1.4 4.6-3.4 4.6-6 0-1.1-0.3-2-1-2.6q-1.1-1.1-3-1.1c-2.5 0-5.2 1.1-8.1 3.1-2.8 2.1-5.6 5-8.2 8.8zm-70.5-4.7l-1.8-1c1.6-3.4 3.4-6 5.3-7.9 2-1.9 3.9-2.8 5.8-2.8 1.2 0 2.1 0.4 2.9 1.1 0.7 0.9 1 1.9 1 3.1q0 1.4-0.4 3.6c-0.2 1.5-0.6 3-1 4.7q4.6-6.4 9-9.5c2.8-2.1 5.6-3.2 8.2-3.2 2 0 3.5 0.6 4.6 1.5 1.1 1 1.7 2.4 1.7 4.2q0 1.2-0.5 2.9c-0.3 1.2-0.9 3.1-1.9 5.5l-0.5 1.3c-3.1 7.9-4.7 12.5-4.7 13.5 0 0.6 0.2 1 0.5 1.4 0.3 0.4 0.7 0.5 1.2 0.5q0.9 0 2.3-1c0.8-0.7 2.3-2.2 4.2-4.3l1.8 1.6q-4.5 5.6-8.1 8.3-3.6 2.7-6.6 2.7-2.1 0-3.2-1.2-1.2-1.1-1.2-3.2c0-0.7 0.1-1.6 0.4-2.7q0.3-1.5 1.1-3.8l5.3-14.2c0.1-0.2 0.2-0.6 0.3-1 0.8-2 1.1-3.5 1.1-4.4 0-0.9-0.2-1.5-0.7-1.9-0.5-0.6-1.2-0.8-2-0.8q-3 0-6.9 4.9c-2.5 3.3-4.8 7.6-6.9 13.1l-4.5 11.6q-0.8 2-1.4 2.4c-0.4 0.4-1.2 0.5-2.2 0.5h-1.1q-1.8-0.1-2.7-0.5c-0.6-0.4-0.9-0.7-0.9-1.3 0-0.1 0.1-0.2 0.1-0.4 0-0.2 0.1-0.3 0.2-0.5l0.3-0.9q4.2-9.8 6-15.4c1.3-3.6 2-6.2 2-7.4 0-1-0.3-1.7-0.6-2.2-0.4-0.5-1-0.7-1.8-0.7-0.5 0-1 0.3-1.6 0.9-0.6 0.6-1.3 1.5-2.1 2.9zm-24.1 14.6q-4 5.5-7.2 8.4c-2.2 1.9-4.1 2.8-5.6 2.8-1.3 0-2.2-0.4-2.8-1.2-0.7-0.7-1.1-1.8-1.1-3.1 0-1 0.4-2.6 1.1-5.1 0.7-2.4 1.8-5.2 3.1-8.6h-0.3q-5.1 8.7-10 13.4c-3.2 3.1-6.2 4.6-8.9 4.6q-2.7 0.1-4.1-1.6c-0.9-1.2-1.4-2.9-1.4-5 0-3.4 1.1-7.1 3.3-11q3.2-5.8 8.8-10.7 4.1-3.7 8.4-5.5 4.2-1.7 8.4-1.7 0.7 0 2.2 0.1c0.1 0 0.1 0 0.2 0.1l2.1-3.1h5.2q-4.9 11.8-7.7 19.4c-1.8 5-2.8 8.2-2.8 9.5 0 0.6 0.2 1.1 0.4 1.5q0.4 0.5 1 0.5c0.7 0 1.5-0.3 2.3-0.9 0.7-0.6 2-2 3.7-4.1zm-29.2 0.4c0 1.4 0.2 2.4 0.7 3 0.4 0.7 1.2 1 2.2 1 1.2 0 2.7-0.9 4.4-2.5 1.7-1.7 3.7-4.3 6-7.6 1.7-2.6 3.2-5.1 4.3-7.5q1.7-3.5 1.7-4.8c0-0.6-0.3-1.1-0.8-1.4-0.5-0.4-1.2-0.6-2.2-0.6q-2.2 0-4.6 1.3-2.4 1.3-4.5 3.6-3.2 3.4-5.2 7.9c-1.3 2.9-2 5.4-2 7.6zm-64.7-5.8l10.2-35.3c0.2-0.8 0.4-1.5 0.5-2.2q0.2-1 0.2-1.7c0-1.5-1.8-2.5-5.4-2.7h-0.1l0.4-2.1q4-0.6 7.7-1.3c2.4-0.5 4.8-1.1 7.1-1.8l0.9 0.5-13.4 42.5q6.3-8.5 11.7-12.7 5.4-4.2 10.2-4.2 3.2 0 5.2 2.4 2 2.3 1.9 6.1c0 2.8-0.8 5.8-2.3 8.8q-2.4 4.7-6.7 9.1c-3.6 3.7-7.5 6.6-11.4 8.6-3.9 2.1-7.7 3.1-11.2 3.1q-3.7 0-5.7-1.9-2.1-1.8-2.1-5c0-0.8 0.2-2 0.5-3.4 0.4-1.5 0.9-3.8 1.8-6.8zm24.7-15.4q-1.9 0.1-4.2 1.5c-1.6 1-3.4 2.7-5.6 5-2.8 3-5 6-6.7 9.1-1.6 3-2.5 5.5-2.5 7.4 0 1.7 0.4 2.8 1.2 3.7 0.8 0.9 2 1.3 3.5 1.3 1.5 0 3-0.5 4.5-1.3 1.6-1 3-2.3 4.5-3.9q4-4.7 6.5-10 2.5-5.2 2.5-8.4c0-1.5-0.3-2.5-0.9-3.3q-0.9-1.1-2.8-1.1zm-116.6-5.6q5.9 0 9.5 3.9c2.4 2.6 3.6 6 3.6 10.4q0 3.8-1.4 7.8-1.4 4-4.1 7.5c-2 2.7-4.3 4.8-7 6.3-2.6 1.5-5.4 2.2-8.2 2.2-4.1 0-7.3-1.3-9.8-4-2.4-2.7-3.6-6.1-3.6-10.5 0-2.7 0.5-5.3 1.4-7.9q1.4-3.8 4.2-7.4 3.1-4.1 7.1-6.2 3.9-2.1 8.3-2.1zm-0.5 2.9c-1.4 0-2.6 0.5-3.8 1.5-1.1 0.9-2.3 2.6-3.5 5-1.5 3.1-2.8 6.4-3.7 9.8-0.9 3.4-1.4 6.4-1.4 9.3 0 2.1 0.5 3.8 1.4 5 0.8 1.2 2.1 1.8 3.7 1.8 1.6 0 3.1-0.7 4.4-1.9 1.3-1.2 2.6-3.1 3.8-5.8 1.4-2.9 2.5-5.9 3.2-9 0.8-3.2 1.2-6.1 1.2-8.8 0-2.2-0.5-3.9-1.4-5.1-1-1.3-2.3-1.8-3.9-1.8zm-43.8 25.1q-3.8 5.4-7.2 7.7c-2.3 1.6-4.7 2.4-7.3 2.4-1.8 0-3.3-0.5-4.3-1.5-1.1-1-1.6-2.3-1.6-4.1 0-0.5 0.1-1.2 0.2-1.8 0.1-0.7 0.2-1.3 0.5-2.1l6.7-22.9h-6.1v-3h6.9l2.4-8.3c0.3-1 0.7-1.8 1.2-2.1 0.5-0.3 1.5-0.5 3-0.5h0.7c1.1 0 1.9 0.2 2.5 0.5q0.7 0.4 0.7 1.3c0 0.1 0 0.3-0.1 0.6 0 0.1 0 0.1 0 0.2l-2.5 8.3h8.1v3h-8.9l-5.7 20.4c-0.2 0.6-0.4 1.2-0.5 1.7 0 0.6-0.1 0.9-0.1 1.3 0 0.9 0.2 1.7 0.8 2.2 0.4 0.6 1.1 0.9 1.9 0.9q1.1 0 2.6-1.2c1.1-0.8 2.6-2.2 4.5-4.4zm-131.7-14.4l-2.2-0.7c1.3-4.2 2.9-7.4 4.9-9.6 1.9-2.2 4.1-3.3 6.5-3.3q5.1 0 7.6 7.5c1.6 4.8 2.4 12.5 2.4 23v3.2c3.3-4.2 5.7-8.2 7.5-11.9 1.6-3.7 2.5-6.9 2.5-9.7 0-1.1-0.3-2.6-0.9-4.4-0.5-1.8-0.8-3.1-0.8-3.8 0-1.1 0.4-2.1 1.1-2.8q1.1-1.1 2.8-1.1c1.4 0 2.5 0.5 3.3 1.4q1.2 1.3 1.2 3.7c0 3.7-1.6 8.7-4.7 14.9-3.2 6.3-7.5 13-13.1 20.3-5 6.3-8.9 10.8-12 13.5-3 2.7-5.7 4-7.9 4q-1.7 0-2.9-1.1-1.2-1.1-1.2-2.6c0-1.2 0.4-2.1 1-2.7 0.7-0.7 1.6-1 2.7-1q1.1 0 2.8 0.7 1.8 0.6 2.4 0.6c0.7 0 1.7-0.6 2.8-1.6 1.2-0.9 2.4-2.3 3.5-3.9 1.1-1.4 1.8-3 2.2-4.7q0.7-2.5 0.7-7c0-9.4-0.6-16.4-1.7-21q-1.5-6.9-4.8-6.9c-1.1 0-2.2 0.5-3 1.5q-1.3 1.6-2.7 5.5zm-22 12.8c-2.7 3.6-5 6.4-7.2 8.3-2.1 2-4 2.9-5.6 2.9-1.2 0-2.1-0.4-2.8-1.2-0.7-0.7-1-1.8-1-3.1 0-1 0.3-2.7 1-5.1 0.7-2.4 1.8-5.2 3.1-8.7h-0.3q-5.1 8.8-9.9 13.5c-3.3 3.1-6.3 4.6-9 4.6q-2.6 0-4-1.7c-0.9-1.2-1.5-2.8-1.5-4.9 0-3.4 1.2-7.1 3.3-11q3.2-5.8 8.8-10.7c2.8-2.5 5.6-4.3 8.4-5.5q4.2-1.8 8.4-1.8c0.5 0 1.3 0.1 2.2 0.2 0.1 0 0.1 0 0.2 0.1l2.2-3.1h5.1c-3.2 7.8-5.8 14.3-7.6 19.4-1.9 5-2.8 8.2-2.8 9.5 0 0.6 0.1 1.1 0.4 1.4q0.3 0.6 0.9 0.6c0.7 0 1.5-0.4 2.3-0.9 0.8-0.6 2-2 3.8-4.2zm-29.3 0.5c0 1.4 0.3 2.4 0.7 3q0.7 1 2.3 1c1.2 0 2.6-0.9 4.3-2.5 1.8-1.7 3.8-4.3 6.1-7.6 1.7-2.6 3.1-5.2 4.3-7.5 1.1-2.3 1.6-3.9 1.6-4.8 0-0.6-0.2-1.1-0.7-1.5-0.5-0.3-1.2-0.5-2.2-0.5-1.5 0-3 0.4-4.7 1.3q-2.4 1.2-4.5 3.6c-2.1 2.3-3.8 4.9-5.2 7.8q-2 4.4-2 7.7zm-69.5-20.4h-8.3q-3 0-4.5 0.9-1.5 0.8-1.5 2.6c0 0.5 0.4 1.2 1.4 2.2 0.9 1 1.4 1.9 1.4 2.6 0 1-0.3 1.9-1 2.6-0.7 0.8-1.5 1.2-2.5 1.2-1.1 0-1.9-0.4-2.5-1.3q-1-1.2-1-3.3 0-1.6 1.7-5.2c1.1-2.4 2.5-4.6 4.1-6.5 0.6-0.8 1.3-1.3 2.1-1.7 0.7-0.4 1.6-0.6 2.6-0.6 0.4 0 1.4 0.1 3 0.1q2.5 0.2 4.3 0.2c1 0 2 0 3.2-0.1 1 0 2.2-0.1 3.4-0.2l0.8 0.9q-5.5 7.6-8.2 13c-1.8 3.6-2.7 6.7-2.7 9.2q0 3.5 1.8 5.5 1.8 2.1 4.8 2.1c1 0 2-0.3 3.1-0.8q1.8-0.7 3.8-2.1c-0.1-0.6-0.2-1.2-0.2-1.9 0-0.6-0.1-1.3-0.1-2 0-2.6 0.3-5.2 0.9-7.7 0.6-2.5 1.4-5.1 2.6-7.6 1.2-2.7 2.6-4.9 4.1-6.3q2.2-2.3 4.3-2.3c1.3 0 2.3 0.4 3.1 1.4 0.7 0.9 1.1 2.2 1.1 3.8 0 2.9-0.9 6.2-2.6 9.8-1.8 3.7-4.4 7.3-7.6 10.9q0.5 2.4 2 3.7 1.5 1.2 3.7 1.2 2.9 0 6-2.1c2-1.4 3.9-3.4 5.6-6 1.2-1.8 2.1-3.5 2.7-5.3q0.9-2.6 0.9-4.9c0-0.8 0-1.6-0.2-2.2-0.2-0.6-0.5-1.1-0.8-1.5-0.2-0.2-0.5-0.6-0.9-1q-2-2-2-3.5c0-1.3 0.4-2.3 1.2-3.1q1.2-1.2 3-1.2c1.5 0 2.6 0.6 3.5 1.7 0.8 1.2 1.2 2.8 1.2 5 0 2.6-0.5 5.5-1.7 8.9-1.1 3.2-2.7 6.5-4.7 9.7-2.6 4.1-5.3 7.2-8.2 9.5-2.8 2.2-5.6 3.3-8.1 3.3-2.1 0-3.8-0.5-5.2-1.7q-2.1-1.8-3-5.2c-2 2.4-3.9 4-5.8 5.1q-2.8 1.7-5.8 1.7-4 0-6.5-2.6-2.5-2.6-2.5-6.8 0-4 2.7-9.5c1.7-3.7 4.4-7.8 8-12.6zm13.9 16.8c2.2-2.6 4-5.1 5.3-7.7 1.2-2.5 1.8-4.8 1.8-6.6 0-0.9-0.1-1.5-0.5-2-0.3-0.3-0.9-0.6-1.6-0.6q-2.2 0-3.8 3.7c-1.1 2.3-1.7 5.3-1.7 8.8 0 0.6 0.1 1.2 0.2 2 0.1 0.6 0.1 1.5 0.3 2.4zm-106.8 4.8c-2.6 3.6-5 6.1-7.3 7.7-2.2 1.6-4.7 2.3-7.3 2.3-1.8 0-3.3-0.4-4.3-1.4-1.1-1-1.6-2.4-1.6-4.1 0-0.5 0-1.2 0.2-1.8 0.1-0.7 0.3-1.3 0.5-2.1l6.7-22.9h-6v-3h6.8l2.4-8.3q0.5-1.7 1.2-2.1c0.6-0.3 1.5-0.5 3-0.5h0.7c1.1 0 1.9 0.2 2.5 0.5 0.5 0.2 0.7 0.7 0.7 1.3 0 0.1 0 0.3-0.1 0.5 0 0.2 0 0.2 0 0.3l-2.5 8.3h8.1v3h-8.9l-5.7 20.3c-0.2 0.7-0.3 1.3-0.4 1.8-0.1 0.5-0.2 0.9-0.2 1.3 0 0.9 0.3 1.7 0.7 2.2q0.8 0.8 2 0.9 1.1 0 2.7-1.2c1-0.8 2.5-2.2 4.5-4.4zm-56.2-13.4c2.6-5.1 5-8.8 7-11.1q3.1-3.5 6.3-3.5 1.9 0 3 1.1 1.2 0.9 1.2 2.7c0 1.4-0.4 2.5-1.2 3.5q-1.1 1.6-2.6 1.6c-0.6 0-1.3-0.2-2.4-0.7-1-0.5-1.7-0.7-2.2-0.7q-2.1 0-4.3 3-2 3.1-5.6 12.1l-4.8 11.7c0 0.1-0.1 0.3-0.1 0.4-0.7 1.8-2.1 2.6-3.9 2.6h-0.5l-0.5-0.1c-1.1 0-2-0.2-2.6-0.4q-0.9-0.5-0.8-1.3c0-0.1 0-0.3 0-0.4q0.1-0.3 0.2-0.5l0.3-0.9c2.7-6.3 4.7-11.4 6-15.2 1.3-3.9 1.9-6.6 1.9-8.1 0-0.8-0.2-1.3-0.6-1.8q-0.5-0.6-1.7-0.7-0.7 0.1-1.7 1.1c-0.6 0.6-1.3 1.5-2 2.7l-1.7-0.9c1.7-3.5 3.4-6.2 5.4-8 1.9-1.9 3.9-2.8 5.9-2.8 1.2 0 2.2 0.5 2.9 1.2 0.7 0.7 1 1.8 1 3.2q0 2-0.5 4.7-0.6 2.5-1.8 5.5zm-35.6 11.7c-2.7 3.6-5 6.4-7.2 8.3-2.2 2-4 2.9-5.6 2.9-1.2 0-2.2-0.4-2.9-1.2-0.6-0.7-1-1.8-1-3.1 0-1 0.4-2.7 1.1-5.1 0.7-2.4 1.7-5.2 3.1-8.7h-0.3q-5.1 8.8-10 13.5c-3.2 3.1-6.2 4.6-8.9 4.6q-2.7 0-4-1.7c-1-1.2-1.5-2.8-1.5-4.9q0-5.2 3.2-11c2.2-3.9 5.1-7.5 8.9-10.7q4.1-3.7 8.4-5.5 4.2-1.8 8.4-1.8c0.5 0 1.2 0.1 2.2 0.2q0.1 0 0.2 0l2.1-3h5.2c-3.3 7.8-5.9 14.3-7.7 19.4-1.8 5-2.7 8.2-2.7 9.5 0 0.6 0.1 1.1 0.3 1.4q0.4 0.6 1 0.6c0.7 0 1.5-0.4 2.3-0.9 0.7-0.6 2-2 3.7-4.2zm-29.3 0.5c0 1.4 0.3 2.4 0.8 3q0.7 1 2.2 1c1.2 0 2.6-0.9 4.4-2.5 1.7-1.7 3.7-4.3 6-7.6 1.7-2.6 3.2-5.2 4.3-7.5q1.6-3.5 1.7-4.8c0-0.6-0.3-1.1-0.8-1.5-0.5-0.3-1.2-0.5-2.2-0.5q-2.2 0-4.6 1.3c-1.6 0.8-3.2 2-4.6 3.6q-3.1 3.5-5.1 7.8-2.1 4.4-2.1 7.7zm-85.5 10.5l-0.6-0.1c-1 0-1.8-0.2-2.4-0.5-0.6-0.3-0.8-0.7-0.8-1.3q0-0.1 0-0.3c0-0.2 0.1-0.4 0.2-0.5l0.3-0.9c2.7-6.5 4.7-11.6 6-15.4q2-5.7 2-7.9c0-0.8-0.2-1.3-0.6-1.8-0.4-0.4-1-0.7-1.7-0.7q-0.8 0.1-1.8 1.1c-0.6 0.6-1.3 1.5-2 2.7l-1.7-0.9q2.5-5.3 5.4-8c1.9-1.9 3.9-2.8 5.9-2.8 1.2 0 2.2 0.5 2.9 1.2 0.7 0.8 1.1 1.8 1.1 3.2 0 0.9-0.1 2.1-0.4 3.4-0.2 1.4-0.6 2.8-1 4.4q4-6 8-9.2c2.6-2 5.2-3.1 7.8-3.1 1.8 0 3.3 0.6 4.5 1.7 1.1 1.1 1.7 2.5 1.7 4.4 0 0.5-0.1 1.2-0.3 2-0.2 1-0.5 2.1-0.9 3.4 3.2-3.9 6.2-6.8 9.1-8.7q4.3-2.9 8.3-2.9c1.8 0 3.3 0.5 4.4 1.5 1 1.1 1.6 2.5 1.6 4.2 0 0.8-0.1 1.5-0.3 2.4-0.3 1-0.6 2.1-1.1 3.4l-4.5 12v0.1c-1.1 3.1-1.7 4.9-1.7 5.5q0 0.9 0.6 1.5 0.5 0.6 1.2 0.6c0.7 0 1.6-0.4 2.6-1.3q1.5-1.2 3.7-3.9l1.7 1.3q-4 5.2-7.7 8c-2.4 1.8-4.7 2.7-6.6 2.7-1.4 0-2.5-0.4-3.3-1.3-0.8-0.8-1.2-2-1.2-3.5 0-1 0.7-3.5 2.2-7.2 0.7-1.9 1.3-3.4 1.7-4.6 1.6-4.3 2.6-7.4 3.3-9.4 0.6-2 1-3.3 1-4 0-1-0.3-1.7-0.9-2.3-0.5-0.5-1.2-0.8-2.2-0.8-2.6 0-5.4 2.1-8.5 6.5-3 4.3-5.9 10.3-8.6 18l-1.8 5.3c-0.4 1.2-0.8 1.9-1.2 2.3-0.4 0.4-1.1 0.5-2.1 0.5h-1.8q-1.6 0-2.3-0.4-0.8-0.3-0.8-1c0-0.3 0.1-0.7 0.2-1.2 0.1-0.5 0.2-1 0.4-1.5l7-19.6c0.4-0.8 0.7-1.8 0.8-2.6 0.2-0.9 0.3-1.8 0.3-2.5 0-1.1-0.3-1.9-0.9-2.5-0.6-0.8-1.4-1.1-2.4-1.1-2 0-4.2 1.7-6.6 5q-3.5 5-7 14.3l-3.8 10.2q-0.8 2-1.4 2.4c-0.4 0.4-1.2 0.5-2.3 0.5zm-64.4-3.3c0.4-1.3 0.8-2.7 1.3-4.3 0.5-1.5 1.2-3.9 2-7l2.8 0.5q-0.2 1.3-0.3 2.3c-0.2 0.8-0.2 1.4-0.2 1.8 0 2.4 0.9 4.4 2.6 5.7 1.6 1.3 4 2.1 7 2.1 3.1 0 5.7-1 7.6-2.8q3-2.7 3-6.9c0-3.2-2.5-7.6-7.5-13.5q-1-1.1-1.5-1.7c-3.2-3.6-5.2-6.5-6.2-8.6-0.9-2.1-1.4-4.2-1.4-6.5q0-7 5.1-11.7 5-4.7 12.9-4.7 3.6 0 7 1.1c2.3 0.7 4.5 1.9 6.7 3.4-0.5 1.5-1 3.1-1.4 4.7-0.5 1.6-0.8 3.3-1.1 5l-2.8-0.6c0.1-0.7 0.1-1.1 0.2-1.4q0-0.4 0-0.8c0-2.6-0.7-4.6-2.2-6.1-1.5-1.4-3.5-2.2-6.1-2.2q-4.3 0-7.3 2.8-2.8 2.7-2.8 6.8c0 1.9 0.5 3.6 1.4 5.4q1.4 2.7 5.8 7.6c0.3 0.2 0.7 0.7 1.2 1.4 5.8 6.4 8.8 12 8.8 16.5q0 7.1-5.2 11.5c-3.6 3-8.2 4.4-14 4.4q-3.9 0-7.7-1c-2.6-0.7-5.1-1.8-7.7-3.2z"/></svg>