<svg
  width="190"
  height="48"
  viewBox="0 0 190 48"
  fill="none"
  xmlns="http://www.w3.org/2000/svg"
>
  <path
    fill-rule="evenodd"
    clip-rule="evenodd"
    d="M5.05811 31.5173H13.1486V26.4138H5.05811V31.5173Z"
    fill="#F8C63F"
  ></path>
  <path
    fill-rule="evenodd"
    clip-rule="evenodd"
    d="M31.4155 20.0349H39.506V14.9314H31.4155V20.0349Z"
    fill="#F8C63F"
  ></path>
  <path
    fill-rule="evenodd"
    clip-rule="evenodd"
    d="M19.0927 20.0346H25.4719V25.5736H30.5754V6H25.4719V14.9311H19.0927V6H13.9893V14.9311H5.05811V20.0346H13.9893H19.0927Z"
    fill="#F8C63F"
  ></path>
  <path
    fill-rule="evenodd"
    clip-rule="evenodd"
    d="M19.0917 37.8965H25.471V31.5173H19.0917V37.8965ZM25.471 26.4135H19.0917V20.8745H13.9883V37.8965V38.5344L18.4539 43H26.1089L30.5744 38.5344V37.8965V31.5169H39.5056V26.4135H30.5744H25.471Z"
    fill="#F8C63F"
  ></path>
  <path
    fill-rule="evenodd"
    clip-rule="evenodd"
    d="M79.2534 24.5558L72.7428 11.4727H70.2812V36.9927H74.4185L74.4189 22.8176L80.9702 36.9927H83.3964V11.4727H79.2534V24.5558Z"
    fill="#2A3238"
  ></path>
  <path
    fill-rule="evenodd"
    clip-rule="evenodd"
    d="M59.3954 11.4727V32.9936H54.5557V11.4727H50.418V33.3432L54.0674 36.9931H59.8837L63.5331 33.3432V11.4727H59.3954Z"
    fill="#2A3238"
  ></path>
  <path
    fill-rule="evenodd"
    clip-rule="evenodd"
    d="M100.488 15.4722V11.4731H97.0396H92.9019H89.4531V15.4722H92.9019V32.9941H89.4531V36.9931H100.488V32.9941H97.0396V15.4722H100.488Z"
    fill="#2A3238"
  ></path>
  <path
    fill-rule="evenodd"
    clip-rule="evenodd"
    d="M120.014 11.4727H115.038H110.9H105.925V15.4717H110.9V36.9927H115.038V15.4717H120.014V11.4727Z"
    fill="#2A3238"
  ></path>
  <path
    fill-rule="evenodd"
    clip-rule="evenodd"
    d="M135.273 11.4727L131.661 22.6373L128.05 11.4727H123.773L129.592 27.5633V36.9927H133.73V27.5633L139.548 11.4727H135.273Z"
    fill="#2A3238"
  ></path>
  <path
    fill-rule="evenodd"
    clip-rule="evenodd"
    d="M147.178 15.9141H147.609C148.212 17.15 148.816 17.6576 149.736 17.6576C150.474 17.6576 150.981 17.2557 150.981 16.508C150.981 15.6649 150.273 15.4448 149.276 15.1766C148.27 14.908 147.264 14.5827 147.264 13.3565C147.264 12.3694 148.011 11.5742 149.18 11.5742C149.803 11.5742 150.416 11.8423 150.78 12.2642L150.972 11.6033H151.441V13.6629H151.01C150.521 12.446 149.86 12.0246 149.133 12.0246C148.5 12.0246 148.011 12.4174 148.011 13.117C148.011 13.9985 148.768 14.19 149.659 14.429C150.741 14.7068 151.729 14.9851 151.729 16.2113C151.729 17.3032 150.885 18.1177 149.717 18.1177C148.941 18.1177 148.318 17.8302 147.858 17.3415L147.648 18.0886H147.178V15.9141Z"
    fill="#2A3238"
  ></path>
  <path
    fill-rule="evenodd"
    clip-rule="evenodd"
    d="M158.186 13.5869C158.905 13.5869 159.307 14.0659 159.307 14.9566V17.4667H160.026V17.9651H157.956V17.4667H158.569V15.2824C158.569 14.8708 158.511 14.5639 158.33 14.3724C158.205 14.2478 158.033 14.2002 157.812 14.2002C157.209 14.2002 156.615 14.8994 156.615 15.5893V17.4667H157.227V17.9651H155.264V17.4667H155.867V15.2824C155.867 14.8708 155.819 14.5639 155.638 14.3724C155.504 14.2478 155.341 14.2002 155.12 14.2002C154.507 14.2002 153.923 14.8994 153.923 15.5893V17.4667H154.526V17.9651H152.457V17.4667H153.176V14.1522H152.457V13.6538H153.904V14.7651C154.411 13.8841 154.957 13.5869 155.484 13.5869C156.145 13.5869 156.538 13.951 156.596 14.7268C157.113 13.8744 157.649 13.5869 158.186 13.5869Z"
    fill="#2A3238"
  ></path>
  <path
    fill-rule="evenodd"
    clip-rule="evenodd"
    d="M163.224 16.6046V15.7522C163.137 15.7809 162.984 15.8095 162.754 15.8478C161.777 16.001 161.423 16.2022 161.423 16.7772C161.423 17.2562 161.672 17.5244 162.17 17.5244C162.678 17.5244 163.224 17.103 163.224 16.6046ZM160.608 16.911C160.608 16.6332 160.704 16.3554 160.905 16.145C161.241 15.8095 161.701 15.6849 162.543 15.5506C163.128 15.455 163.224 15.4356 163.224 15.2727V14.8514C163.224 14.2192 162.908 13.9893 162.333 13.9893C161.997 13.9893 161.71 14.0756 161.509 14.2386C161.672 14.3244 161.768 14.4781 161.768 14.6788C161.768 14.9571 161.576 15.1675 161.269 15.1675C160.963 15.1675 160.762 14.9474 160.762 14.6502C160.762 14.0276 161.566 13.5869 162.457 13.5869C163.444 13.5869 163.971 14.0082 163.971 14.88V17.1316C163.971 17.4284 164.067 17.5147 164.258 17.5147C164.421 17.5147 164.536 17.3809 164.641 17.1316L164.929 17.2946C164.708 17.7828 164.469 18.0131 164.038 18.0131C163.645 18.0131 163.32 17.7828 163.309 17.2179H163.281C162.994 17.7062 162.429 18.032 161.844 18.032C161.058 18.032 160.608 17.5816 160.608 16.911Z"
    fill="#2A3238"
  ></path>
  <path
    fill-rule="evenodd"
    clip-rule="evenodd"
    d="M164.967 17.4667H165.781V11.9006H164.967V11.3833H166.528V17.4667H167.333V17.9651H164.967V17.4667Z"
    fill="#2A3238"
  ></path>
  <path
    fill-rule="evenodd"
    clip-rule="evenodd"
    d="M167.688 17.4667H168.503V11.9006H167.688V11.3833H169.25V17.4667H170.055V17.9651H167.688V17.4667Z"
    fill="#2A3238"
  ></path>
  <path
    fill-rule="evenodd"
    clip-rule="evenodd"
    d="M146.957 27.0467H148.021V21.7871H146.957V21.2988H152.313V23.2911H151.939C151.651 21.998 151.498 21.7871 150.894 21.7871H148.825V24.2302H149.707C150.262 24.2302 150.358 24.1245 150.483 23.2533H150.876V25.6959H150.483C150.377 24.7859 150.262 24.6613 149.707 24.6613H148.825V27.0467H149.994V27.5451H146.957V27.0467Z"
    fill="#2A3238"
  ></path>
  <path
    fill-rule="evenodd"
    clip-rule="evenodd"
    d="M153.47 21.7197C153.47 21.4036 153.691 21.1641 154.016 21.1641C154.314 21.1641 154.543 21.3842 154.543 21.71C154.543 22.0358 154.314 22.2559 154.016 22.2559C153.7 22.2559 153.47 22.0552 153.47 21.7197ZM152.886 27.0462H153.7V23.7313H152.886V23.2334H154.438V27.0462H155.252V27.5442H152.886V27.0462Z"
    fill="#2A3238"
  ></path>
  <path
    fill-rule="evenodd"
    clip-rule="evenodd"
    d="M155.742 27.0458H156.461V23.7309H155.742V23.2329H157.189V24.3442C157.697 23.4627 158.261 23.166 158.818 23.166C159.545 23.166 159.986 23.645 159.986 24.5265V27.0458H160.705V27.5442H158.587V27.0458H159.249V24.8615C159.249 24.4591 159.182 24.1527 158.999 23.9709C158.865 23.8269 158.674 23.7697 158.453 23.7697C157.821 23.7697 157.208 24.4688 157.208 25.168V27.0458H157.86V27.5442H155.742V27.0458Z"
    fill="#2A3238"
  ></path>
  <path
    fill-rule="evenodd"
    clip-rule="evenodd"
    d="M163.914 26.1837V25.3313C163.828 25.36 163.675 25.3886 163.444 25.4269C162.467 25.5801 162.113 25.7813 162.113 26.3563C162.113 26.8353 162.362 27.1035 162.86 27.1035C163.368 27.1035 163.914 26.6821 163.914 26.1837ZM161.299 26.4901C161.299 26.2123 161.395 25.9345 161.596 25.7241C161.931 25.3886 162.391 25.264 163.234 25.1297C163.818 25.0341 163.914 25.0147 163.914 24.8518V24.4305C163.914 23.7983 163.598 23.5684 163.023 23.5684C162.688 23.5684 162.4 23.6547 162.199 23.8177C162.362 23.9035 162.458 24.0572 162.458 24.2579C162.458 24.5362 162.266 24.7466 161.96 24.7466C161.653 24.7466 161.452 24.5265 161.452 24.2293C161.452 23.6067 162.257 23.166 163.148 23.166C164.134 23.166 164.661 23.5873 164.661 24.4591V26.7107C164.661 27.0075 164.757 27.0938 164.949 27.0938C165.111 27.0938 165.227 26.96 165.332 26.7107L165.619 26.8737C165.399 27.3619 165.159 27.5922 164.728 27.5922C164.335 27.5922 164.01 27.3619 164 26.797H163.972C163.684 27.2853 163.119 27.6111 162.535 27.6111C161.749 27.6111 161.299 27.1607 161.299 26.4901Z"
    fill="#2A3238"
  ></path>
  <path
    fill-rule="evenodd"
    clip-rule="evenodd"
    d="M165.811 27.0458H166.529V23.7309H165.811V23.2329H167.257V24.3442C167.765 23.4627 168.33 23.166 168.886 23.166C169.614 23.166 170.054 23.645 170.054 24.5265V27.0458H170.773V27.5442H168.656V27.0458H169.317V24.8615C169.317 24.4591 169.25 24.1527 169.068 23.9709C168.933 23.8269 168.742 23.7697 168.521 23.7697C167.889 23.7697 167.276 24.4688 167.276 25.168V27.0458H167.928V27.5442H165.811V27.0458Z"
    fill="#2A3238"
  ></path>
  <path
    fill-rule="evenodd"
    clip-rule="evenodd"
    d="M171.301 25.4753C171.301 24.1148 172.182 23.1567 173.475 23.1567C174.414 23.1567 175.104 23.8176 175.104 24.3737C175.104 24.747 174.893 25.0346 174.548 25.0346C174.222 25.0346 174.031 24.795 174.031 24.5172C174.031 24.2874 174.184 24.0765 174.395 23.9999C174.241 23.7701 173.935 23.5592 173.447 23.5592C172.661 23.5592 172.105 24.2583 172.105 25.3793C172.105 26.4716 172.622 27.1325 173.485 27.1325C174.089 27.1325 174.51 26.7878 174.75 26.1458H175.162C174.912 27.1136 174.232 27.6309 173.303 27.6309C172.105 27.6309 171.301 26.7204 171.301 25.4753Z"
    fill="#2A3238"
  ></path>
  <path
    fill-rule="evenodd"
    clip-rule="evenodd"
    d="M176.636 25.0152H178.888C178.821 24.1148 178.485 23.5684 177.825 23.5684C177.192 23.5684 176.732 24.0571 176.636 25.0152ZM176.627 25.4273C176.646 26.5478 177.192 27.1228 178.007 27.1228C178.533 27.1228 178.974 26.9216 179.233 26.2796H179.635C179.376 27.1708 178.735 27.6304 177.844 27.6304C176.588 27.6304 175.822 26.7204 175.822 25.4365C175.822 24.124 176.723 23.1567 177.872 23.1567C179.127 23.1567 179.683 24.2869 179.654 25.4273H176.627Z"
    fill="#2A3238"
  ></path>
  <path
    fill-rule="evenodd"
    clip-rule="evenodd"
    d="M149.783 36.6263C151 36.6263 151.469 36.2239 151.469 35.2944C151.469 34.5667 150.933 34.0682 149.745 34.0682H148.825V36.6263H149.783ZM149.774 33.6086C150.78 33.6086 151.182 33.1393 151.182 32.4018C151.182 31.7502 150.866 31.3667 149.812 31.3667H148.825V33.6086H149.774ZM146.957 36.6263H148.021V31.3667H146.957V30.8784H149.726C151.584 30.8784 152.044 31.5873 152.044 32.3824C152.044 32.8901 151.709 33.5989 150.473 33.8195V33.8481C151.728 33.9441 152.341 34.5856 152.341 35.3521C152.341 36.253 151.814 37.1247 149.735 37.1247H146.957V36.6263Z"
    fill="#2A3238"
  ></path>
  <path
    fill-rule="evenodd"
    clip-rule="evenodd"
    d="M155.723 35.7638V34.9114C155.636 34.94 155.483 34.9686 155.253 35.0069C154.276 35.1602 153.922 35.3614 153.922 35.9364C153.922 36.4154 154.171 36.6835 154.669 36.6835C155.177 36.6835 155.723 36.2622 155.723 35.7638ZM153.107 36.0702C153.107 35.7924 153.203 35.5146 153.404 35.3042C153.74 34.9686 154.199 34.844 155.042 34.7097C155.627 34.6142 155.723 34.5948 155.723 34.4319V34.0106C155.723 33.3783 155.407 33.1485 154.832 33.1485C154.497 33.1485 154.209 33.2348 154.008 33.3977C154.171 33.4835 154.267 33.6372 154.267 33.838C154.267 34.1163 154.075 34.3267 153.768 34.3267C153.462 34.3267 153.261 34.1066 153.261 33.8094C153.261 33.1868 154.065 32.7461 154.956 32.7461C155.943 32.7461 156.47 33.1674 156.47 34.0392V36.2908C156.47 36.5875 156.566 36.6739 156.757 36.6739C156.92 36.6739 157.035 36.54 157.14 36.2908L157.428 36.4537C157.207 36.942 156.968 37.1723 156.537 37.1723C156.144 37.1723 155.819 36.942 155.809 36.3771H155.78C155.493 36.8654 154.928 37.1912 154.343 37.1912C153.557 37.1912 153.107 36.7408 153.107 36.0702Z"
    fill="#2A3238"
  ></path>
  <path
    fill-rule="evenodd"
    clip-rule="evenodd"
    d="M157.619 36.6268H158.338V33.3119H157.619V32.814H159.066V33.9253C159.574 33.0438 160.139 32.7471 160.695 32.7471C161.422 32.7471 161.863 33.2261 161.863 34.1076V36.6268H162.582V37.1253H160.464V36.6268H161.126V34.4426C161.126 34.0402 161.059 33.7337 160.876 33.5519C160.742 33.4079 160.551 33.3507 160.33 33.3507C159.698 33.3507 159.085 34.0499 159.085 34.749V36.6268H159.736V37.1253H157.619V36.6268Z"
    fill="#2A3238"
  ></path>
  <path
    fill-rule="evenodd"
    clip-rule="evenodd"
    d="M165.6 34.509L167.095 36.6264H167.641V37.1243H165.677V36.6356H166.251L165.112 34.9784L164.412 35.6872V36.6264H165.006V37.1243H162.946V36.6264H163.665V31.0603H162.946V30.543H164.412V35.151L166.155 33.3018H165.437V32.8135H167.43V33.3115H166.779L165.6 34.509Z"
    fill="#2A3238"
  ></path>
</svg>
