<svg version="1.2" xmlns="http://www.w3.org/2000/svg" viewBox="0 0 1922 470" width="1922" height="470"><style>.a{fill:#f26522}</style><path fill-rule="evenodd" class="a" d="m309.5 468.3l-225.4 0.2 1.6-8 164.3-4.7c31.4-1.2 62-2.8 91.6-12.9 60.7-20.3 109.1-61.6 123.3-112.8 15.3-54.8-19.8-108.2-85.9-112.8 56-16.3 103.7-51.8 116.4-97.5 16.5-59.4-13.3-89.3-63.7-100.3 83.8-1.3 149.4 26.9 127.1 107.1-12.7 45.7-61.6 80.5-117.2 95.6 65.3 4.9 101.2 67.1 83.8 121.4-18 56.4-63.5 91.5-124.2 111.8-29.7 10-60.3 11.7-91.7 12.9z"/><path fill-rule="evenodd" class="a" d="m191.2 439.9l-105.8 5.3c0-2.7 0.1-2.1-0.2-4.7l267.9-79.3 0.9-9.7-273.7 70.8c-0.8-2.6-0.9-1.9-2.1-4.3l286.5-158.7-2.8-7.9-292.8 151.4c-1.7-2.5-1-1.5-3-3.7l340.6-318.1-4.2-8.6-349 315.4c-1.6-1.2-2.7-2-4.4-3.1l249.6-359.4-10.5 0.1-255.5 351.9c-1.4-0.5-3-1-4.5-1.4l148.4-351.1h-9.5l-159.6 348.4c-2 0-6.5 0.1-6.5 0.1l103.3-373.2 193 0.6c91.3-5.2 163.4 19.4 139.7 104.7-12.7 45.6-60.5 81.1-116.1 96.3l-0.4 1.2c66.1 4.6 103.4 57.9 88.1 112.7-14.2 51.1-65.1 91.1-125.8 111.4-29.6 10-60.2 11.7-91.6 12.9zm510.1 27.7c14.4 0 50.4-1.8 59.1-42.8 4.7-22.2 1.7-37.6-21.5-41l0.1-0.5c19.1-3.5 31.2-17 35.1-35.6 7.3-34.5-12.4-41.9-38.2-41.9h-60l-34.4 161.8zm3.1-136.9h20.9c11.4 0 17.6 8.7 15.1 20.6-3.3 15.7-14.7 20.6-22.1 20.6h-22.6zm-14.1 66.1h19.7c17 0 20.6 8.8 17.5 23.1-4.8 22.6-21 22.9-28.2 22.9h-18.8zm178.9-6.8c4.4-20.6 2.9-37.8-37.2-37.8-12.1 0-22.8 2-31.2 7.4-8.4 5.1-14.6 13.8-17.5 27.5h31c1.9-9 4.5-17.2 15.5-17.2 11.4 0 11.3 6.9 9.3 16.6l-1.9 8.7c-29.3-0.4-58.5 1.1-66.5 38.6-4.2 19.7 0.4 36.1 22.4 36.1 13.6 0 24-5.6 33.2-17.3h0.5l-1.9 15h29.4c0.8-6.9 1.4-14.1 2.9-21.1zm-35.8 22.9c-2.6 12.3-5 37.4-23.6 37.4-10.3 0-9.6-9.8-7.9-17.9 4.3-20.2 15.7-18.8 31.5-19.5zm91.8-58.5h-31.6l-24.1 113.2h31.6l16.6-78c2.1-10.1 5.6-17.9 15.7-17.9 10.1 0 10.2 7.8 8 17.9l-16.5 78h31.6l19.3-90.8c3.3-15.7-8-24.7-23-24.7-11.9 0-21.2 3.6-29.6 13.7h-0.5zm77.9 113.2l13.1-61.6h0.5l16.3 61.6h35.6l-22.3-62.7 42.8-50.5h-33l-38.6 47.8h-0.4l20.4-96.4h-31.6l-34.4 161.8zm145.2 2.3c40.8 0 51.5-24.9 59-60.3 6.6-31 7.7-57.4-34-57.4-41.6 0-51.8 26.4-58.3 57.4-7.6 35.4-7.5 60.3 33.3 60.3zm4.3-20.2c-11.6 0-13-7.4-5.6-41.9 5-23.6 8.6-35.5 22-35.5 13.5 0 12.1 11.9 7.1 35.5-7.3 34.5-11.8 41.9-23.5 41.9zm138.5-144.6c-3.7-0.2-7.3-0.4-11.1-0.4-38.5 0-39.5 17.2-46.2 49.7h-14.4l-4.1 19.5h14.1l-19.9 93.7h31.6l19.9-93.7h14.8l4.2-19.5h-14.8l2.9-13.7c2.4-11.4 6.2-16.3 18.7-15.4zm71.8 162.5c14.4 0 50.4-1.8 59.1-42.8 4.7-22.2 1.7-37.7-21.5-41l0.1-0.5c19.1-3.6 31.1-17 35.1-35.6 7.4-34.6-12.4-42-38.1-42h-60.1l-34.4 161.9zm3.1-137h20.9c11.4 0 17.6 8.8 15.1 20.6-3.4 15.7-14.7 20.7-22.1 20.7h-22.6zm-14.1 66.1h19.7c17.1 0 20.6 8.7 17.5 23.1-4.8 22.6-21 22.8-28.1 22.8h-18.9zm178.9-6.7c4.4-20.6 2.9-37.9-37.2-37.9-12.1 0-22.9 2-31.2 7.4-8.5 5.2-14.6 13.9-17.5 27.6h30.9c1.9-9 4.6-17.3 15.6-17.3 11.4 0 11.3 7 9.2 16.6l-1.8 8.8c-29.3-0.5-58.6 1.1-66.5 38.5-4.2 19.8 0.4 36.1 22.3 36.1 13.7 0 24.1-5.6 33.3-17.2h0.4l-1.8 15h29.4c0.8-7 1.4-14.1 2.9-21.1zm-35.8 22.9c-2.6 12.3-5.1 37.4-23.7 37.4-10.3 0-9.5-9.9-7.8-17.9 4.3-20.2 15.7-18.9 31.5-19.5zm60.1-58.5l-24 113.2h31.6l13.1-61.7c2.4-11.2 6.2-27.3 33.7-25.5l6-28.3c-12.8 0-24.4 3.8-33 16.8h-0.4l3.1-14.5zm84 115.4c40.8 0 51.5-24.9 59-60.3 6.6-30.9 7.7-57.4-33.9-57.4-41.7 0-51.8 26.5-58.4 57.4-7.6 35.4-7.5 60.3 33.3 60.3zm4.3-20.2c-11.6 0-13-7.4-5.6-41.9 5-23.5 8.6-35.4 22.1-35.4 13.4 0 12 11.9 7 35.4-7.3 34.5-11.8 41.9-23.5 41.9zm141.9 17.9l34.4-161.8h-31.6l-12.6 59.4h-0.5c-4.4-9.6-11.6-13-23-13-31.9 0-38.4 35.2-43.3 58.1-5 23.3-13.8 59.6 18.9 59.6 12.1 0 21.7-3.8 29.9-14.8h0.4l-2.7 12.5zm-40.7-17.2c-11.4 0-10.9-11.9-4.8-40.4 4.8-22.6 7.9-38.3 21.6-38.3 13 0 9.4 15.7 4.6 38.3-6.1 28.5-10.6 40.4-21.4 40.4zm159.2-60.3c4.4-20.6 2.9-37.9-37.2-37.9-12.1 0-22.9 2-31.2 7.4-8.5 5.2-14.6 13.9-17.5 27.6h30.9c1.9-9 4.6-17.3 15.5-17.3 11.5 0 11.4 7 9.3 16.6l-1.9 8.8c-29.2-0.5-58.5 1.1-66.4 38.5-4.2 19.7 0.4 36.1 22.3 36.1 13.7 0 24.1-5.6 33.3-17.3h0.4l-1.8 15.1h29.3c0.8-7 1.5-14.2 2.9-21.1zm-35.7 22.8c-2.7 12.4-5.1 37.5-23.7 37.5-10.3 0-9.5-9.9-7.8-18 4.3-20.1 15.6-18.8 31.5-19.5zm-279.1-190.8h27.3l-6.1 22.8h-27.4zm-374.5-22.4h27.4l-6.2 22.7h-27.3zm-498.5-129.5h-48.2l-4.3 13.7h70.1l-6.7 26.7c-4.3-7.6-16.4-10.6-27.3-10.6-30.5 0-39 24.7-43.6 42.8-4.8 18.4-11 50.3 20.3 50.3 11.6 0 26-2.7 34.2-11.4l-7.6 27.3h28.8l32.1-125.1h77.5l-6.8 26.7c-4.2-7.6-11.1-10.3-22-10.3-30.4 0-38 25.3-42.7 43.4-4.7 18.4-11.9 49.7 19.4 49.7 11.6 0 20.8-3 29-11.7l-7.4 27.2 28.5 0.1 17.1-68.6c5.1-17.3 10.5-24.1 19.6-24.1 11 0 10.5 9.4 4.7 31.9-4.6 17.9-8.2 33.6-21.3 33.6-0.9 0-2-0.6-2.8-0.7l-2.1 8.1c3 2.7 8.5 4 14.5 4 30.4 0 38.3-26.2 42.9-44.3 4.7-18.4 11.6-48-19.7-48-11.6 0-21.2 3.3-29 12l7.2-29h58.1l4.3-13.7h-167.4l-14.8-67.7-25.3 11.2 21.5 56.4h-8.1l-26.8-46.4-21 15.4zm404.1 0l-4.3 13.7h17.8l-11.7 45.5h-23l-3.9 14h23.3l-16.9 65.7h28.8l32.1-125.2h22.7l-32.2 125.2h28.8l32.1-125.2h24l-20.3 78c-3.2 12.5 7.7 19.5 22 19.5 11.4 0 20.3-2.8 28.8-10.8l-9.6 38.3h31.3c0.9-5.8 9.2-41.1 10.7-47l7.5-28.9c3-6.2 7.7-12.1 14.7-12.1 9.6 0 9.8 6.2 7.7 14.2l-15.8 61.7h30.2l18.5-71.8c3.2-12.4-7.7-19.5-22-19.5-11.3 0-21 3.6-29.1 11.4l8.6-33h52.1l4.3-13.7zm170.5 13.7l-17.2 65c-2.1 8-5.7 17.1-15.4 17.1-9.6 0-9.8-5.8-7.8-13.8l17.8-68.3zm-258.9 124.9h-42.9l3.6-14.1h37.4c9.5 0 23.5-5.3 28.3-24.1 3-11.9-2.1-25.7-19.2-25.7h-28.1l3.8-15.4h32.5c11.6 0 20.4-9.9 23.8-22.9 2.5-9.8 1.9-23-15.2-23h-34.9l3.6-14.1h42c21.3 0 44.4 9.1 38.3 34.7-4.6 19-14.4 28.6-36.9 32.2 23.3 3.1 27.9 18.6 23.1 37-8.7 34-44.8 35.4-59.2 35.4zm-254.9-172.7h27.4l-6.2 22.8h-27.3zm-83 87.4c3.5-5.2 8.3-8.1 16.1-8 16.3 0.1 12.7 12.6 8.1 30.5l-1.8 6.6zm17.2 43.3c-4 7.6-9 10.9-17.1 10.9-13.8 0-14.1-9.2-8.3-31.7 0.8-3.2 1.6-6.2 2.4-8.9zm99.7 42.1l7.4-27.2c0 0 0.2-0.1-7.4 27.2zm-5.4-31c-10.9 0-10.4-9.3-4.6-31.9 4.6-17.9 7.5-30.3 20.6-30.3 12.4 0 9 12.4 4.4 30.3-5.7 22.6-10.1 31.9-20.4 31.9zm843.4-68.1c-2.5-6.7-10.5-8.7-28.5-8.7-29.4 0-34.4 3.3-41.3 28.8-3.6 13.8-6.7 30.4 13 30.4 7.5 0 23.2 0.3 23.2 0.3 17.7 0 16.8 6.1 13.2 17.7-4.5 16.2-8.4 19-20 19-19.3 0-12.6-11.1-9.6-22.3h-33.1c-6.7 21.3-5.6 34.5 23.8 34.4h33.6c17.2 0.1 31-1.6 38.4-29.8 5.9-25.1 2.9-31.4-14-31.4h-22.9c-13.4 0.3-17.3-2.5-14-16 4.6-15.8 7.8-17.4 19-17.4 12.2 0 16.7 3.6 14.2 13.3h28.9l11.4-44.2h23.1l-32.2 125.2h28.7l32.2-125.2h80.9l-5.5 19.3c0 0-12.2-0.7-23.2-0.7-30.4 0-41.4 22.1-47.8 47.3-6.3 24.6-12.5 60.8 24.6 60.8 6.4 0 14.8-0.6 22.4-2.6 1.2 8.6 5.5 16 12.6 24.4l30.9-16.9c0 0-15.5-1-21.9-13.1 12.4-3.5 18.9-10.2 22.4-22.8 2.5-8.9 2.5-19.1-16-19.1-20.2 0.1-30 20-28.1 37.1-2.5 0.8-4.5 1.3-5.8 1.3-18 0-13-16.7-6.6-44.5 5.4-23.1 9-38.7 22.1-38.7h40.1l10-31.8h24.9l-32.2 125.2h28.8l32.1-125.2h16.2l4.3-13.7h-193l-14.7-67.7-25.4 11.3 21.5 56.4h-8.1l-26.8-46.4-21 15.4 25.2 31h-204.4l-4.3 13.7h69.7l-6.8 26.7c-4.3-7.6-16.4-10.6-27.3-10.6-30.4 0-40 26.5-44.7 44.6-4.7 18.4-9.9 48.5 21.4 48.5 11.6 0 26-2.7 34.2-11.4l-7.5 27.3h28.7l32.1-125h85.1zm-149.5 14.7c3.5-5.8 8.4-9.1 16.8-9.1 16.3 0.2 12.7 12.7 8.1 30.6l-2.2 8zm14.8 43.4c-3.9 6.8-8.8 9.8-16.5 9.8-13.8 0-14.1-9.3-8.2-31.8l1.9-7.4zm-285.4-141.3c-7.1 27.1-19.5 28.5-35 28.5h-30.3c-25.4 0-27.4-10.8-22.3-28.5h29.9c-2.8 9.2-6.5 17.6 9.4 17.6 10.5 0 14-2.5 18-17.1z"/></svg>